  0
SECTION
  2
HEADER
  9
$ACADVER
  1
AC1032
  9
$ACADMAINTVER
 90
4
  9
$DWGCODEPAGE
  3
ANSI_1252
  9
$LASTSAVEDBY
  1
ezdxf
  9
$REQUIREDVERSIONS
160
0
  9
$INSBASE
 10
0.0
 20
0.0
 30
0.0
  9
$EXTMIN
 10
1e+20
 20
1e+20
 30
1e+20
  9
$EXTMAX
 10
-1e+20
 20
-1e+20
 30
-1e+20
  9
$LIMMIN
 10
0.0
 20
0.0
  9
$LIMMAX
 10
420.0
 20
297.0
  9
$ORTHOMODE
 70
0
  9
$REGENMODE
 70
1
  9
$FILLMODE
 70
1
  9
$QTEXTMODE
 70
0
  9
$MIRRTEXT
 70
1
  9
$LTSCALE
 40
1.0
  9
$ATTMODE
 70
1
  9
$TEXTSIZE
 40
2.5
  9
$TRACEWID
 40
1.0
  9
$TEXTSTYLE
  7
OpenSans
  9
$CLAYER
  8
0
  9
$CELTYPE
  6
ByLayer
  9
$CECOLOR
 62
256
  9
$CELTSCALE
 40
1.0
  9
$DISPSILH
 70
0
  9
$DIMSCALE
 40
1.0
  9
$DIMASZ
 40
0.175
  9
$DIMEXO
 40
0.125
  9
$DIMDLI
 40
3.75
  9
$DIMRND
 40
0.0
  9
$DIMDLE
 40
0.0
  9
$DIMEXE
 40
0.375
  9
$DIMTP
 40
0.0
  9
$DIMTM
 40
0.0
  9
$DIMTXT
 40
0.25
  9
$DIMCEN
 40
2.5
  9
$DIMTSZ
 40
0.0
  9
$DIMTOL
 70
0
  9
$DIMLIM
 70
0
  9
$DIMTIH
 70
0
  9
$DIMTOH
 70
0
  9
$DIMSE1
 70
0
  9
$DIMSE2
 70
0
  9
$DIMTAD
 70
1
  9
$DIMZIN
 70
8
  9
$DIMBLK
  1
ARCHTICK
  9
$DIMASO
 70
1
  9
$DIMSHO
 70
1
  9
$DIMPOST
  1

  9
$DIMAPOST
  1

  9
$DIMALT
 70
0
  9
$DIMALTD
 70
3
  9
$DIMALTF
 40
0.03937007874
  9
$DIMLFAC
 40
100.0
  9
$DIMTOFL
 70
1
  9
$DIMTVP
 40
0.0
  9
$DIMTIX
 70
0
  9
$DIMSOXD
 70
0
  9
$DIMSAH
 70
0
  9
$DIMBLK1
  1

  9
$DIMBLK2
  1

  9
$DIMSTYLE
  2
EZDXF
  9
$DIMCLRD
 70
0
  9
$DIMCLRE
 70
0
  9
$DIMCLRT
 70
0
  9
$DIMTFAC
 40
1.0
  9
$DIMGAP
 40
0.1
  9
$DIMJUST
 70
0
  9
$DIMSD1
 70
0
  9
$DIMSD2
 70
0
  9
$DIMTOLJ
 70
0
  9
$DIMTZIN
 70
8
  9
$DIMALTZ
 70
0
  9
$DIMALTTZ
 70
0
  9
$DIMUPT
 70
1
  9
$DIMDEC
 70
2
  9
$DIMTDEC
 70
2
  9
$DIMALTU
 70
2
  9
$DIMALTTD
 70
3
  9
$DIMTXSTY
  7
OpenSansCondensed-Light
  9
$DIMAUNIT
 70
0
  9
$DIMADEC
 70
0
  9
$DIMALTRND
 40
0.0
  9
$DIMAZIN
 70
0
  9
$DIMDSEP
 70
46
  9
$DIMATFIT
 70
3
  9
$DIMFRAC
 70
0
  9
$DIMLDRBLK
  1

  9
$DIMLUNIT
 70
2
  9
$DIMLWD
 70
-2
  9
$DIMLWE
 70
-2
  9
$DIMTMOVE
 70
2
  9
$DIMFXL
 40
1.0
  9
$DIMFXLON
 70
0
  9
$DIMJOGANG
 40
0.785398163397
  9
$DIMTFILL
 70
0
  9
$DIMTFILLCLR
 70
0
  9
$DIMARCSYM
 70
0
  9
$DIMLTYPE
  6

  9
$DIMLTEX1
  6

  9
$DIMLTEX2
  6

  9
$DIMTXTDIRECTION
 70
0
  9
$LUNITS
 70
2
  9
$LUPREC
 70
4
  9
$SKETCHINC
 40
1.0
  9
$FILLETRAD
 40
10.0
  9
$AUNITS
 70
0
  9
$AUPREC
 70
2
  9
$MENU
  1
.
  9
$ELEVATION
 40
0.0
  9
$PELEVATION
 40
0.0
  9
$THICKNESS
 40
0.0
  9
$LIMCHECK
 70
0
  9
$CHAMFERA
 40
0.0
  9
$CHAMFERB
 40
0.0
  9
$CHAMFERC
 40
0.0
  9
$CHAMFERD
 40
0.0
  9
$SKPOLY
 70
0
  9
$TDCREATE
 40
2460011.5209953706
  9
$TDUCREATE
 40
2458532.153996898
  9
$TDUPDATE
 40
2460011.5209953706
  9
$TDUUPDATE
 40
2458532.1544311
  9
$TDINDWG
 40
0.0
  9
$TDUSRTIMER
 40
0.0
  9
$USRTIMER
 70
1
  9
$ANGBASE
 50
0.0
  9
$ANGDIR
 70
0
  9
$PDMODE
 70
0
  9
$PDSIZE
 40
0.0
  9
$PLINEWID
 40
0.0
  9
$SPLFRAME
 70
0
  9
$SPLINETYPE
 70
6
  9
$SPLINESEGS
 70
8
  9
$HANDSEED
  5
459
  9
$SURFTAB1
 70
6
  9
$SURFTAB2
 70
6
  9
$SURFTYPE
 70
6
  9
$SURFU
 70
6
  9
$SURFV
 70
6
  9
$UCSBASE
  2

  9
$UCSNAME
  2

  9
$UCSORG
 10
0.0
 20
0.0
 30
0.0
  9
$UCSXDIR
 10
1.0
 20
0.0
 30
0.0
  9
$UCSYDIR
 10
0.0
 20
1.0
 30
0.0
  9
$UCSORTHOREF
  2

  9
$UCSORTHOVIEW
 70
0
  9
$UCSORGTOP
 10
0.0
 20
0.0
 30
0.0
  9
$UCSORGBOTTOM
 10
0.0
 20
0.0
 30
0.0
  9
$UCSORGLEFT
 10
0.0
 20
0.0
 30
0.0
  9
$UCSORGRIGHT
 10
0.0
 20
0.0
 30
0.0
  9
$UCSORGFRONT
 10
0.0
 20
0.0
 30
0.0
  9
$UCSORGBACK
 10
0.0
 20
0.0
 30
0.0
  9
$PUCSBASE
  2

  9
$PUCSNAME
  2

  9
$PUCSORG
 10
0.0
 20
0.0
 30
0.0
  9
$PUCSXDIR
 10
1.0
 20
0.0
 30
0.0
  9
$PUCSYDIR
 10
0.0
 20
1.0
 30
0.0
  9
$PUCSORTHOREF
  2

  9
$PUCSORTHOVIEW
 70
0
  9
$PUCSORGTOP
 10
0.0
 20
0.0
 30
0.0
  9
$PUCSORGBOTTOM
 10
0.0
 20
0.0
 30
0.0
  9
$PUCSORGLEFT
 10
0.0
 20
0.0
 30
0.0
  9
$PUCSORGRIGHT
 10
0.0
 20
0.0
 30
0.0
  9
$PUCSORGFRONT
 10
0.0
 20
0.0
 30
0.0
  9
$PUCSORGBACK
 10
0.0
 20
0.0
 30
0.0
  9
$USERI1
 70
0
  9
$USERI2
 70
0
  9
$USERI3
 70
0
  9
$USERI4
 70
0
  9
$USERI5
 70
0
  9
$USERR1
 40
0.0
  9
$USERR2
 40
0.0
  9
$USERR3
 40
0.0
  9
$USERR4
 40
0.0
  9
$USERR5
 40
0.0
  9
$WORLDVIEW
 70
1
  9
$SHADEDGE
 70
3
  9
$SHADEDIF
 70
70
  9
$TILEMODE
 70
1
  9
$MAXACTVP
 70
64
  9
$PINSBASE
 10
0.0
 20
0.0
 30
0.0
  9
$PLIMCHECK
 70
0
  9
$PEXTMIN
 10
1e+20
 20
1e+20
 30
1e+20
  9
$PEXTMAX
 10
-1e+20
 20
-1e+20
 30
-1e+20
  9
$PLIMMIN
 10
0.0
 20
0.0
  9
$PLIMMAX
 10
420.0
 20
297.0
  9
$UNITMODE
 70
0
  9
$VISRETAIN
 70
1
  9
$PLINEGEN
 70
0
  9
$PSLTSCALE
 70
1
  9
$TREEDEPTH
 70
3020
  9
$CMLSTYLE
  2
Standard
  9
$CMLJUST
 70
0
  9
$CMLSCALE
 40
20.0
  9
$PROXYGRAPHICS
 70
1
  9
$MEASUREMENT
 70
1
  9
$CELWEIGHT
370
-1
  9
$ENDCAPS
280
0
  9
$JOINSTYLE
280
0
  9
$LWDISPLAY
290
0
  9
$INSUNITS
 70
6
  9
$HYPERLINKBASE
  1

  9
$STYLESHEET
  1

  9
$XEDIT
290
1
  9
$CEPSNTYPE
380
0
  9
$PSTYLEMODE
290
1
  9
$FINGERPRINTGUID
  2
{E989CF7E-19B5-42A5-A36B-455EFBBECBD6}
  9
$VERSIONGUID
  2
{E9E49969-4D11-4BFF-BB05-83C9DE87F01C}
  9
$EXTNAMES
290
1
  9
$PSVPSCALE
 40
0.0
  9
$OLESTARTUP
290
0
  9
$SORTENTS
280
127
  9
$INDEXCTL
280
0
  9
$HIDETEXT
280
1
  9
$XCLIPFRAME
280
0
  9
$HALOGAP
280
0
  9
$OBSCOLOR
 70
257
  9
$OBSLTYPE
280
0
  9
$INTERSECTIONDISPLAY
280
0
  9
$INTERSECTIONCOLOR
 70
257
  9
$DIMASSOC
280
2
  9
$PROJECTNAME
  1

  9
$CAMERADISPLAY
290
0
  9
$LENSLENGTH
 40
50.0
  9
$CAMERAHEIGHT
 40
0.0
  9
$STEPSPERSEC
 40
24.0
  9
$STEPSIZE
 40
100.0
  9
$3DDWFPREC
 40
2.0
  9
$PSOLWIDTH
 40
0.005
  9
$PSOLHEIGHT
 40
0.08
  9
$LOFTANG1
 40
1.570796326795
  9
$LOFTANG2
 40
1.570796326795
  9
$LOFTMAG1
 40
0.0
  9
$LOFTMAG2
 40
0.0
  9
$LOFTPARAM
 70
7
  9
$LOFTNORMALS
280
1
  9
$LATITUDE
 40
37.795
  9
$LONGITUDE
 40
-122.394
  9
$NORTHDIRECTION
 40
0.0
  9
$TIMEZONE
 70
-8000
  9
$LIGHTGLYPHDISPLAY
280
1
  9
$TILEMODELIGHTSYNCH
280
1
  9
$CMATERIAL
347
20
  9
$SOLIDHIST
280
0
  9
$SHOWHIST
280
1
  9
$DWFFRAME
280
2
  9
$DGNFRAME
280
2
  9
$REALWORLDSCALE
290
1
  9
$INTERFERECOLOR
 62
256
  9
$CSHADOW
280
0
  9
$SHADOWPLANELOCATION
 40
0.0
  0
ENDSEC
  0
SECTION
  2
CLASSES
  0
CLASS
  1
ACDBDICTIONARYWDFLT
  2
AcDbDictionaryWithDefault
  3
ObjectDBX Classes
 90
0
 91
0
280
0
281
0
  0
CLASS
  1
SUN
  2
AcDbSun
  3
SCENEOE
 90
1153
 91
0
280
0
281
0
  0
CLASS
  1
VISUALSTYLE
  2
AcDbVisualStyle
  3
ObjectDBX Classes
 90
4095
 91
0
280
0
281
0
  0
CLASS
  1
MATERIAL
  2
AcDbMaterial
  3
ObjectDBX Classes
 90
1153
 91
0
280
0
281
0
  0
CLASS
  1
SCALE
  2
AcDbScale
  3
ObjectDBX Classes
 90
1153
 91
0
280
0
281
0
  0
CLASS
  1
TABLESTYLE
  2
AcDbTableStyle
  3
ObjectDBX Classes
 90
4095
 91
0
280
0
281
0
  0
CLASS
  1
MLEADERSTYLE
  2
AcDbMLeaderStyle
  3
ACDB_MLEADERSTYLE_CLASS
 90
4095
 91
0
280
0
281
0
  0
CLASS
  1
DICTIONARYVAR
  2
AcDbDictionaryVar
  3
ObjectDBX Classes
 90
0
 91
0
280
0
281
0
  0
CLASS
  1
CELLSTYLEMAP
  2
AcDbCellStyleMap
  3
ObjectDBX Classes
 90
1152
 91
0
280
0
281
0
  0
CLASS
  1
MENTALRAYRENDERSETTINGS
  2
AcDbMentalRayRenderSettings
  3
SCENEOE
 90
1024
 91
0
280
0
281
0
  0
CLASS
  1
ACDBDETAILVIEWSTYLE
  2
AcDbDetailViewStyle
  3
ObjectDBX Classes
 90
1025
 91
0
280
0
281
0
  0
CLASS
  1
ACDBSECTIONVIEWSTYLE
  2
AcDbSectionViewStyle
  3
ObjectDBX Classes
 90
1025
 91
0
280
0
281
0
  0
CLASS
  1
RASTERVARIABLES
  2
AcDbRasterVariables
  3
ISM
 90
0
 91
0
280
0
281
0
  0
CLASS
  1
ACDBPLACEHOLDER
  2
AcDbPlaceHolder
  3
ObjectDBX Classes
 90
0
 91
0
280
0
281
0
  0
CLASS
  1
LAYOUT
  2
AcDbLayout
  3
ObjectDBX Classes
 90
0
 91
0
280
0
281
0
  0
ENDSEC
  0
SECTION
  2
TABLES
  0
TABLE
  2
VPORT
  5
8
330
0
100
AcDbSymbolTable
 70
1
  0
VPORT
  5
23
330
8
100
AcDbSymbolTableRecord
100
AcDbViewportTableRecord
  2
*Active
 70
0
 10
0.0
 20
0.0
 11
1.0
 21
1.0
 12
344.2
 22
148.5
 13
0.0
 23
0.0
 14
0.5
 24
0.5
 15
0.5
 25
0.5
 16
0.0
 26
0.0
 36
1.0
 17
0.0
 27
0.0
 37
0.0
 40
297.0
 41
1.34
 42
50.0
 43
0.0
 44
0.0
 50
0.0
 51
0.0
 71
0
 72
1000
 73
1
 74
3
 75
0
 76
0
 77
0
 78
0
281
0
 65
0
146
0.0
  0
ENDTAB
  0
TABLE
  2
LTYPE
  5
2
330
0
100
AcDbSymbolTable
 70
24
  0
LTYPE
  5
24
330
2
100
AcDbSymbolTableRecord
100
AcDbLinetypeTableRecord
  2
ByBlock
 70
0
  3

 72
65
 73
0
 40
0.0
  0
LTYPE
  5
25
330
2
100
AcDbSymbolTableRecord
100
AcDbLinetypeTableRecord
  2
ByLayer
 70
0
  3

 72
65
 73
0
 40
0.0
  0
LTYPE
  5
26
330
2
100
AcDbSymbolTableRecord
100
AcDbLinetypeTableRecord
  2
Continuous
 70
0
  3

 72
65
 73
0
 40
0.0
  0
LTYPE
  5
2F
330
2
100
AcDbSymbolTableRecord
100
AcDbLinetypeTableRecord
  2
CENTER
 70
0
  3
Center ____ _ ____ _ ____ _ ____ _ ____ _ ____
 72
65
 73
4
 40
5.08
 49
3.175
 74
0
 49
-0.635
 74
0
 49
0.635
 74
0
 49
-0.635
 74
0
  0
LTYPE
  5
30
330
2
100
AcDbSymbolTableRecord
100
AcDbLinetypeTableRecord
  2
CENTERX2
 70
0
  3
Center (2x) ________  __  ________  __  ________
 72
65
 73
4
 40
8.89
 49
6.35
 74
0
 49
-0.635
 74
0
 49
1.27
 74
0
 49
-0.635
 74
0
  0
LTYPE
  5
31
330
2
100
AcDbSymbolTableRecord
100
AcDbLinetypeTableRecord
  2
CENTER2
 70
0
  3
Center (.5x) ____ _ ____ _ ____ _ ____ _ ____
 72
65
 73
4
 40
2.54
 49
1.587
 74
0
 49
-0.318
 74
0
 49
0.318
 74
0
 49
-0.318
 74
0
  0
LTYPE
  5
32
330
2
100
AcDbSymbolTableRecord
100
AcDbLinetypeTableRecord
  2
DASHED
 70
0
  3
Dashed __ __ __ __ __ __ __ __ __ __ __ __ __ _
 72
65
 73
2
 40
1.524
 49
1.27
 74
0
 49
-0.254
 74
0
  0
LTYPE
  5
33
330
2
100
AcDbSymbolTableRecord
100
AcDbLinetypeTableRecord
  2
DASHEDX2
 70
0
  3
Dashed (2x) ____  ____  ____  ____  ____  ____
 72
65
 73
2
 40
3.048
 49
2.54
 74
0
 49
-0.508
 74
0
  0
LTYPE
  5
34
330
2
100
AcDbSymbolTableRecord
100
AcDbLinetypeTableRecord
  2
DASHED2
 70
0
  3
Dashed (.5x) _ _ _ _ _ _ _ _ _ _ _ _ _ _
 72
65
 73
2
 40
0.762
 49
0.635
 74
0
 49
-0.127
 74
0
  0
LTYPE
  5
35
330
2
100
AcDbSymbolTableRecord
100
AcDbLinetypeTableRecord
  2
PHANTOM
 70
0
  3
Phantom ______  __  __  ______  __  __  ______
 72
65
 73
6
 40
6.35
 49
3.175
 74
0
 49
-0.635
 74
0
 49
0.635
 74
0
 49
-0.635
 74
0
 49
0.635
 74
0
 49
-0.635
 74
0
  0
LTYPE
  5
36
330
2
100
AcDbSymbolTableRecord
100
AcDbLinetypeTableRecord
  2
PHANTOMX2
 70
0
  3
Phantom (2x)____________    ____    ____    ____________
 72
65
 73
6
 40
10.795
 49
6.35
 74
0
 49
-0.635
 74
0
 49
1.27
 74
0
 49
-0.635
 74
0
 49
1.27
 74
0
 49
-0.635
 74
0
  0
LTYPE
  5
37
330
2
100
AcDbSymbolTableRecord
100
AcDbLinetypeTableRecord
  2
PHANTOM2
 70
0
  3
Phantom (.5x) ___ _ _ ___ _ _ ___ _ _ ___ _ _ ___
 72
65
 73
6
 40
3.175
 49
1.587
 74
0
 49
-0.318
 74
0
 49
0.318
 74
0
 49
-0.318
 74
0
 49
0.318
 74
0
 49
-0.318
 74
0
  0
LTYPE
  5
38
330
2
100
AcDbSymbolTableRecord
100
AcDbLinetypeTableRecord
  2
DASHDOT
 70
0
  3
Dash dot __ . __ . __ . __ . __ . __ . __ . __
 72
65
 73
4
 40
3.556
 49
2.54
 74
0
 49
-0.508
 74
0
 49
0.0
 74
0
 49
-0.508
 74
0
  0
LTYPE
  5
39
330
2
100
AcDbSymbolTableRecord
100
AcDbLinetypeTableRecord
  2
DASHDOTX2
 70
0
  3
Dash dot (2x) ____  .  ____  .  ____  .  ____
 72
65
 73
4
 40
6.096
 49
5.08
 74
0
 49
-0.508
 74
0
 49
0.0
 74
0
 49
-0.508
 74
0
  0
LTYPE
  5
3A
330
2
100
AcDbSymbolTableRecord
100
AcDbLinetypeTableRecord
  2
DASHDOT2
 70
0
  3
Dash dot (.5x) _ . _ . _ . _ . _ . _ . _ . _
 72
65
 73
4
 40
1.778
 49
1.27
 74
0
 49
-0.254
 74
0
 49
0.0
 74
0
 49
-0.254
 74
0
  0
LTYPE
  5
3B
330
2
100
AcDbSymbolTableRecord
100
AcDbLinetypeTableRecord
  2
DOT
 70
0
  3
Dot .  .  .  .  .  .  .  .  .  .  .  .  .  .  .  .
 72
65
 73
2
 40
0.508
 49
0.0
 74
0
 49
-0.508
 74
0
  0
LTYPE
  5
3C
330
2
100
AcDbSymbolTableRecord
100
AcDbLinetypeTableRecord
  2
DOTX2
 70
0
  3
Dot (2x) .    .    .    .    .    .    .    . 
 72
65
 73
2
 40
1.016
 49
0.0
 74
0
 49
-1.016
 74
0
  0
LTYPE
  5
3D
330
2
100
AcDbSymbolTableRecord
100
AcDbLinetypeTableRecord
  2
DOT2
 70
0
  3
Dot (.5) . . . . . . . . . . . . . . . . . . . 
 72
65
 73
2
 40
0.254
 49
0.0
 74
0
 49
-0.254
 74
0
  0
LTYPE
  5
3E
330
2
100
AcDbSymbolTableRecord
100
AcDbLinetypeTableRecord
  2
DIVIDE
 70
0
  3
Divide __ . . __ . . __ . . __ . . __ . . __
 72
65
 73
6
 40
4.064
 49
2.54
 74
0
 49
-0.508
 74
0
 49
0.0
 74
0
 49
-0.508
 74
0
 49
0.0
 74
0
 49
-0.508
 74
0
  0
LTYPE
  5
3F
330
2
100
AcDbSymbolTableRecord
100
AcDbLinetypeTableRecord
  2
DIVIDEX2
 70
0
  3
Divide (2x) ____  . .  ____  . .  ____  . .  ____
 72
65
 73
6
 40
6.604
 49
5.08
 74
0
 49
-0.508
 74
0
 49
0.0
 74
0
 49
-0.508
 74
0
 49
0.0
 74
0
 49
-0.508
 74
0
  0
LTYPE
  5
40
330
2
100
AcDbSymbolTableRecord
100
AcDbLinetypeTableRecord
  2
DIVIDE2
 70
0
  3
Divide(.5x) _ . _ . _ . _ . _ . _ . _ . _
 72
65
 73
6
 40
2.032
 49
1.27
 74
0
 49
-0.254
 74
0
 49
0.0
 74
0
 49
-0.254
 74
0
 49
0.0
 74
0
 49
-0.254
 74
0
  0
LTYPE
  5
89
330
2
100
AcDbSymbolTableRecord
100
AcDbLinetypeTableRecord
  2
DASHED23
 70
0
  3
DASHED23 (.5x) _ _ _ _ _ _ _ _ _ _ _ _ _ _
 72
65
 73
2
 40
0.9
 49
0.06
 74
0
 49
-0.04
 74
0
  0
LTYPE
  5
8A
330
2
100
AcDbSymbolTableRecord
100
AcDbLinetypeTableRecord
  2
DASHED2000
 70
0
  3
DASHED2000 (.5x) _ _ _ _ _ _ _ _ _ _ _ _ _ _
 72
65
 73
2
 40
0.8
 49
0.08
 74
0
 49
-0.04
 74
0
  0
LTYPE
  5
8B
330
2
100
AcDbSymbolTableRecord
100
AcDbLinetypeTableRecord
  2
DASHED5000
 70
0
  3
DASHED5000 (.5x) _ _ _ _ _ _ _ _ _ _ _ _ _ _
 72
65
 73
2
 40
0.5
 49
0.06
 74
0
 49
-0.04
 74
0
  0
ENDTAB
  0
TABLE
  2
LAYER
  5
1
330
0
100
AcDbSymbolTable
 70
2
  0
LAYER
  5
27
330
1
100
AcDbSymbolTableRecord
100
AcDbLayerTableRecord
  2
0
 70
0
 62
7
  6
Continuous
370
-3
390
13
347
21
  0
LAYER
  5
28
330
1
100
AcDbSymbolTableRecord
100
AcDbLayerTableRecord
  2
Defpoints
 70
0
 62
7
  6
Continuous
290
0
370
-3
390
13
347
21
  0
ENDTAB
  0
TABLE
  2
STYLE
  5
5
330
0
100
AcDbSymbolTable
 70
28
  0
STYLE
  5
29
330
5
100
AcDbSymbolTableRecord
100
AcDbTextStyleTableRecord
  2
Standard
 70
0
 40
0.0
 41
1.0
 50
0.0
 71
0
 42
2.5
  3
txt
  4

  0
STYLE
  5
41
330
5
100
AcDbSymbolTableRecord
100
AcDbTextStyleTableRecord
  2
OpenSans-Light
 70
0
 40
0.0
 41
1.0
 50
0.0
 71
0
 42
2.5
  3
OpenSans-Light.ttf
  4

  0
STYLE
  5
42
330
5
100
AcDbSymbolTableRecord
100
AcDbTextStyleTableRecord
  2
OpenSans-Light-Italic
 70
0
 40
0.0
 41
1.0
 50
0.0
 71
0
 42
2.5
  3
OpenSans-LightItalic.ttf
  4

  0
STYLE
  5
43
330
5
100
AcDbSymbolTableRecord
100
AcDbTextStyleTableRecord
  2
OpenSans
 70
0
 40
0.0
 41
1.0
 50
0.0
 71
0
 42
2.5
  3
OpenSans-Regular.ttf
  4

  0
STYLE
  5
44
330
5
100
AcDbSymbolTableRecord
100
AcDbTextStyleTableRecord
  2
OpenSans-Italic
 70
0
 40
0.0
 41
1.0
 50
0.0
 71
0
 42
2.5
  3
OpenSans-Italic.ttf
  4

  0
STYLE
  5
45
330
5
100
AcDbSymbolTableRecord
100
AcDbTextStyleTableRecord
  2
OpenSans-SemiBold
 70
0
 40
0.0
 41
1.0
 50
0.0
 71
0
 42
2.5
  3
OpenSans-SemiBold.ttf
  4

  0
STYLE
  5
46
330
5
100
AcDbSymbolTableRecord
100
AcDbTextStyleTableRecord
  2
OpenSans-SemiBoldItalic
 70
0
 40
0.0
 41
1.0
 50
0.0
 71
0
 42
2.5
  3
OpenSans-SemiBoldItalic.ttf
  4

  0
STYLE
  5
47
330
5
100
AcDbSymbolTableRecord
100
AcDbTextStyleTableRecord
  2
OpenSans-Bold
 70
0
 40
0.0
 41
1.0
 50
0.0
 71
0
 42
2.5
  3
OpenSans-Bold.ttf
  4

  0
STYLE
  5
48
330
5
100
AcDbSymbolTableRecord
100
AcDbTextStyleTableRecord
  2
OpenSans-BoldItalic
 70
0
 40
0.0
 41
1.0
 50
0.0
 71
0
 42
2.5
  3
OpenSans-BoldItalic.ttf
  4

  0
STYLE
  5
49
330
5
100
AcDbSymbolTableRecord
100
AcDbTextStyleTableRecord
  2
OpenSans-ExtraBold
 70
0
 40
0.0
 41
1.0
 50
0.0
 71
0
 42
2.5
  3
OpenSans-ExtraBold.ttf
  4

  0
STYLE
  5
4A
330
5
100
AcDbSymbolTableRecord
100
AcDbTextStyleTableRecord
  2
OpenSans-ExtraBoldItalic
 70
0
 40
0.0
 41
1.0
 50
0.0
 71
0
 42
2.5
  3
OpenSans-ExtraBoldItalic.ttf
  4

  0
STYLE
  5
4B
330
5
100
AcDbSymbolTableRecord
100
AcDbTextStyleTableRecord
  2
OpenSansCondensed-Bold
 70
0
 40
0.0
 41
1.0
 50
0.0
 71
0
 42
2.5
  3
OpenSansCondensed-Bold.ttf
  4

  0
STYLE
  5
4C
330
5
100
AcDbSymbolTableRecord
100
AcDbTextStyleTableRecord
  2
OpenSansCondensed-Light
 70
0
 40
0.0
 41
1.0
 50
0.0
 71
0
 42
2.5
  3
OpenSansCondensed-Light.ttf
  4

  0
STYLE
  5
4D
330
5
100
AcDbSymbolTableRecord
100
AcDbTextStyleTableRecord
  2
OpenSansCondensed-Italic
 70
0
 40
0.0
 41
1.0
 50
0.0
 71
0
 42
2.5
  3
OpenSansCondensed-LightItalic.ttf
  4

  0
STYLE
  5
4E
330
5
100
AcDbSymbolTableRecord
100
AcDbTextStyleTableRecord
  2
LiberationSans
 70
0
 40
0.0
 41
1.0
 50
0.0
 71
0
 42
2.5
  3
LiberationSans-Regular.ttf
  4

  0
STYLE
  5
4F
330
5
100
AcDbSymbolTableRecord
100
AcDbTextStyleTableRecord
  2
LiberationSans-Bold
 70
0
 40
0.0
 41
1.0
 50
0.0
 71
0
 42
2.5
  3
LiberationSans-Bold.ttf
  4

  0
STYLE
  5
50
330
5
100
AcDbSymbolTableRecord
100
AcDbTextStyleTableRecord
  2
LiberationSans-BoldItalic
 70
0
 40
0.0
 41
1.0
 50
0.0
 71
0
 42
2.5
  3
LiberationSans-BoldItalic.ttf
  4

  0
STYLE
  5
51
330
5
100
AcDbSymbolTableRecord
100
AcDbTextStyleTableRecord
  2
LiberationSans-Italic
 70
0
 40
0.0
 41
1.0
 50
0.0
 71
0
 42
2.5
  3
LiberationSans-Italic.ttf
  4

  0
STYLE
  5
52
330
5
100
AcDbSymbolTableRecord
100
AcDbTextStyleTableRecord
  2
LiberationSerif
 70
0
 40
0.0
 41
1.0
 50
0.0
 71
0
 42
2.5
  3
LiberationSerif-Regular.ttf
  4

  0
STYLE
  5
53
330
5
100
AcDbSymbolTableRecord
100
AcDbTextStyleTableRecord
  2
LiberationSerif-Bold
 70
0
 40
0.0
 41
1.0
 50
0.0
 71
0
 42
2.5
  3
LiberationSerif-Bold.ttf
  4

  0
STYLE
  5
54
330
5
100
AcDbSymbolTableRecord
100
AcDbTextStyleTableRecord
  2
LiberationSerif-BoldItalic
 70
0
 40
0.0
 41
1.0
 50
0.0
 71
0
 42
2.5
  3
LiberationSerif-BoldItalic.ttf
  4

  0
STYLE
  5
55
330
5
100
AcDbSymbolTableRecord
100
AcDbTextStyleTableRecord
  2
LiberationSerif-Italic
 70
0
 40
0.0
 41
1.0
 50
0.0
 71
0
 42
2.5
  3
LiberationSerif-Italic.ttf
  4

  0
STYLE
  5
56
330
5
100
AcDbSymbolTableRecord
100
AcDbTextStyleTableRecord
  2
LiberationMono
 70
0
 40
0.0
 41
1.0
 50
0.0
 71
0
 42
2.5
  3
LiberationMono-Regular.ttf
  4

  0
STYLE
  5
57
330
5
100
AcDbSymbolTableRecord
100
AcDbTextStyleTableRecord
  2
LiberationMono-Bold
 70
0
 40
0.0
 41
1.0
 50
0.0
 71
0
 42
2.5
  3
LiberationMono-Bold.ttf
  4

  0
STYLE
  5
58
330
5
100
AcDbSymbolTableRecord
100
AcDbTextStyleTableRecord
  2
LiberationMono-BoldItalic
 70
0
 40
0.0
 41
1.0
 50
0.0
 71
0
 42
2.5
  3
LiberationMono-BoldItalic.ttf
  4

  0
STYLE
  5
59
330
5
100
AcDbSymbolTableRecord
100
AcDbTextStyleTableRecord
  2
LiberationMono-Italic
 70
0
 40
0.0
 41
1.0
 50
0.0
 71
0
 42
2.5
  3
LiberationMono-Italic.ttf
  4

  0
STYLE
  5
8C
330
5
100
AcDbSymbolTableRecord
100
AcDbTextStyleTableRecord
  2
Arial_Narrow_Bold
 70
0
 40
0.0
 41
1.0
 50
0.0
 71
0
 42
2.5
  3
ARIALNB.ttf
  4

  0
STYLE
  5
8D
330
5
100
AcDbSymbolTableRecord
100
AcDbTextStyleTableRecord
  2
Arial_Narrow
 70
0
 40
0.0
 41
1.0
 50
0.0
 71
0
 42
2.5
  3
arialn.ttf
  4

  0
ENDTAB
  0
TABLE
  2
VIEW
  5
7
330
0
100
AcDbSymbolTable
 70
0
  0
ENDTAB
  0
TABLE
  2
UCS
  5
6
330
0
100
AcDbSymbolTable
 70
0
  0
ENDTAB
  0
TABLE
  2
APPID
  5
3
330
0
100
AcDbSymbolTable
 70
3
  0
APPID
  5
2A
330
3
100
AcDbSymbolTableRecord
100
AcDbRegAppTableRecord
  2
ACAD
 70
0
  0
APPID
  5
456
330
3
100
AcDbSymbolTableRecord
100
AcDbRegAppTableRecord
  2
HATCHBACKGROUNDCOLOR
 70
0
  0
APPID
  5
457
330
3
100
AcDbSymbolTableRecord
100
AcDbRegAppTableRecord
  2
EZDXF
 70
0
  0
ENDTAB
  0
TABLE
  2
DIMSTYLE
  5
4
330
0
100
AcDbSymbolTable
 70
11
100
AcDbDimStyleTable
  0
DIMSTYLE
105
2B
330
4
100
AcDbSymbolTableRecord
100
AcDbDimStyleTableRecord
  2
Standard
 70
0
 40
1.0
 41
2.5
 42
0.625
 43
3.75
 44
1.25
 45
0.0
 46
0.0
 47
0.0
 48
0.0
 49
2.5
140
2.5
141
2.5
142
0.0
143
0.03937007874
144
1.0
145
0.0
146
1.0
147
0.625
148
0.0
 69
0
 70
0
 71
0
 72
0
 73
0
 74
0
 75
0
 76
0
 77
1
 78
8
 79
0
170
0
171
3
172
1
173
0
174
0
175
0
176
0
177
0
178
0
179
0
271
0
272
2
273
2
274
3
275
0
276
0
277
2
278
44
279
0
280
0
281
0
282
0
283
0
284
8
285
0
286
0
288
0
289
3
290
0
371
-2
372
-2
  0
DIMSTYLE
105
73
330
4
100
AcDbSymbolTableRecord
100
AcDbDimStyleTableRecord
  2
EZDXF
 70
0
 40
1.0
 41
0.175
 42
0.125
 43
3.75
 44
0.375
 45
0.0
 46
0.0
 47
0.0
 48
0.0
 49
2.5
140
0.25
141
2.5
142
0.0
143
0.03937007874
144
100.0
145
0.0
146
1.0
147
0.1
148
0.0
 69
0
 70
0
 71
0
 72
0
 73
0
 74
0
 75
0
 76
0
 77
1
 78
8
 79
0
170
0
171
3
172
1
173
0
174
0
175
0
176
0
177
0
178
0
179
0
271
2
272
2
273
2
274
3
275
0
276
0
277
2
278
46
279
2
280
0
281
0
282
0
283
0
284
8
285
0
286
0
288
1
289
3
290
0
340
4C
342
74
371
-2
372
-2
  0
DIMSTYLE
105
7C
330
4
100
AcDbSymbolTableRecord
100
AcDbDimStyleTableRecord
  2
EZ_M_100_H25_CM
 70
0
 40
1.0
 41
0.25
 42
0.125
 43
3.75
 44
0.375
 45
0.0
 46
0.0
 47
0.0
 48
0.0
 49
2.5
140
0.25
141
2.5
142
0.125
143
0.03937007874
144
100.0
145
0.0
146
1.0
147
0.1
148
0.0
 69
0
 70
0
 71
0
 72
0
 73
0
 74
0
 75
0
 76
0
 77
1
 78
8
 79
0
170
0
171
3
172
1
173
0
174
0
175
0
176
0
177
0
178
0
179
0
271
2
272
2
273
2
274
3
275
0
276
0
277
2
278
46
279
2
280
0
281
0
282
0
283
0
284
8
285
0
286
0
288
1
289
3
290
0
340
4C
371
-2
372
-2
  0
DIMSTYLE
105
7D
330
4
100
AcDbSymbolTableRecord
100
AcDbDimStyleTableRecord
  2
EZ_M_50_H25_CM
 70
0
 40
1.0
 41
0.125
 42
0.0625
 43
3.75
 44
0.1875
 45
0.0
 46
0.0
 47
0.0
 48
0.0
 49
2.5
140
0.125
141
2.5
142
0.0625
143
0.03937007874
144
100.0
145
0.0
146
1.0
147
0.05
148
0.0
 69
0
 70
0
 71
0
 72
0
 73
0
 74
0
 75
0
 76
0
 77
1
 78
8
 79
0
170
0
171
3
172
1
173
0
174
0
175
0
176
0
177
0
178
0
179
0
271
2
272
2
273
2
274
3
275
0
276
0
277
2
278
46
279
2
280
0
281
0
282
0
283
0
284
8
285
0
286
0
288
1
289
3
290
0
340
4C
371
-2
372
-2
  0
DIMSTYLE
105
7E
330
4
100
AcDbSymbolTableRecord
100
AcDbDimStyleTableRecord
  2
EZ_M_25_H25_CM
 70
0
 40
1.0
 41
0.0625
 42
0.03125
 43
3.75
 44
0.09375
 45
0.0
 46
0.0
 47
0.0
 48
0.0
 49
2.5
140
0.0625
141
2.5
142
0.03125
143
0.03937007874
144
100.0
145
0.0
146
1.0
147
0.025
148
0.0
 69
0
 70
0
 71
0
 72
0
 73
0
 74
0
 75
0
 76
0
 77
1
 78
8
 79
0
170
0
171
3
172
1
173
0
174
0
175
0
176
0
177
0
178
0
179
0
271
2
272
2
273
2
274
3
275
0
276
0
277
2
278
46
279
2
280
0
281
0
282
0
283
0
284
8
285
0
286
0
288
1
289
3
290
0
340
4C
371
-2
372
-2
  0
DIMSTYLE
105
7F
330
4
100
AcDbSymbolTableRecord
100
AcDbDimStyleTableRecord
  2
EZ_M_20_H25_CM
 70
0
 40
1.0
 41
0.05
 42
0.025
 43
3.75
 44
0.07500000000000001
 45
0.0
 46
0.0
 47
0.0
 48
0.0
 49
2.5
140
0.05
141
2.5
142
0.025
143
0.03937007874
144
100.0
145
0.0
146
1.0
147
0.020000000000000004
148
0.0
 69
0
 70
0
 71
0
 72
0
 73
0
 74
0
 75
0
 76
0
 77
1
 78
8
 79
0
170
0
171
3
172
1
173
0
174
0
175
0
176
0
177
0
178
0
179
0
271
2
272
2
273
2
274
3
275
0
276
0
277
2
278
46
279
2
280
0
281
0
282
0
283
0
284
8
285
0
286
0
288
1
289
3
290
0
340
4C
371
-2
372
-2
  0
DIMSTYLE
105
80
330
4
100
AcDbSymbolTableRecord
100
AcDbDimStyleTableRecord
  2
EZ_M_10_H25_CM
 70
0
 40
1.0
 41
0.025
 42
0.0125
 43
3.75
 44
0.037500000000000006
 45
0.0
 46
0.0
 47
0.0
 48
0.0
 49
2.5
140
0.025
141
2.5
142
0.0125
143
0.03937007874
144
100.0
145
0.0
146
1.0
147
0.010000000000000002
148
0.0
 69
0
 70
0
 71
0
 72
0
 73
0
 74
0
 75
0
 76
0
 77
1
 78
8
 79
0
170
0
171
3
172
1
173
0
174
0
175
0
176
0
177
0
178
0
179
0
271
2
272
2
273
2
274
3
275
0
276
0
277
2
278
46
279
2
280
0
281
0
282
0
283
0
284
8
285
0
286
0
288
1
289
3
290
0
340
4C
371
-2
372
-2
  0
DIMSTYLE
105
81
330
4
100
AcDbSymbolTableRecord
100
AcDbDimStyleTableRecord
  2
EZ_M_5_H25_CM
 70
0
 40
1.0
 41
0.0125
 42
0.00625
 43
3.75
 44
0.018750000000000003
 45
0.0
 46
0.0
 47
0.0
 48
0.0
 49
2.5
140
0.0125
141
2.5
142
0.00625
143
0.03937007874
144
100.0
145
0.0
146
1.0
147
0.005000000000000001
148
0.0
 69
0
 70
0
 71
0
 72
0
 73
0
 74
0
 75
0
 76
0
 77
1
 78
8
 79
0
170
0
171
3
172
1
173
0
174
0
175
0
176
0
177
0
178
0
179
0
271
2
272
2
273
2
274
3
275
0
276
0
277
2
278
46
279
2
280
0
281
0
282
0
283
0
284
8
285
0
286
0
288
1
289
3
290
0
340
4C
371
-2
372
-2
  0
DIMSTYLE
105
82
330
4
100
AcDbSymbolTableRecord
100
AcDbDimStyleTableRecord
  2
EZ_M_1_H25_CM
 70
0
 40
1.0
 41
0.0025
 42
0.00125
 43
3.75
 44
0.00375
 45
0.0
 46
0.0
 47
0.0
 48
0.0
 49
2.5
140
0.0025
141
2.5
142
0.00125
143
0.03937007874
144
100.0
145
0.0
146
1.0
147
0.001
148
0.0
 69
0
 70
0
 71
0
 72
0
 73
0
 74
0
 75
0
 76
0
 77
1
 78
8
 79
0
170
0
171
3
172
1
173
0
174
0
175
0
176
0
177
0
178
0
179
0
271
2
272
2
273
2
274
3
275
0
276
0
277
2
278
46
279
2
280
0
281
0
282
0
283
0
284
8
285
0
286
0
288
1
289
3
290
0
340
4C
371
-2
372
-2
  0
DIMSTYLE
105
83
330
4
100
AcDbSymbolTableRecord
100
AcDbDimStyleTableRecord
  2
EZ_RADIUS
 70
0
 40
1.0
 41
0.25
 42
0.125
 43
3.75
 44
0.375
 45
0.0
 46
0.0
 47
0.0
 48
0.0
 49
2.5
140
0.25
141
0.0
142
0.0
143
0.03937007874
144
100.0
145
0.0
146
1.0
147
0.1
148
0.0
 69
0
 70
0
 71
0
 72
0
 73
0
 74
0
 75
0
 76
0
 77
1
 78
8
 79
0
170
0
171
3
172
0
173
0
174
0
175
0
176
0
177
0
178
0
179
0
271
2
272
2
273
2
274
3
275
0
276
0
277
2
278
46
279
1
280
0
281
0
282
0
283
0
284
8
285
0
286
0
288
1
289
3
290
0
340
4C
342
84
371
-2
372
-2
  0
DIMSTYLE
105
88
330
4
100
AcDbSymbolTableRecord
100
AcDbDimStyleTableRecord
  2
EZ_RADIUS_INSIDE
 70
0
 40
1.0
 41
0.25
 42
0.125
 43
3.75
 44
0.375
 45
0.0
 46
0.0
 47
0.0
 48
0.0
 49
2.5
140
0.25
141
0.0
142
0.0
143
0.03937007874
144
100.0
145
0.0
146
1.0
147
0.1
148
0.0
 69
0
 70
0
 71
0
 72
0
 73
0
 74
0
 75
0
 76
0
 77
0
 78
8
 79
0
170
0
171
3
172
0
173
0
174
1
175
0
176
0
177
0
178
0
179
0
271
2
272
2
273
2
274
3
275
0
276
0
277
2
278
46
279
0
280
0
281
0
282
0
283
0
284
8
285
0
286
0
288
1
289
0
290
0
340
4C
342
84
371
-2
372
-2
  0
ENDTAB
  0
TABLE
  2
BLOCK_RECORD
  5
9
330
0
100
AcDbSymbolTable
 70
5
  0
BLOCK_RECORD
  5
17
330
9
100
AcDbSymbolTableRecord
100
AcDbBlockTableRecord
  2
*Model_Space
340
1A
 70
0
280
1
281
0
  0
BLOCK_RECORD
  5
1B
330
9
100
AcDbSymbolTableRecord
100
AcDbBlockTableRecord
  2
*Paper_Space
340
1E
 70
0
280
1
281
0
  0
BLOCK_RECORD
  5
74
330
9
100
AcDbSymbolTableRecord
100
AcDbBlockTableRecord
  2
_ARCHTICK
340
0
 70
0
280
1
281
0
  0
BLOCK_RECORD
  5
78
330
9
100
AcDbSymbolTableRecord
100
AcDbBlockTableRecord
  2
_CLOSEDFILLED
340
0
 70
0
280
1
281
0
  0
BLOCK_RECORD
  5
84
330
9
100
AcDbSymbolTableRecord
100
AcDbBlockTableRecord
  2
_CLOSEDBLANK
340
0
 70
0
280
1
281
0
  0
ENDTAB
  0
ENDSEC
  0
SECTION
  2
BLOCKS
  0
BLOCK
  5
18
330
17
100
AcDbEntity
  8
0
100
AcDbBlockBegin
  2
*Model_Space
 70
0
 10
0.0
 20
0.0
 30
0.0
  3
*Model_Space
  1

  0
ENDBLK
  5
19
330
17
100
AcDbEntity
  8
0
100
AcDbBlockEnd
  0
BLOCK
  5
1C
330
1B
100
AcDbEntity
  8
0
100
AcDbBlockBegin
  2
*Paper_Space
 70
0
 10
0.0
 20
0.0
 30
0.0
  3
*Paper_Space
  1

  0
ENDBLK
  5
1D
330
1B
100
AcDbEntity
  8
0
100
AcDbBlockEnd
  0
BLOCK
  5
75
330
74
100
AcDbEntity
  8
0
100
AcDbBlockBegin
  2
_ARCHTICK
 70
0
 10
0.0
 20
0.0
 30
0.0
  3
_ARCHTICK
  1

  0
LWPOLYLINE
  5
77
330
74
100
AcDbEntity
  8
0
  6
BYBLOCK
 62
0
100
AcDbPolyline
 90
2
 70
0
 43
0.15
 10
-0.5
 20
-0.5000000000000001
 10
0.5000000000000001
 20
0.5000000000000001
  0
ENDBLK
  5
76
330
74
100
AcDbEntity
  8
0
100
AcDbBlockEnd
  0
BLOCK
  5
79
330
78
100
AcDbEntity
  8
0
100
AcDbBlockBegin
  2
_CLOSEDFILLED
 70
0
 10
0.0
 20
0.0
 30
0.0
  3
_CLOSEDFILLED
  1

  0
SOLID
  5
7B
330
78
100
AcDbEntity
  8
0
  6
BYBLOCK
 62
0
100
AcDbTrace
 10
-1.0
 20
0.1643989837240255
 30
0.0
 11
0.0
 21
0.0
 31
0.0
 12
-1.0
 22
-0.1643989837240255
 32
0.0
 13
-1.0
 23
-0.1643989837240255
 33
0.0
  0
ENDBLK
  5
7A
330
78
100
AcDbEntity
  8
0
100
AcDbBlockEnd
  0
BLOCK
  5
85
330
84
100
AcDbEntity
  8
0
100
AcDbBlockBegin
  2
_CLOSEDBLANK
 70
0
 10
0.0
 20
0.0
 30
0.0
  3
_CLOSEDBLANK
  1

  0
LWPOLYLINE
  5
87
330
84
100
AcDbEntity
  8
0
  6
BYBLOCK
 62
0
100
AcDbPolyline
 90
3
 70
1
 10
-1.0
 20
0.1643989837240255
 10
0.0
 20
0.0
 10
-1.0
 20
-0.1643989837240255
  0
ENDBLK
  5
86
330
84
100
AcDbEntity
  8
0
100
AcDbBlockEnd
  0
ENDSEC
  0
SECTION
  2
ENTITIES
  0
HATCH
  5
272
330
17
100
AcDbEntity
  8
0
 62
7
420
16763030
100
AcDbHatch
 10
0.0
 20
0.0
 30
0.0
210
0.0
220
0.0
230
1.0
  2
SOLID
 70
1
 71
0
 91
1
 92
3
 72
0
 73
0
 93
8
 10
43.772327629696505
 20
-2.05
 10
43.772327629696505
 20
-2.05
 10
43.772327629696505
 20
-2.05
 10
47.7723276296958
 20
-2.05
 10
47.7723276296958
 20
-2.05
 10
47.7723276296958
 20
-2.75
 10
47.7723276296958
 20
-2.75
 10
43.772327629696505
 20
-2.05
 97
0
 75
0
 76
1
 98
0
  0
HATCH
  5
273
330
17
100
AcDbEntity
  8
0
 62
7
420
16763030
100
AcDbHatch
 10
0.0
 20
0.0
 30
0.0
210
0.0
220
0.0
230
1.0
  2
SOLID
 70
1
 71
0
 91
1
 92
3
 72
0
 73
0
 93
8
 10
47.7723276296958
 20
-2.75
 10
47.7723276296958
 20
-2.05
 10
47.7723276296958
 20
-2.05
 10
67.11877471346571
 20
-2.05
 10
67.11877471346571
 20
-2.05
 10
67.11877471346571
 20
-2.75
 10
67.11877471346571
 20
-2.75
 10
47.7723276296958
 20
-2.75
 97
0
 75
0
 76
1
 98
0
  0
HATCH
  5
274
330
17
100
AcDbEntity
  8
0
 62
7
420
16763030
100
AcDbHatch
 10
0.0
 20
0.0
 30
0.0
210
0.0
220
0.0
230
1.0
  2
SOLID
 70
1
 71
0
 91
1
 92
3
 72
0
 73
0
 93
8
 10
67.11877471346571
 20
-2.75
 10
67.11877471346571
 20
-2.05
 10
67.11877471346571
 20
-2.05
 10
71.118774713465
 20
-2.05
 10
71.118774713465
 20
-2.05
 10
71.118774713465
 20
-2.05
 10
71.118774713465
 20
-2.05
 10
67.11877471346571
 20
-2.75
 97
0
 75
0
 76
1
 98
0
  0
HATCH
  5
275
330
17
100
AcDbEntity
  8
0
 62
7
420
16763030
100
AcDbHatch
 10
0.0
 20
0.0
 30
0.0
210
0.0
220
0.0
230
1.0
  2
SOLID
 70
1
 71
0
 91
1
 92
3
 72
0
 73
0
 93
8
 10
75.0169262678116
 20
-2.05
 10
75.0169262678116
 20
-2.05
 10
75.0169262678116
 20
-2.05
 10
79.0169262678128
 20
-2.05
 10
79.0169262678128
 20
-2.05
 10
79.0169262678128
 20
-1.3500000000003407
 10
79.0169262678128
 20
-1.3500000000003407
 10
75.0169262678116
 20
-2.05
 97
0
 75
0
 76
1
 98
0
  0
HATCH
  5
276
330
17
100
AcDbEntity
  8
0
 62
7
420
16763030
100
AcDbHatch
 10
0.0
 20
0.0
 30
0.0
210
0.0
220
0.0
230
1.0
  2
SOLID
 70
1
 71
0
 91
1
 92
3
 72
0
 73
0
 93
8
 10
79.0169262678128
 20
-1.3500000000003407
 10
79.0169262678128
 20
-2.05
 10
79.0169262678128
 20
-2.05
 10
89.9601012602411
 20
-2.05
 10
89.9601012602411
 20
-2.05
 10
89.9601012602411
 20
-1.3500000000003407
 10
89.9601012602411
 20
-1.3500000000003407
 10
79.0169262678128
 20
-1.3500000000003407
 97
0
 75
0
 76
1
 98
0
  0
HATCH
  5
277
330
17
100
AcDbEntity
  8
0
 62
7
420
16763030
100
AcDbHatch
 10
0.0
 20
0.0
 30
0.0
210
0.0
220
0.0
230
1.0
  2
SOLID
 70
1
 71
0
 91
1
 92
3
 72
0
 73
0
 93
8
 10
89.9601012602411
 20
-1.35000000000034
 10
89.9601012602411
 20
-2.05
 10
89.9601012602411
 20
-2.05
 10
93.96010126024231
 20
-2.05
 10
93.96010126024231
 20
-2.05
 10
93.96010126024231
 20
-2.05
 10
93.96010126024231
 20
-2.05
 10
89.9601012602411
 20
-1.35000000000034
 97
0
 75
0
 76
1
 98
0
  0
HATCH
  5
278
330
17
100
AcDbEntity
  8
0
 62
7
420
12503185
100
AcDbHatch
 10
0.0
 20
0.0
 30
0.0
210
0.0
220
0.0
230
1.0
  2
SOLID
 70
1
 71
0
 91
1
 92
3
 72
0
 73
0
 93
8
 10
43.772327629696505
 20
-3.7
 10
43.772327629696505
 20
-3.7
 10
43.772327629696505
 20
-3.7
 10
47.7723276296957
 20
-3.7
 10
47.7723276296957
 20
-3.7
 10
47.7723276296957
 20
-4.4
 10
47.7723276296957
 20
-4.4
 10
43.772327629696505
 20
-3.7
 97
0
 75
0
 76
1
 98
0
  0
HATCH
  5
279
330
17
100
AcDbEntity
  8
0
 62
7
420
12503185
100
AcDbHatch
 10
0.0
 20
0.0
 30
0.0
210
0.0
220
0.0
230
1.0
  2
SOLID
 70
1
 71
0
 91
1
 92
3
 72
0
 73
0
 93
8
 10
47.7723276296957
 20
-4.4
 10
47.7723276296957
 20
-3.7
 10
47.7723276296957
 20
-3.7
 10
67.1187747134657
 20
-3.7
 10
67.1187747134657
 20
-3.7
 10
67.1187747134657
 20
-4.4
 10
67.1187747134657
 20
-4.4
 10
47.7723276296957
 20
-4.4
 97
0
 75
0
 76
1
 98
0
  0
HATCH
  5
27A
330
17
100
AcDbEntity
  8
0
 62
7
420
12503185
100
AcDbHatch
 10
0.0
 20
0.0
 30
0.0
210
0.0
220
0.0
230
1.0
  2
SOLID
 70
1
 71
0
 91
1
 92
3
 72
0
 73
0
 93
8
 10
67.1187747134657
 20
-4.4
 10
67.1187747134657
 20
-3.7
 10
67.1187747134657
 20
-3.7
 10
71.11877471346499
 20
-3.7
 10
71.11877471346499
 20
-3.7
 10
71.11877471346499
 20
-3.7
 10
71.11877471346499
 20
-3.7
 10
67.1187747134657
 20
-4.4
 97
0
 75
0
 76
1
 98
0
  0
HATCH
  5
27B
330
17
100
AcDbEntity
  8
0
 62
7
420
12503185
100
AcDbHatch
 10
0.0
 20
0.0
 30
0.0
210
0.0
220
0.0
230
1.0
  2
SOLID
 70
1
 71
0
 91
1
 92
3
 72
0
 73
0
 93
8
 10
75.01692626781158
 20
-3.7
 10
75.01692626781158
 20
-3.7
 10
75.01692626781158
 20
-3.7
 10
79.01692626781279
 20
-3.7
 10
79.01692626781279
 20
-3.7
 10
79.01692626781279
 20
-3.0
 10
79.01692626781279
 20
-3.0
 10
75.01692626781158
 20
-3.7
 97
0
 75
0
 76
1
 98
0
  0
HATCH
  5
27C
330
17
100
AcDbEntity
  8
0
 62
7
420
12503185
100
AcDbHatch
 10
0.0
 20
0.0
 30
0.0
210
0.0
220
0.0
230
1.0
  2
SOLID
 70
1
 71
0
 91
1
 92
3
 72
0
 73
0
 93
8
 10
79.01692626781279
 20
-3.0
 10
79.01692626781279
 20
-3.7
 10
79.01692626781279
 20
-3.7
 10
89.96010126024109
 20
-3.7
 10
89.96010126024109
 20
-3.7
 10
89.96010126024109
 20
-3.0
 10
89.96010126024109
 20
-3.0
 10
79.01692626781279
 20
-3.0
 97
0
 75
0
 76
1
 98
0
  0
HATCH
  5
27D
330
17
100
AcDbEntity
  8
0
 62
7
420
12503185
100
AcDbHatch
 10
0.0
 20
0.0
 30
0.0
210
0.0
220
0.0
230
1.0
  2
SOLID
 70
1
 71
0
 91
1
 92
3
 72
0
 73
0
 93
8
 10
89.96010126024109
 20
-3.0
 10
89.96010126024109
 20
-3.7
 10
89.96010126024109
 20
-3.7
 10
93.9601012602423
 20
-3.7
 10
93.9601012602423
 20
-3.7
 10
93.9601012602423
 20
-3.7
 10
93.9601012602423
 20
-3.7
 10
89.96010126024109
 20
-3.0
 97
0
 75
0
 76
1
 98
0
  0
HATCH
  5
27E
330
17
100
AcDbEntity
  8
0
 62
7
420
13168885
100
AcDbHatch
 10
0.0
 20
0.0
 30
0.0
210
0.0
220
0.0
230
1.0
  2
SOLID
 70
1
 71
0
 91
1
 92
3
 72
0
 73
0
 93
360
 10
57.80030309640809
 20
9.300000000000889
 10
57.775157505301294
 20
9.315175199084216
 10
57.775157505301294
 20
9.315175199084216
 10
57.74991979966798
 20
9.330196704790872
 10
57.74991979966798
 20
9.330196704790872
 10
57.72459091889173
 20
9.345063957998885
 10
57.72459091889173
 20
9.345063957998885
 10
57.69917180574978
 20
9.35977640532779
 10
57.69917180574978
 20
9.35977640532779
 10
57.673663406377955
 20
9.374333499159203
 10
57.673663406377955
 20
9.374333499159203
 10
57.648066670235444
 20
9.388734697657231
 10
57.648066670235444
 20
9.388734697657231
 10
57.62238255006945
 20
9.40297946478863
 10
57.62238255006945
 20
9.40297946478863
 10
57.596612001879734
 20
9.417067270342741
 10
57.596612001879734
 20
9.417067270342741
 10
57.57075598488304
 20
9.43099758995126
 10
57.57075598488304
 20
9.43099758995126
 10
57.54481546147737
 20
9.444769905107725
 10
57.54481546147737
 20
9.444769905107725
 10
57.51879139720619
 20
9.458383703186822
 10
57.51879139720619
 20
9.458383703186822
 10
57.492684760722476
 20
9.471838477463479
 10
57.492684760722476
 20
9.471838477463479
 10
57.46649652375264
 20
9.48513372713171
 10
57.46649652375264
 20
9.48513372713171
 10
57.4402276610604
 20
9.498268957323273
 10
57.4402276610604
 20
9.498268957323273
 10
57.41387915041048
 20
9.51124367912607
 10
57.41387915041048
 20
9.51124367912607
 10
57.387451972532205
 20
9.52405740960236
 10
57.387451972532205
 20
9.52405740960236
 10
57.360947111083014
 20
9.536709671806733
 10
57.360947111083014
 20
9.536709671806733
 10
57.33436555261184
 20
9.549199994803853
 10
57.33436555261184
 20
9.549199994803853
 10
57.307708286522384
 20
9.561527913685996
 10
57.307708286522384
 20
9.561527913685996
 10
57.28097630503629
 20
9.573692969590356
 10
57.28097630503629
 20
9.573692969590356
 10
57.25417060315623
 20
9.585694709716115
 10
57.25417060315623
 20
9.585694709716115
 10
57.22729217862884
 20
9.597532687341303
 10
57.22729217862884
 20
9.597532687341303
 10
57.20034203190761
 20
9.609206461839431
 10
57.20034203190761
 20
9.609206461839431
 10
57.17332116611563
 20
9.620715598695877
 10
57.17332116611563
 20
9.620715598695877
 10
57.14623058700823
 20
9.632059669524073
 10
57.14623058700823
 20
9.632059669524073
 10
57.11907130293562
 20
9.643238252081444
 10
57.11907130293562
 20
9.643238252081444
 10
57.09184432480526
 20
9.654250930285126
 10
57.09184432480526
 20
9.654250930285126
 10
57.064550666044305
 20
9.665097294227454
 10
57.064550666044305
 20
9.665097294227454
 10
57.03719134256185
 20
9.675776940191216
 10
57.03719134256185
 20
9.675776940191216
 10
57.009767372711124
 20
9.68628947066468
 10
57.009767372711124
 20
9.68628947066468
 10
56.9822797772516
 20
9.696634494356399
 10
56.9822797772516
 20
9.696634494356399
 10
56.954729579310964
 20
9.706811626209763
 10
56.954729579310964
 20
9.706811626209763
 10
56.92711780434708
 20
9.716820487417337
 10
56.92711780434708
 20
9.716820487417337
 10
56.89944548010977
 20
9.726660705434966
 10
56.89944548010977
 20
9.726660705434966
 10
56.87171363660262
 20
9.736331913995627
 10
56.87171363660262
 20
9.736331913995627
 10
56.84392330604458
 20
9.74583375312308
 10
56.84392330604458
 20
9.74583375312308
 10
56.816075522831596
 20
9.755165869145252
 10
56.816075522831596
 20
9.755165869145252
 10
56.788171323498055
 20
9.764327914707412
 10
56.788171323498055
 20
9.764327914707412
 10
56.76021174667826
 20
9.773319548785093
 10
56.76021174667826
 20
9.773319548785093
 10
56.73219783306773
 20
9.782140436696784
 10
56.73219783306773
 20
9.782140436696784
 10
56.70413062538448
 20
9.790790250116398
 10
56.70413062538448
 20
9.790790250116398
 10
56.6760111683302
 20
9.799268667085482
 10
56.6760111683302
 20
9.799268667085482
 10
56.64784050855139
 20
9.807575372025203
 10
56.64784050855139
 20
9.807575372025203
 10
56.61961969460039
 20
9.8157100557481
 10
56.61961969460039
 20
9.8157100557481
 10
56.59134977689632
 20
9.823672415469586
 10
56.59134977689632
 20
9.823672415469586
 10
56.56303180768605
 20
9.83146215481922
 10
56.56303180768605
 20
9.83146215481922
 10
56.534666841004984
 20
9.839078983851737
 10
56.534666841004984
 20
9.839078983851737
 10
56.50625593263782
 20
9.846522619057845
 10
56.50625593263782
 20
9.846522619057845
 10
56.477800140079296
 20
9.853792783374775
 10
56.477800140079296
 20
9.853792783374775
 10
56.44930052249479
 20
9.860889206196589
 10
56.44930052249479
 20
9.860889206196589
 10
56.42075814068092
 20
9.867811623384261
 10
56.42075814068092
 20
9.867811623384261
 10
56.39217405702604
 20
9.8745597772755
 10
56.39217405702604
 20
9.8745597772755
 10
56.363549335470715
 20
9.881133416694347
 10
56.363549335470715
 20
9.881133416694347
 10
56.334885041468105
 20
9.887532296960522
 10
56.334885041468105
 20
9.887532296960522
 10
56.30618224194431
 20
9.89375617989853
 10
56.30618224194431
 20
9.89375617989853
 10
56.27744200525868
 20
9.899804833846527
 10
56.27744200525868
 20
9.899804833846527
 10
56.248665401164004
 20
9.905678033664948
 10
56.248665401164004
 20
9.905678033664948
 10
56.219853500766725
 20
9.911375560744872
 10
56.219853500766725
 20
9.911375560744872
 10
56.191007376487086
 20
9.91689720301618
 10
56.191007376487086
 20
9.91689720301618
 10
56.16212810201916
 20
9.92224275495543
 10
56.16212810201916
 20
9.92224275495543
 10
56.13321675229094
 20
9.927412017593518
 10
56.13321675229094
 20
9.927412017593518
 10
56.1042744034243
 20
9.932404798523082
 10
56.1042744034243
 20
9.932404798523082
 10
56.075302132694944
 20
9.937220911905658
 10
56.075302132694944
 20
9.937220911905658
 10
56.046301018492315
 20
9.941860178478606
 10
56.046301018492315
 20
9.941860178478606
 10
56.017272140279445
 20
9.946322425561771
 10
56.017272140279445
 20
9.946322425561771
 10
55.98821657855278
 20
9.950607487063923
 10
55.98821657855278
 20
9.950607487063923
 10
55.959135414801985
 20
9.954715203488934
 10
55.959135414801985
 20
9.954715203488934
 10
55.930029731469645
 20
9.958645421941707
 10
55.930029731469645
 20
9.958645421941707
 10
55.90090061191101
 20
9.96239799613388
 10
55.90090061191101
 20
9.96239799613388
 10
55.871749140353664
 20
9.965972786389266
 10
55.871749140353664
 20
9.965972786389266
 10
55.84257640185715
 20
9.969369659649043
 10
55.84257640185715
 20
9.969369659649043
 10
55.81338348227261
 20
9.972588489476724
 10
55.81338348227261
 20
9.972588489476724
 10
55.78417146820235
 20
9.97562915606285
 10
55.78417146820235
 20
9.97562915606285
 10
55.75494144695941
 20
9.97849154622945
 10
55.75494144695941
 20
9.97849154622945
 10
55.725694506527056
 20
9.981175553434259
 10
55.725694506527056
 20
9.981175553434259
 10
55.696431735518345
 20
9.983681077774683
 10
55.696431735518345
 20
9.983681077774683
 10
55.66715422313554
 20
9.986008025991516
 10
55.66715422313554
 20
9.986008025991516
 10
55.63786305912963
 20
9.988156311472412
 10
55.63786305912963
 20
9.988156311472412
 10
55.6085593337597
 20
9.990125854255105
 10
55.6085593337597
 20
9.990125854255105
 10
55.57924413775242
 20
9.991916581030386
 10
55.57924413775242
 20
9.991916581030386
 10
55.5499185622614
 20
9.993528425144843
 10
55.5499185622614
 20
9.993528425144843
 10
55.520583698826584
 20
9.994961326603326
 10
55.520583698826584
 20
9.994961326603326
 10
55.49124063933363
 20
9.996215232071188
 10
55.49124063933363
 20
9.996215232071188
 10
55.461890475973284
 20
9.997290094876274
 10
55.461890475973284
 20
9.997290094876274
 10
55.43253430120068
 20
9.998185875010645
 10
55.43253430120068
 20
9.998185875010645
 10
55.40317320769472
 20
9.998902539132082
 10
55.40317320769472
 20
9.998902539132082
 10
55.37380828831738
 20
9.999440060565323
 10
55.37380828831738
 20
9.999440060565323
 10
55.344440636073045
 20
9.999798419303044
 10
55.344440636073045
 20
9.999798419303044
 10
55.315071344067825
 20
9.999977602006624
 10
55.315071344067825
 20
9.999977602006624
 10
55.285701505468865
 20
9.999977602006624
 10
55.285701505468865
 20
9.999977602006624
 10
55.25633221346365
 20
9.999798419303044
 10
55.25633221346365
 20
9.999798419303044
 10
55.22696456121932
 20
9.999440060565323
 10
55.22696456121932
 20
9.999440060565323
 10
55.197599641841975
 20
9.998902539132082
 10
55.197599641841975
 20
9.998902539132082
 10
55.168238548336014
 20
9.998185875010645
 10
55.168238548336014
 20
9.998185875010645
 10
55.138882373563405
 20
9.997290094876274
 10
55.138882373563405
 20
9.997290094876274
 10
55.10953221020306
 20
9.996215232071188
 10
55.10953221020306
 20
9.996215232071188
 10
55.08018915071011
 20
9.994961326603326
 10
55.08018915071011
 20
9.994961326603326
 10
55.0508542872753
 20
9.993528425144842
 10
55.0508542872753
 20
9.993528425144842
 10
55.02152871178428
 20
9.991916581030386
 10
55.02152871178428
 20
9.991916581030386
 10
54.992213515776996
 20
9.990125854255105
 10
54.992213515776996
 20
9.990125854255105
 10
54.96290979040707
 20
9.988156311472412
 10
54.96290979040707
 20
9.988156311472412
 10
54.933618626401156
 20
9.986008025991516
 10
54.933618626401156
 20
9.986008025991516
 10
54.90434111401835
 20
9.983681077774683
 10
54.90434111401835
 20
9.983681077774683
 10
54.87507834300964
 20
9.981175553434259
 10
54.87507834300964
 20
9.981175553434259
 10
54.84583140257729
 20
9.97849154622945
 10
54.84583140257729
 20
9.97849154622945
 10
54.816601381334344
 20
9.97562915606285
 10
54.816601381334344
 20
9.97562915606285
 10
54.78738936726408
 20
9.972588489476724
 10
54.78738936726408
 20
9.972588489476724
 10
54.758196447679545
 20
9.969369659649043
 10
54.758196447679545
 20
9.969369659649043
 10
54.72902370918303
 20
9.965972786389266
 10
54.72902370918303
 20
9.965972786389266
 10
54.699872237625684
 20
9.96239799613388
 10
54.699872237625684
 20
9.96239799613388
 10
54.67074311806705
 20
9.958645421941707
 10
54.67074311806705
 20
9.958645421941707
 10
54.64163743473471
 20
9.954715203488934
 10
54.64163743473471
 20
9.954715203488934
 10
54.612556270983916
 20
9.950607487063923
 10
54.612556270983916
 20
9.950607487063923
 10
54.58350070925725
 20
9.946322425561771
 10
54.58350070925725
 20
9.946322425561771
 10
54.55447183104438
 20
9.941860178478606
 10
54.55447183104438
 20
9.941860178478606
 10
54.52547071684175
 20
9.937220911905658
 10
54.52547071684175
 20
9.937220911905658
 10
54.4964984461124
 20
9.932404798523082
 10
54.4964984461124
 20
9.932404798523082
 10
54.467556097245755
 20
9.927412017593518
 10
54.467556097245755
 20
9.927412017593518
 10
54.438644747517536
 20
9.92224275495543
 10
54.438644747517536
 20
9.92224275495543
 10
54.40976547304961
 20
9.91689720301618
 10
54.40976547304961
 20
9.91689720301618
 10
54.380919348769964
 20
9.911375560744872
 10
54.380919348769964
 20
9.911375560744872
 10
54.35210744837269
 20
9.905678033664946
 10
54.35210744837269
 20
9.905678033664946
 10
54.32333084427801
 20
9.899804833846527
 10
54.32333084427801
 20
9.899804833846527
 10
54.29459060759238
 20
9.89375617989853
 10
54.29459060759238
 20
9.89375617989853
 10
54.26588780806859
 20
9.887532296960522
 10
54.26588780806859
 20
9.887532296960522
 10
54.23722351406598
 20
9.881133416694347
 10
54.23722351406598
 20
9.881133416694347
 10
54.20859879251066
 20
9.8745597772755
 10
54.20859879251066
 20
9.8745597772755
 10
54.18001470885578
 20
9.86781162338426
 10
54.18001470885578
 20
9.86781162338426
 10
54.15147232704191
 20
9.860889206196589
 10
54.15147232704191
 20
9.860889206196589
 10
54.1229727094574
 20
9.853792783374775
 10
54.1229727094574
 20
9.853792783374775
 10
54.094516916898876
 20
9.846522619057845
 10
54.094516916898876
 20
9.846522619057845
 10
54.06610600853171
 20
9.839078983851735
 10
54.06610600853171
 20
9.839078983851735
 10
54.037741041850644
 20
9.831462154819219
 10
54.037741041850644
 20
9.831462154819219
 10
54.009423072640374
 20
9.823672415469586
 10
54.009423072640374
 20
9.823672415469586
 10
53.98115315493631
 20
9.8157100557481
 10
53.98115315493631
 20
9.8157100557481
 10
53.9529323409853
 20
9.807575372025203
 10
53.9529323409853
 20
9.807575372025203
 10
53.9247616812065
 20
9.799268667085482
 10
53.9247616812065
 20
9.799268667085482
 10
53.89664222415222
 20
9.790790250116398
 10
53.89664222415222
 20
9.790790250116398
 10
53.86857501646897
 20
9.782140436696784
 10
53.86857501646897
 20
9.782140436696784
 10
53.84056110285844
 20
9.773319548785093
 10
53.84056110285844
 20
9.773319548785093
 10
53.81260152603864
 20
9.764327914707412
 10
53.81260152603864
 20
9.764327914707412
 10
53.7846973267051
 20
9.755165869145252
 10
53.7846973267051
 20
9.755165869145252
 10
53.756849543492116
 20
9.74583375312308
 10
53.756849543492116
 20
9.74583375312308
 10
53.729059212934075
 20
9.736331913995627
 10
53.729059212934075
 20
9.736331913995627
 10
53.70132736942693
 20
9.726660705434966
 10
53.70132736942693
 20
9.726660705434966
 10
53.67365504518962
 20
9.716820487417337
 10
53.67365504518962
 20
9.716820487417337
 10
53.64604327022573
 20
9.706811626209763
 10
53.64604327022573
 20
9.706811626209763
 10
53.6184930722851
 20
9.696634494356399
 10
53.6184930722851
 20
9.696634494356399
 10
53.59100547682557
 20
9.68628947066468
 10
53.59100547682557
 20
9.68628947066468
 10
53.56358150697484
 20
9.675776940191215
 10
53.56358150697484
 20
9.675776940191215
 10
53.53622218349239
 20
9.665097294227454
 10
53.53622218349239
 20
9.665097294227454
 10
53.50892852473143
 20
9.654250930285126
 10
53.50892852473143
 20
9.654250930285126
 10
53.48170154660107
 20
9.643238252081444
 10
53.48170154660107
 20
9.643238252081444
 10
53.45454226252846
 20
9.632059669524072
 10
53.45454226252846
 20
9.632059669524072
 10
53.42745168342107
 20
9.620715598695877
 10
53.42745168342107
 20
9.620715598695877
 10
53.400430817629086
 20
9.609206461839431
 10
53.400430817629086
 20
9.609206461839431
 10
53.37348067090785
 20
9.597532687341303
 10
53.37348067090785
 20
9.597532687341303
 10
53.34660224638046
 20
9.585694709716114
 10
53.34660224638046
 20
9.585694709716114
 10
53.319796544500406
 20
9.573692969590356
 10
53.319796544500406
 20
9.573692969590356
 10
53.29306456301431
 20
9.561527913685996
 10
53.29306456301431
 20
9.561527913685996
 10
53.266407296924854
 20
9.54919999480385
 10
53.266407296924854
 20
9.54919999480385
 10
53.23982573845368
 20
9.536709671806731
 10
53.23982573845368
 20
9.536709671806731
 10
53.21332087700449
 20
9.52405740960236
 10
53.21332087700449
 20
9.52405740960236
 10
53.186893699126216
 20
9.511243679126068
 10
53.186893699126216
 20
9.511243679126068
 10
53.1605451884763
 20
9.498268957323273
 10
53.1605451884763
 20
9.498268957323273
 10
53.13427632578406
 20
9.48513372713171
 10
53.13427632578406
 20
9.48513372713171
 10
53.10808808881422
 20
9.471838477463479
 10
53.10808808881422
 20
9.471838477463479
 10
53.0819814523305
 20
9.458383703186822
 10
53.0819814523305
 20
9.458383703186822
 10
53.05595738805932
 20
9.444769905107725
 10
53.05595738805932
 20
9.444769905107725
 10
53.03001686465365
 20
9.43099758995126
 10
53.03001686465365
 20
9.43099758995126
 10
53.004160847656955
 20
9.417067270342741
 10
53.004160847656955
 20
9.417067270342741
 10
52.97839029946724
 20
9.402979464788627
 10
52.97839029946724
 20
9.402979464788627
 10
52.952706179301245
 20
9.388734697657231
 10
52.952706179301245
 20
9.388734697657231
 10
52.92710944315874
 20
9.374333499159203
 10
52.92710944315874
 20
9.374333499159203
 10
52.90160104378692
 20
9.35977640532779
 10
52.90160104378692
 20
9.35977640532779
 10
52.87618193064497
 20
9.345063957998885
 10
52.87618193064497
 20
9.345063957998885
 10
52.85085304986872
 20
9.33019670479087
 10
52.85085304986872
 20
9.33019670479087
 10
52.8256153442354
 20
9.315175199084214
 10
52.8256153442354
 20
9.315175199084214
 10
52.8004697531286
 20
9.300000000000889
 10
52.8004697531286
 20
9.300000000000889
 10
9.300000000000889
 20
9.300000000000889
 97
0
 75
0
 76
1
 98
0
  0
HATCH
  5
27F
330
17
100
AcDbEntity
  8
0
 62
7
420
13168885
100
AcDbHatch
 10
0.0
 20
0.0
 30
0.0
210
0.0
220
0.0
230
1.0
  2
SOLID
 70
1
 71
0
 91
1
 92
3
 72
0
 73
0
 93
360
 10
82.80046975346491
 20
9.300000000000889
 10
82.82561534457173
 20
9.284824800917562
 10
82.82561534457173
 20
9.284824800917562
 10
82.85085305020505
 20
9.269803295210906
 10
82.85085305020505
 20
9.269803295210906
 10
82.87618193098132
 20
9.254936042002893
 10
82.87618193098132
 20
9.254936042002893
 10
82.90160104412328
 20
9.240223594673989
 10
82.90160104412328
 20
9.240223594673989
 10
82.92710944349511
 20
9.225666500842575
 10
82.92710944349511
 20
9.225666500842575
 10
82.95270617963764
 20
9.211265302344543
 10
82.95270617963764
 20
9.211265302344543
 10
82.97839029980365
 20
9.197020535213149
 10
82.97839029980365
 20
9.197020535213149
 10
83.00416084799338
 20
9.182932729659033
 10
83.00416084799338
 20
9.182932729659033
 10
83.03001686499009
 20
9.169002410050513
 10
83.03001686499009
 20
9.169002410050513
 10
83.05595738839577
 20
9.155230094894051
 10
83.05595738839577
 20
9.155230094894051
 10
83.08198145266695
 20
9.141616296814954
 10
83.08198145266695
 20
9.141616296814954
 10
83.10808808915068
 20
9.128161522538297
 10
83.10808808915068
 20
9.128161522538297
 10
83.13427632612054
 20
9.114866272870064
 10
83.13427632612054
 20
9.114866272870064
 10
83.16054518881279
 20
9.101731042678502
 10
83.16054518881279
 20
9.101731042678502
 10
83.18689369946271
 20
9.088756320875707
 10
83.18689369946271
 20
9.088756320875707
 10
83.213320877341
 20
9.075942590399414
 10
83.213320877341
 20
9.075942590399414
 10
83.23982573879022
 20
9.063290328195043
 10
83.23982573879022
 20
9.063290328195043
 10
83.2664072972614
 20
9.050800005197923
 10
83.2664072972614
 20
9.050800005197923
 10
83.29306456335087
 20
9.03847208631578
 10
83.29306456335087
 20
9.03847208631578
 10
83.31979654483698
 20
9.026307030411418
 10
83.31979654483698
 20
9.026307030411418
 10
83.34660224671705
 20
9.014305290285659
 10
83.34660224671705
 20
9.014305290285659
 10
83.37348067124445
 20
9.002467312660471
 10
83.37348067124445
 20
9.002467312660471
 10
83.4004308179657
 20
8.990793538162343
 10
83.4004308179657
 20
8.990793538162343
 10
83.4274516837577
 20
8.979284401305897
 10
83.4274516837577
 20
8.979284401305897
 10
83.45454226286509
 20
8.967940330477703
 10
83.45454226286509
 20
8.967940330477703
 10
83.48170154693771
 20
8.95676174792033
 10
83.48170154693771
 20
8.95676174792033
 10
83.5089285250681
 20
8.945749069716648
 10
83.5089285250681
 20
8.945749069716648
 10
83.53622218382907
 20
8.93490270577432
 10
83.53622218382907
 20
8.93490270577432
 10
83.56358150731153
 20
8.924223059810561
 10
83.56358150731153
 20
8.924223059810561
 10
83.59100547716227
 20
8.913710529337095
 10
83.59100547716227
 20
8.913710529337095
 10
83.6184930726218
 20
8.903365505645375
 10
83.6184930726218
 20
8.903365505645375
 10
83.64604327056246
 20
8.893188373792011
 10
83.64604327056246
 20
8.893188373792011
 10
83.67365504552636
 20
8.883179512584437
 10
83.67365504552636
 20
8.883179512584437
 10
83.70132736976367
 20
8.873339294566808
 10
83.70132736976367
 20
8.873339294566808
 10
83.72905921327083
 20
8.863668086006147
 10
83.72905921327083
 20
8.863668086006147
 10
83.75684954382889
 20
8.854166246878695
 10
83.75684954382889
 20
8.854166246878695
 10
83.78469732704188
 20
8.844834130856523
 10
83.78469732704188
 20
8.844834130856523
 10
83.81260152637543
 20
8.835672085294362
 10
83.81260152637543
 20
8.835672085294362
 10
83.84056110319524
 20
8.826680451216681
 10
83.84056110319524
 20
8.826680451216681
 10
83.86857501680579
 20
8.81785956330499
 10
83.86857501680579
 20
8.81785956330499
 10
83.89664222448906
 20
8.809209749885376
 10
83.89664222448906
 20
8.809209749885376
 10
83.92476168154334
 20
8.800731332916294
 10
83.92476168154334
 20
8.800731332916294
 10
83.95293234132215
 20
8.792424627976573
 10
83.95293234132215
 20
8.792424627976573
 10
83.98115315527318
 20
8.784289944253675
 10
83.98115315527318
 20
8.784289944253675
 10
84.00942307297726
 20
8.776327584532188
 10
84.00942307297726
 20
8.776327584532188
 10
84.03774104218753
 20
8.768537845182557
 10
84.03774104218753
 20
8.768537845182557
 10
84.06610600886862
 20
8.76092101615004
 10
84.06610600886862
 20
8.76092101615004
 10
84.0945169172358
 20
8.75347738094393
 10
84.0945169172358
 20
8.75347738094393
 10
84.12297270979434
 20
8.746207216626999
 10
84.12297270979434
 20
8.746207216626999
 10
84.15147232737885
 20
8.739110793805185
 10
84.15147232737885
 20
8.739110793805185
 10
84.18001470919273
 20
8.732188376617515
 10
84.18001470919273
 20
8.732188376617515
 10
84.20859879284762
 20
8.725440222726276
 10
84.20859879284762
 20
8.725440222726276
 10
84.23722351440296
 20
8.718866583307427
 10
84.23722351440296
 20
8.718866583307427
 10
84.26588780840558
 20
8.712467703041256
 10
84.26588780840558
 20
8.712467703041256
 10
84.29459060792938
 20
8.706243820103246
 10
84.29459060792938
 20
8.706243820103246
 10
84.32333084461503
 20
8.700195166155249
 10
84.32333084461503
 20
8.700195166155249
 10
84.35210744870972
 20
8.69432196633683
 10
84.35210744870972
 20
8.69432196633683
 10
84.380919349107
 20
8.688624439256905
 10
84.380919349107
 20
8.688624439256905
 10
84.40976547338666
 20
8.683102796985597
 10
84.40976547338666
 20
8.683102796985597
 10
84.4386447478546
 20
8.677757245046347
 10
84.4386447478546
 20
8.677757245046347
 10
84.46755609758283
 20
8.672587982408258
 10
84.46755609758283
 20
8.672587982408258
 10
84.49649844644948
 20
8.667595201478694
 10
84.49649844644948
 20
8.667595201478694
 10
84.52547071717885
 20
8.66277908809612
 10
84.52547071717885
 20
8.66277908809612
 10
84.55447183138149
 20
8.658139821523172
 10
84.55447183138149
 20
8.658139821523172
 10
84.58350070959438
 20
8.653677574440007
 10
84.58350070959438
 20
8.653677574440007
 10
84.61255627132104
 20
8.649392512937853
 10
84.61255627132104
 20
8.649392512937853
 10
84.64163743507186
 20
8.645284796512843
 10
84.64163743507186
 20
8.645284796512843
 10
84.6707431184042
 20
8.64135457806007
 10
84.6707431184042
 20
8.64135457806007
 10
84.69987223796285
 20
8.637602003867897
 10
84.69987223796285
 20
8.637602003867897
 10
84.7290237095202
 20
8.634027213612512
 10
84.7290237095202
 20
8.634027213612512
 10
84.75819644801673
 20
8.630630340352734
 10
84.75819644801673
 20
8.630630340352734
 10
84.78738936760129
 20
8.627411510525052
 10
84.78738936760129
 20
8.627411510525052
 10
84.81660138167156
 20
8.624370843938928
 10
84.81660138167156
 20
8.624370843938928
 10
84.84583140291451
 20
8.621508453772329
 10
84.84583140291451
 20
8.621508453772329
 10
84.87507834334687
 20
8.618824446567519
 10
84.87507834334687
 20
8.618824446567519
 10
84.9043411143556
 20
8.616318922227094
 10
84.9043411143556
 20
8.616318922227094
 10
84.93361862673841
 20
8.613991974010261
 10
84.93361862673841
 20
8.613991974010261
 10
84.96290979074435
 20
8.611843688529365
 10
84.96290979074435
 20
8.611843688529365
 10
84.99221351611428
 20
8.609874145746673
 10
84.99221351611428
 20
8.609874145746673
 10
85.02152871212158
 20
8.608083418971392
 10
85.02152871212158
 20
8.608083418971392
 10
85.05085428761261
 20
8.606471574856936
 10
85.05085428761261
 20
8.606471574856936
 10
85.08018915104743
 20
8.605038673398452
 10
85.08018915104743
 20
8.605038673398452
 10
85.1095322105404
 20
8.603784767930591
 10
85.1095322105404
 20
8.603784767930591
 10
85.13888237390074
 20
8.602709905125504
 10
85.13888237390074
 20
8.602709905125504
 10
85.16823854867337
 20
8.601814124991133
 10
85.16823854867337
 20
8.601814124991133
 10
85.19759964217934
 20
8.601097460869696
 10
85.19759964217934
 20
8.601097460869696
 10
85.2269645615567
 20
8.600559939436454
 10
85.2269645615567
 20
8.600559939436454
 10
85.25633221380104
 20
8.600201580698734
 10
85.25633221380104
 20
8.600201580698734
 10
85.28570150580627
 20
8.600022397995154
 10
85.28570150580627
 20
8.600022397995154
 10
85.31507134440524
 20
8.600022397995154
 10
85.31507134440524
 20
8.600022397995154
 10
85.34444063641047
 20
8.600201580698734
 10
85.34444063641047
 20
8.600201580698734
 10
85.37380828865481
 20
8.600559939436454
 10
85.37380828865481
 20
8.600559939436454
 10
85.40317320803217
 20
8.601097460869696
 10
85.40317320803217
 20
8.601097460869696
 10
85.43253430153814
 20
8.601814124991133
 10
85.43253430153814
 20
8.601814124991133
 10
85.46189047631076
 20
8.602709905125504
 10
85.46189047631076
 20
8.602709905125504
 10
85.49124063967112
 20
8.60378476793059
 10
85.49124063967112
 20
8.60378476793059
 10
85.52058369916408
 20
8.605038673398452
 10
85.52058369916408
 20
8.605038673398452
 10
85.5499185625989
 20
8.606471574856934
 10
85.5499185625989
 20
8.606471574856934
 10
85.57924413808995
 20
8.608083418971392
 10
85.57924413808995
 20
8.608083418971392
 10
85.60855933409722
 20
8.609874145746673
 10
85.60855933409722
 20
8.609874145746673
 10
85.63786305946716
 20
8.611843688529365
 10
85.63786305946716
 20
8.611843688529365
 10
85.66715422347309
 20
8.61399197401026
 10
85.66715422347309
 20
8.61399197401026
 10
85.69643173585591
 20
8.616318922227094
 10
85.69643173585591
 20
8.616318922227094
 10
85.72569450686463
 20
8.618824446567519
 10
85.72569450686463
 20
8.618824446567519
 10
85.754941447297
 20
8.621508453772329
 10
85.754941447297
 20
8.621508453772329
 10
85.78417146853995
 20
8.624370843938928
 10
85.78417146853995
 20
8.624370843938928
 10
85.81338348261022
 20
8.627411510525052
 10
85.81338348261022
 20
8.627411510525052
 10
85.84257640219478
 20
8.630630340352733
 10
85.84257640219478
 20
8.630630340352733
 10
85.8717491406913
 20
8.634027213612512
 10
85.8717491406913
 20
8.634027213612512
 10
85.90090061224866
 20
8.637602003867896
 10
85.90090061224866
 20
8.637602003867896
 10
85.93002973180731
 20
8.64135457806007
 10
85.93002973180731
 20
8.64135457806007
 10
85.95913541513966
 20
8.645284796512843
 10
85.95913541513966
 20
8.645284796512843
 10
85.98821657889046
 20
8.649392512937853
 10
85.98821657889046
 20
8.649392512937853
 10
86.01727214061714
 20
8.653677574440007
 10
86.01727214061714
 20
8.653677574440007
 10
86.04630101883002
 20
8.658139821523172
 10
86.04630101883002
 20
8.658139821523172
 10
86.07530213303266
 20
8.662779088096118
 10
86.07530213303266
 20
8.662779088096118
 10
86.10427440376203
 20
8.667595201478694
 10
86.10427440376203
 20
8.667595201478694
 10
86.13321675262868
 20
8.672587982408256
 10
86.13321675262868
 20
8.672587982408256
 10
86.16212810235692
 20
8.677757245046347
 10
86.16212810235692
 20
8.677757245046347
 10
86.19100737682486
 20
8.683102796985597
 10
86.19100737682486
 20
8.683102796985597
 10
86.21985350110451
 20
8.688624439256905
 10
86.21985350110451
 20
8.688624439256905
 10
86.2486654015018
 20
8.69432196633683
 10
86.2486654015018
 20
8.69432196633683
 10
86.27744200559648
 20
8.700195166155249
 10
86.27744200559648
 20
8.700195166155249
 10
86.30618224228212
 20
8.706243820103245
 10
86.30618224228212
 20
8.706243820103245
 10
86.33488504180593
 20
8.712467703041252
 10
86.33488504180593
 20
8.712467703041252
 10
86.36354933580854
 20
8.718866583307427
 10
86.36354933580854
 20
8.718866583307427
 10
86.39217405736389
 20
8.725440222726276
 10
86.39217405736389
 20
8.725440222726276
 10
86.42075814101878
 20
8.732188376617515
 10
86.42075814101878
 20
8.732188376617515
 10
86.44930052283266
 20
8.739110793805185
 10
86.44930052283266
 20
8.739110793805185
 10
86.47780014041717
 20
8.746207216626999
 10
86.47780014041717
 20
8.746207216626999
 10
86.50625593297572
 20
8.753477380943929
 10
86.50625593297572
 20
8.753477380943929
 10
86.53466684134288
 20
8.760921016150037
 10
86.53466684134288
 20
8.760921016150037
 10
86.56303180802398
 20
8.768537845182555
 10
86.56303180802398
 20
8.768537845182555
 10
86.59134977723426
 20
8.77632758453219
 10
86.59134977723426
 20
8.77632758453219
 10
86.61961969493834
 20
8.784289944253674
 10
86.61961969493834
 20
8.784289944253674
 10
86.64784050888935
 20
8.792424627976573
 10
86.64784050888935
 20
8.792424627976573
 10
86.67601116866817
 20
8.800731332916293
 10
86.67601116866817
 20
8.800731332916293
 10
86.70413062572246
 20
8.809209749885376
 10
86.70413062572246
 20
8.809209749885376
 10
86.73219783340572
 20
8.817859563304989
 10
86.73219783340572
 20
8.817859563304989
 10
86.76021174701626
 20
8.826680451216681
 10
86.76021174701626
 20
8.826680451216681
 10
86.78817132383608
 20
8.835672085294362
 10
86.78817132383608
 20
8.835672085294362
 10
86.81607552316963
 20
8.844834130856523
 10
86.81607552316963
 20
8.844834130856523
 10
86.84392330638262
 20
8.854166246878695
 10
86.84392330638262
 20
8.854166246878695
 10
86.87171363694067
 20
8.863668086006147
 10
86.87171363694067
 20
8.863668086006147
 10
86.89944548044784
 20
8.873339294566808
 10
86.89944548044784
 20
8.873339294566808
 10
86.92711780468515
 20
8.883179512584435
 10
86.92711780468515
 20
8.883179512584435
 10
86.95472957964905
 20
8.893188373792011
 10
86.95472957964905
 20
8.893188373792011
 10
86.98227977758971
 20
8.903365505645375
 10
86.98227977758971
 20
8.903365505645375
 10
87.00976737304924
 20
8.913710529337095
 10
87.00976737304924
 20
8.913710529337095
 10
87.03719134289999
 20
8.92422305981056
 10
87.03719134289999
 20
8.92422305981056
 10
87.06455066638244
 20
8.93490270577432
 10
87.06455066638244
 20
8.93490270577432
 10
87.09184432514341
 20
8.945749069716648
 10
87.09184432514341
 20
8.945749069716648
 10
87.11907130327378
 20
8.956761747920329
 10
87.11907130327378
 20
8.956761747920329
 10
87.14623058734641
 20
8.967940330477699
 10
87.14623058734641
 20
8.967940330477699
 10
87.17332116645382
 20
8.979284401305897
 10
87.17332116645382
 20
8.979284401305897
 10
87.20034203224581
 20
8.990793538162343
 10
87.20034203224581
 20
8.990793538162343
 10
87.22729217896706
 20
9.00246731266047
 10
87.22729217896706
 20
9.00246731266047
 10
87.25417060349446
 20
9.014305290285659
 10
87.25417060349446
 20
9.014305290285659
 10
87.28097630537454
 20
9.026307030411417
 10
87.28097630537454
 20
9.026307030411417
 10
87.30770828686065
 20
9.038472086315778
 10
87.30770828686065
 20
9.038472086315778
 10
87.3343655529501
 20
9.050800005197921
 10
87.3343655529501
 20
9.050800005197921
 10
87.3609471114213
 20
9.063290328195041
 10
87.3609471114213
 20
9.063290328195041
 10
87.38745197287051
 20
9.075942590399414
 10
87.38745197287051
 20
9.075942590399414
 10
87.41387915074878
 20
9.088756320875703
 10
87.41387915074878
 20
9.088756320875703
 10
87.44022766139872
 20
9.101731042678502
 10
87.44022766139872
 20
9.101731042678502
 10
87.46649652409097
 20
9.114866272870064
 10
87.46649652409097
 20
9.114866272870064
 10
87.49268476106081
 20
9.128161522538296
 10
87.49268476106081
 20
9.128161522538296
 10
87.51879139754456
 20
9.141616296814952
 10
87.51879139754456
 20
9.141616296814952
 10
87.54481546181574
 20
9.15523009489405
 10
87.54481546181574
 20
9.15523009489405
 10
87.57075598522142
 20
9.169002410050513
 10
87.57075598522142
 20
9.169002410050513
 10
87.59661200221814
 20
9.182932729659033
 10
87.59661200221814
 20
9.182932729659033
 10
87.62238255040786
 20
9.197020535213145
 10
87.62238255040786
 20
9.197020535213145
 10
87.64806667057387
 20
9.211265302344543
 10
87.64806667057387
 20
9.211265302344543
 10
87.6736634067164
 20
9.225666500842571
 10
87.6736634067164
 20
9.225666500842571
 10
87.69917180608823
 20
9.240223594673985
 10
87.69917180608823
 20
9.240223594673985
 10
87.7245909192302
 20
9.25493604200289
 10
87.7245909192302
 20
9.25493604200289
 10
87.74991980000647
 20
9.269803295210906
 10
87.74991980000647
 20
9.269803295210906
 10
87.77515750563978
 20
9.284824800917562
 10
87.77515750563978
 20
9.284824800917562
 10
87.8003030967466
 20
9.300000000000889
 10
87.8003030967466
 20
9.300000000000889
 10
9.300000000000889
 20
9.300000000000889
 97
0
 75
0
 76
1
 98
0
  0
HATCH
  5
280
330
17
100
AcDbEntity
  8
0
 62
7
420
15132390
100
AcDbHatch
 10
0.0
 20
0.0
 30
0.0
210
0.0
220
0.0
230
1.0
  2
SOLID
 70
1
 71
0
 91
1
 92
1
 93
8
 72
1
 10
5.0
 20
7.00000000000085
 11
52.8004697531286
 21
7.00000000000089
 72
2
 10
52.806636235487304
 20
-42.99999961974406
 40
50.0
 50
269.9929337317102
 51
275.73187672045106
 73
0
 72
1
 10
57.80030309640809
 20
6.75000833283964
 11
82.80046975346491
 21
4.24999166716125
 72
2
 10
87.79413661438569
 20
53.999999619744955
 40
50.0
 50
-95.73187672045104
 51
-89.99293373170765
 73
1
 72
1
 10
87.8003030967466
 20
4.0
 11
107.93720642510901
 21
4.00000000000085
 72
1
 10
107.93720712725201
 20
4.00000000000085
 11
107.93720712725201
 21
0.0
 72
1
 10
107.93720712725201
 20
0.0
 11
5.0
 21
0.0
 72
1
 10
5.0
 20
0.0
 11
5.0
 21
7.00000000000085
 97
0
 75
1
 76
1
 98
0
  0
LINE
  5
281
330
17
100
AcDbEntity
  8
0
  6
CONTINUOUS
420
0
100
AcDbLine
 10
0.0
 20
0.0
 30
0.0
 11
107.93720712725201
 21
0.0
 31
0.0
  0
LINE
  5
282
330
17
100
AcDbEntity
  8
0
  6
CONTINUOUS
420
0
100
AcDbLine
 10
0.0
 20
-1.2
 30
0.0
 11
107.93720712725201
 21
-1.2
 31
0.0
  0
LINE
  5
283
330
17
100
AcDbEntity
  8
0
  6
CONTINUOUS
420
0
100
AcDbLine
 10
0.0
 20
-1.25
 30
0.0
 11
107.93720712725201
 21
-1.25
 31
0.0
  0
LINE
  5
284
330
17
100
AcDbEntity
  8
0
  6
CONTINUOUS
420
0
100
AcDbLine
 10
0.0
 20
-2.85
 30
0.0
 11
107.93720712725201
 21
-2.85
 31
0.0
  0
LINE
  5
285
330
17
100
AcDbEntity
  8
0
  6
CONTINUOUS
420
0
100
AcDbLine
 10
0.0
 20
-2.9
 30
0.0
 11
107.93720712725201
 21
-2.9
 31
0.0
  0
LINE
  5
286
330
17
100
AcDbEntity
  8
0
  6
CONTINUOUS
420
0
100
AcDbLine
 10
0.0
 20
-4.5
 30
0.0
 11
107.93720712725201
 21
-4.5
 31
0.0
  0
LINE
  5
287
330
17
100
AcDbEntity
  8
0
  6
CONTINUOUS
420
0
100
AcDbLine
 10
0.0
 20
8.50000000000089
 30
0.0
 11
107.93720712725201
 21
8.50000000000089
 31
0.0
  0
LINE
  5
288
330
17
100
AcDbEntity
  8
0
  6
CONTINUOUS
420
0
100
AcDbLine
 10
0.0
 20
10.10000000000089
 30
0.0
 11
107.93720712725201
 21
10.10000000000089
 31
0.0
  0
LINE
  5
289
330
17
100
AcDbEntity
  8
0
  6
CONTINUOUS
420
0
100
AcDbLine
 10
0.0
 20
10.15000000000089
 30
0.0
 11
107.93720712725201
 21
10.15000000000089
 31
0.0
  0
LINE
  5
28A
330
17
100
AcDbEntity
  8
0
  6
CONTINUOUS
420
0
100
AcDbLine
 10
0.0
 20
10.950000000000891
 30
0.0
 11
107.93720712725201
 21
10.950000000000891
 31
0.0
  0
MTEXT
  5
28B
330
17
100
AcDbEntity
  8
0
420
0
100
AcDbMText
 10
0.0
 20
11.950000000000891
 30
0.0
 40
0.3
 71
4
  1
Alignment: Track alignment
  7
Arial_Narrow_Bold
  0
MTEXT
  5
28C
330
17
100
AcDbEntity
  8
0
420
0
100
AcDbMText
 10
0.0
 20
11.450000000000891
 30
0.0
 40
0.3
 71
4
  1
Schema:   IFC4X3_ADD1
  7
Arial_Narrow_Bold
  0
MTEXT
  5
28D
330
17
100
AcDbEntity
  8
0
420
0
100
AcDbMText
 10
3.8
 20
-0.625
 30
0.0
 40
0.3
 71
6
  1
DISTANCE\PALONG
  7
Arial_Narrow_Bold
  0
MTEXT
  5
28E
330
17
100
AcDbEntity
  8
0
420
0
100
AcDbMText
 10
3.8
 20
-2.075
 30
0.0
 40
0.3
 71
6
  1
HORIZONTAL\PALIGNMENT
  7
Arial_Narrow_Bold
  0
MTEXT
  5
28F
330
17
100
AcDbEntity
  8
0
420
0
100
AcDbMText
 10
3.8
 20
-3.7
 30
0.0
 40
0.3
 71
6
  1
CANT
  7
Arial_Narrow_Bold
  0
MTEXT
  5
290
330
17
100
AcDbEntity
  8
0
420
0
100
AcDbMText
 10
3.8
 20
10.52500000000089
 30
0.0
 40
0.3
 71
6
  1
HEIGHT
  7
Arial_Narrow_Bold
  0
MTEXT
  5
291
330
17
100
AcDbEntity
  8
0
420
0
100
AcDbMText
 10
3.8
 20
9.300000000000889
 30
0.0
 40
0.3
 71
6
  1
VERTICAL\PALIGNMENT
  7
Arial_Narrow_Bold
  0
MTEXT
  5
292
330
17
100
AcDbEntity
  8
0
420
0
100
AcDbMText
 10
3.8
 20
7.70000000000089
 30
0.0
 40
0.2
 71
3
  1
lenghts: 1/1000 - heights: 1/100
  7
Arial_Narrow
  0
MTEXT
  5
293
330
17
100
AcDbEntity
  8
0
420
0
100
AcDbMText
 10
3.8
 20
8.200000000000891
 30
0.0
 40
0.3
 71
3
  1
scale
  7
Arial_Narrow_Bold
  0
LINE
  5
294
330
17
100
AcDbEntity
  8
0
100
AcDbLine
 10
5.0
 20
0.07
 30
0.0
 11
5.0
 21
-1.32
 31
0.0
  0
MTEXT
  5
295
330
17
100
AcDbEntity
  8
0
420
0
100
AcDbMText
 10
4.97
 20
-0.03
 30
0.0
 40
0.16
 71
9
  1
0.00
  7
Arial_Narrow
 50
90.0
  0
LINE
  5
296
330
17
100
AcDbEntity
  8
0
100
AcDbLine
 10
5.309999999999999
 20
0.07
 30
0.0
 11
5.309999999999999
 21
-1.32
 31
0.0
  0
MTEXT
  5
297
330
17
100
AcDbEntity
  8
0
420
0
100
AcDbMText
 10
5.2799999999999985
 20
-0.03
 30
0.0
 40
0.16
 71
9
  1
3.10
  7
Arial_Narrow
 50
90.0
  0
LINE
  5
298
330
17
100
AcDbEntity
  8
0
100
AcDbLine
 10
10.31
 20
0.07
 30
0.0
 11
10.31
 21
-1.32
 31
0.0
  0
MTEXT
  5
299
330
17
100
AcDbEntity
  8
0
420
0
100
AcDbMText
 10
10.280000000000001
 20
-0.03
 30
0.0
 40
0.16
 71
9
  1
53.10
  7
Arial_Narrow
 50
90.0
  0
LINE
  5
29A
330
17
100
AcDbEntity
  8
0
100
AcDbLine
 10
15.309999999999999
 20
0.07
 30
0.0
 11
15.309999999999999
 21
-1.32
 31
0.0
  0
MTEXT
  5
29B
330
17
100
AcDbEntity
  8
0
420
0
100
AcDbMText
 10
15.28
 20
-0.03
 30
0.0
 40
0.16
 71
9
  1
103.10
  7
Arial_Narrow
 50
90.0
  0
LINE
  5
29C
330
17
100
AcDbEntity
  8
0
100
AcDbLine
 10
20.31
 20
0.07
 30
0.0
 11
20.31
 21
-1.32
 31
0.0
  0
MTEXT
  5
29D
330
17
100
AcDbEntity
  8
0
420
0
100
AcDbMText
 10
20.279999999999998
 20
-0.03
 30
0.0
 40
0.16
 71
9
  1
153.10
  7
Arial_Narrow
 50
90.0
  0
LINE
  5
29E
330
17
100
AcDbEntity
  8
0
100
AcDbLine
 10
25.31
 20
0.07
 30
0.0
 11
25.31
 21
-1.32
 31
0.0
  0
MTEXT
  5
29F
330
17
100
AcDbEntity
  8
0
420
0
100
AcDbMText
 10
25.279999999999998
 20
-0.03
 30
0.0
 40
0.16
 71
9
  1
203.10
  7
Arial_Narrow
 50
90.0
  0
LINE
  5
2A0
330
17
100
AcDbEntity
  8
0
100
AcDbLine
 10
30.31
 20
0.07
 30
0.0
 11
30.31
 21
-1.32
 31
0.0
  0
MTEXT
  5
2A1
330
17
100
AcDbEntity
  8
0
420
0
100
AcDbMText
 10
30.279999999999998
 20
-0.03
 30
0.0
 40
0.16
 71
9
  1
253.10
  7
Arial_Narrow
 50
90.0
  0
LINE
  5
2A2
330
17
100
AcDbEntity
  8
0
100
AcDbLine
 10
35.31
 20
0.07
 30
0.0
 11
35.31
 21
-1.32
 31
0.0
  0
MTEXT
  5
2A3
330
17
100
AcDbEntity
  8
0
420
0
100
AcDbMText
 10
35.28
 20
-0.03
 30
0.0
 40
0.16
 71
9
  1
303.10
  7
Arial_Narrow
 50
90.0
  0
LINE
  5
2A4
330
17
100
AcDbEntity
  8
0
100
AcDbLine
 10
40.31
 20
0.07
 30
0.0
 11
40.31
 21
-1.32
 31
0.0
  0
MTEXT
  5
2A5
330
17
100
AcDbEntity
  8
0
420
0
100
AcDbMText
 10
40.28
 20
-0.03
 30
0.0
 40
0.16
 71
9
  1
353.10
  7
Arial_Narrow
 50
90.0
  0
LINE
  5
2A6
330
17
100
AcDbEntity
  8
0
100
AcDbLine
 10
43.772327629696505
 20
0.07
 30
0.0
 11
43.772327629696505
 21
-1.32
 31
0.0
  0
MTEXT
  5
2A7
330
17
100
AcDbEntity
  8
0
420
0
100
AcDbMText
 10
43.742327629696504
 20
-0.03
 30
0.0
 40
0.16
 71
9
  1
387.72
  7
Arial_Narrow
 50
90.0
  0
LINE
  5
2A8
330
17
100
AcDbEntity
  8
0
100
AcDbLine
 10
45.31
 20
0.07
 30
0.0
 11
45.31
 21
-1.32
 31
0.0
  0
MTEXT
  5
2A9
330
17
100
AcDbEntity
  8
0
420
0
100
AcDbMText
 10
45.28
 20
-0.03
 30
0.0
 40
0.16
 71
9
  1
403.10
  7
Arial_Narrow
 50
90.0
  0
LINE
  5
2AA
330
17
100
AcDbEntity
  8
0
100
AcDbLine
 10
47.7723276296957
 20
0.07
 30
0.0
 11
47.7723276296957
 21
-1.32
 31
0.0
  0
MTEXT
  5
2AB
330
17
100
AcDbEntity
  8
0
420
0
100
AcDbMText
 10
47.7423276296957
 20
-0.03
 30
0.0
 40
0.16
 71
9
  1
427.72
  7
Arial_Narrow
 50
90.0
  0
LINE
  5
2AC
330
17
100
AcDbEntity
  8
0
100
AcDbLine
 10
47.7723276296958
 20
0.07
 30
0.0
 11
47.7723276296958
 21
-1.32
 31
0.0
  0
MTEXT
  5
2AD
330
17
100
AcDbEntity
  8
0
420
0
100
AcDbMText
 10
47.7423276296958
 20
-0.03
 30
0.0
 40
0.16
 71
9
  1
427.72
  7
Arial_Narrow
 50
90.0
  0
LINE
  5
2AE
330
17
100
AcDbEntity
  8
0
100
AcDbLine
 10
50.31000000000001
 20
0.07
 30
0.0
 11
50.31000000000001
 21
-1.32
 31
0.0
  0
MTEXT
  5
2AF
330
17
100
AcDbEntity
  8
0
420
0
100
AcDbMText
 10
50.28000000000001
 20
-0.03
 30
0.0
 40
0.16
 71
9
  1
453.10
  7
Arial_Narrow
 50
90.0
  0
LINE
  5
2B0
330
17
100
AcDbEntity
  8
0
100
AcDbLine
 10
52.80046975312861
 20
0.07
 30
0.0
 11
52.80046975312861
 21
-1.32
 31
0.0
  0
MTEXT
  5
2B1
330
17
100
AcDbEntity
  8
0
420
0
100
AcDbMText
 10
52.77046975312861
 20
-0.03
 30
0.0
 40
0.16
 71
9
  1
478.00
  7
Arial_Narrow
 50
90.0
  0
LINE
  5
2B2
330
17
100
AcDbEntity
  8
0
100
AcDbLine
 10
55.31000000000001
 20
0.07
 30
0.0
 11
55.31000000000001
 21
-1.32
 31
0.0
  0
MTEXT
  5
2B3
330
17
100
AcDbEntity
  8
0
420
0
100
AcDbMText
 10
55.28000000000001
 20
-0.03
 30
0.0
 40
0.16
 71
9
  1
503.10
  7
Arial_Narrow
 50
90.0
  0
LINE
  5
2B4
330
17
100
AcDbEntity
  8
0
100
AcDbLine
 10
57.8003030964081
 20
0.07
 30
0.0
 11
57.8003030964081
 21
-1.32
 31
0.0
  0
MTEXT
  5
2B5
330
17
100
AcDbEntity
  8
0
420
0
100
AcDbMText
 10
57.7703030964081
 20
-0.03
 30
0.0
 40
0.16
 71
9
  1
528.00
  7
Arial_Narrow
 50
90.0
  0
LINE
  5
2B6
330
17
100
AcDbEntity
  8
0
100
AcDbLine
 10
60.31000000000001
 20
0.07
 30
0.0
 11
60.31000000000001
 21
-1.32
 31
0.0
  0
MTEXT
  5
2B7
330
17
100
AcDbEntity
  8
0
420
0
100
AcDbMText
 10
60.28000000000001
 20
-0.03
 30
0.0
 40
0.16
 71
9
  1
553.10
  7
Arial_Narrow
 50
90.0
  0
LINE
  5
2B8
330
17
100
AcDbEntity
  8
0
100
AcDbLine
 10
65.31
 20
0.07
 30
0.0
 11
65.31
 21
-1.32
 31
0.0
  0
MTEXT
  5
2B9
330
17
100
AcDbEntity
  8
0
420
0
100
AcDbMText
 10
65.28
 20
-0.03
 30
0.0
 40
0.16
 71
9
  1
603.10
  7
Arial_Narrow
 50
90.0
  0
LINE
  5
2BA
330
17
100
AcDbEntity
  8
0
100
AcDbLine
 10
67.11877471346571
 20
0.07
 30
0.0
 11
67.11877471346571
 21
-1.32
 31
0.0
  0
MTEXT
  5
2BB
330
17
100
AcDbEntity
  8
0
420
0
100
AcDbMText
 10
67.08877471346571
 20
-0.03
 30
0.0
 40
0.16
 71
9
  1
621.19
  7
Arial_Narrow
 50
90.0
  0
LINE
  5
2BC
330
17
100
AcDbEntity
  8
0
100
AcDbLine
 10
70.31
 20
0.07
 30
0.0
 11
70.31
 21
-1.32
 31
0.0
  0
MTEXT
  5
2BD
330
17
100
AcDbEntity
  8
0
420
0
100
AcDbMText
 10
70.28
 20
-0.03
 30
0.0
 40
0.16
 71
9
  1
653.10
  7
Arial_Narrow
 50
90.0
  0
LINE
  5
2BE
330
17
100
AcDbEntity
  8
0
100
AcDbLine
 10
71.118774713465
 20
0.07
 30
0.0
 11
71.118774713465
 21
-1.32
 31
0.0
  0
MTEXT
  5
2BF
330
17
100
AcDbEntity
  8
0
420
0
100
AcDbMText
 10
71.088774713465
 20
-0.03
 30
0.0
 40
0.16
 71
9
  1
661.19
  7
Arial_Narrow
 50
90.0
  0
LINE
  5
2C0
330
17
100
AcDbEntity
  8
0
100
AcDbLine
 10
75.0169262678116
 20
0.07
 30
0.0
 11
75.0169262678116
 21
-1.32
 31
0.0
  0
MTEXT
  5
2C1
330
17
100
AcDbEntity
  8
0
420
0
100
AcDbMText
 10
74.9869262678116
 20
-0.03
 30
0.0
 40
0.16
 71
9
  1
700.17
  7
Arial_Narrow
 50
90.0
  0
LINE
  5
2C2
330
17
100
AcDbEntity
  8
0
100
AcDbLine
 10
75.31
 20
0.07
 30
0.0
 11
75.31
 21
-1.32
 31
0.0
  0
MTEXT
  5
2C3
330
17
100
AcDbEntity
  8
0
420
0
100
AcDbMText
 10
75.28
 20
-0.03
 30
0.0
 40
0.16
 71
9
  1
703.10
  7
Arial_Narrow
 50
90.0
  0
LINE
  5
2C4
330
17
100
AcDbEntity
  8
0
100
AcDbLine
 10
79.0169262678128
 20
0.07
 30
0.0
 11
79.0169262678128
 21
-1.32
 31
0.0
  0
MTEXT
  5
2C5
330
17
100
AcDbEntity
  8
0
420
0
100
AcDbMText
 10
78.9869262678128
 20
-0.03
 30
0.0
 40
0.16
 71
9
  1
740.17
  7
Arial_Narrow
 50
90.0
  0
LINE
  5
2C6
330
17
100
AcDbEntity
  8
0
100
AcDbLine
 10
80.31
 20
0.07
 30
0.0
 11
80.31
 21
-1.32
 31
0.0
  0
MTEXT
  5
2C7
330
17
100
AcDbEntity
  8
0
420
0
100
AcDbMText
 10
80.28
 20
-0.03
 30
0.0
 40
0.16
 71
9
  1
753.10
  7
Arial_Narrow
 50
90.0
  0
LINE
  5
2C8
330
17
100
AcDbEntity
  8
0
100
AcDbLine
 10
82.80046975346491
 20
0.07
 30
0.0
 11
82.80046975346491
 21
-1.32
 31
0.0
  0
MTEXT
  5
2C9
330
17
100
AcDbEntity
  8
0
420
0
100
AcDbMText
 10
82.77046975346491
 20
-0.03
 30
0.0
 40
0.16
 71
9
  1
778.00
  7
Arial_Narrow
 50
90.0
  0
LINE
  5
2CA
330
17
100
AcDbEntity
  8
0
100
AcDbLine
 10
85.31
 20
0.07
 30
0.0
 11
85.31
 21
-1.32
 31
0.0
  0
MTEXT
  5
2CB
330
17
100
AcDbEntity
  8
0
420
0
100
AcDbMText
 10
85.28
 20
-0.03
 30
0.0
 40
0.16
 71
9
  1
803.10
  7
Arial_Narrow
 50
90.0
  0
LINE
  5
2CC
330
17
100
AcDbEntity
  8
0
100
AcDbLine
 10
87.8003030967466
 20
0.07
 30
0.0
 11
87.8003030967466
 21
-1.32
 31
0.0
  0
MTEXT
  5
2CD
330
17
100
AcDbEntity
  8
0
420
0
100
AcDbMText
 10
87.7703030967466
 20
-0.03
 30
0.0
 40
0.16
 71
9
  1
828.00
  7
Arial_Narrow
 50
90.0
  0
LINE
  5
2CE
330
17
100
AcDbEntity
  8
0
100
AcDbLine
 10
89.9601012602411
 20
0.07
 30
0.0
 11
89.9601012602411
 21
-1.32
 31
0.0
  0
MTEXT
  5
2CF
330
17
100
AcDbEntity
  8
0
420
0
100
AcDbMText
 10
89.9301012602411
 20
-0.03
 30
0.0
 40
0.16
 71
9
  1
849.60
  7
Arial_Narrow
 50
90.0
  0
LINE
  5
2D0
330
17
100
AcDbEntity
  8
0
100
AcDbLine
 10
90.31000000000002
 20
0.07
 30
0.0
 11
90.31000000000002
 21
-1.32
 31
0.0
  0
MTEXT
  5
2D1
330
17
100
AcDbEntity
  8
0
420
0
100
AcDbMText
 10
90.28000000000002
 20
-0.03
 30
0.0
 40
0.16
 71
9
  1
853.10
  7
Arial_Narrow
 50
90.0
  0
LINE
  5
2D2
330
17
100
AcDbEntity
  8
0
100
AcDbLine
 10
93.96010126024231
 20
0.07
 30
0.0
 11
93.96010126024231
 21
-1.32
 31
0.0
  0
MTEXT
  5
2D3
330
17
100
AcDbEntity
  8
0
420
0
100
AcDbMText
 10
93.93010126024231
 20
-0.03
 30
0.0
 40
0.16
 71
9
  1
889.60
  7
Arial_Narrow
 50
90.0
  0
LINE
  5
2D4
330
17
100
AcDbEntity
  8
0
100
AcDbLine
 10
95.31000000000002
 20
0.07
 30
0.0
 11
95.31000000000002
 21
-1.32
 31
0.0
  0
MTEXT
  5
2D5
330
17
100
AcDbEntity
  8
0
420
0
100
AcDbMText
 10
95.28000000000002
 20
-0.03
 30
0.0
 40
0.16
 71
9
  1
903.10
  7
Arial_Narrow
 50
90.0
  0
LINE
  5
2D6
330
17
100
AcDbEntity
  8
0
100
AcDbLine
 10
100.31000000000002
 20
0.07
 30
0.0
 11
100.31000000000002
 21
-1.32
 31
0.0
  0
MTEXT
  5
2D7
330
17
100
AcDbEntity
  8
0
420
0
100
AcDbMText
 10
100.28000000000002
 20
-0.03
 30
0.0
 40
0.16
 71
9
  1
953.10
  7
Arial_Narrow
 50
90.0
  0
LINE
  5
2D8
330
17
100
AcDbEntity
  8
0
100
AcDbLine
 10
105.31000000000002
 20
0.07
 30
0.0
 11
105.31000000000002
 21
-1.32
 31
0.0
  0
MTEXT
  5
2D9
330
17
100
AcDbEntity
  8
0
420
0
100
AcDbMText
 10
105.28000000000002
 20
-0.03
 30
0.0
 40
0.16
 71
9
  1
1 003.10
  7
Arial_Narrow
 50
90.0
  0
LINE
  5
2DA
330
17
100
AcDbEntity
  8
0
100
AcDbLine
 10
107.93720642510901
 20
0.07
 30
0.0
 11
107.93720642510901
 21
-1.32
 31
0.0
  0
MTEXT
  5
2DB
330
17
100
AcDbEntity
  8
0
420
0
100
AcDbMText
 10
107.90720642510901
 20
-0.03
 30
0.0
 40
0.16
 71
9
  1
1 029.37
  7
Arial_Narrow
 50
90.0
  0
LINE
  5
2DC
330
17
100
AcDbEntity
  8
0
100
AcDbLine
 10
107.93720712725202
 20
0.07
 30
0.0
 11
107.93720712725202
 21
-1.32
 31
0.0
  0
MTEXT
  5
2DD
330
17
100
AcDbEntity
  8
0
420
0
100
AcDbMText
 10
107.90720712725202
 20
-0.03
 30
0.0
 40
0.16
 71
9
  1
1 029.37
  7
Arial_Narrow
 50
90.0
  0
LINE
  5
2DE
330
17
100
AcDbEntity
  8
0
100
AcDbLine
 10
5.0
 20
-1.13
 30
0.0
 11
5.0
 21
-2.9699999999999998
 31
0.0
  0
LINE
  5
2DF
330
17
100
AcDbEntity
  8
0
100
AcDbLine
 10
5.0
 20
-1.13
 30
0.0
 11
5.0
 21
-2.9699999999999998
 31
0.0
  0
LINE
  5
2E0
330
17
100
AcDbEntity
  8
0
  6
CONTINUOUS
420
12517631
100
AcDbLine
 10
5.0
 20
-2.05
 30
0.0
 11
43.772327629696505
 21
-2.05
 31
0.0
  0
MTEXT
  5
2E1
330
17
100
AcDbEntity
  8
0
420
0
100
AcDbMText
 10
24.386163814848253
 20
-1.9299999999999997
 30
0.0
 40
0.18
 71
5
  1
387.72
  7
Arial_Narrow
  0
MTEXT
  5
2E2
330
17
100
AcDbEntity
  8
0
420
8553090
100
AcDbMText
 10
24.386163814848253
 20
-2.17
 30
0.0
 40
0.14
 71
5
  1
LINE
  7
Arial_Narrow
  0
LINE
  5
2E3
330
17
100
AcDbEntity
  8
0
100
AcDbLine
 10
43.772327629696505
 20
-1.13
 30
0.0
 11
43.772327629696505
 21
-2.9699999999999998
 31
0.0
  0
LINE
  5
2E4
330
17
100
AcDbEntity
  8
0
  6
DASHED23
420
5263440
100
AcDbLine
 10
43.772327629696505
 20
-2.05
 30
0.0
 11
47.7723276296958
 21
-2.05
 31
0.0
  0
LINE
  5
2E5
330
17
100
AcDbEntity
  8
0
420
12517631
100
AcDbLine
 10
43.772327629696505
 20
-2.05
 30
0.0
 11
47.7723276296958
 21
-2.75
 31
0.0
  0
MTEXT
  5
2E6
330
17
100
AcDbEntity
  8
0
 62
85
100
AcDbMText
 10
45.77232762969615
 20
-1.9
 30
0.0
 40
0.12
 71
5
  1
<< 0.00 |R| +1 000.00 >>
  7
Arial_Narrow
  0
MTEXT
  5
2E7
330
17
100
AcDbEntity
  8
0
420
0
100
AcDbMText
 10
45.77232762969615
 20
-1.4499999999999997
 30
0.0
 40
0.18
 71
5
  1
40.00
  7
Arial_Narrow
  0
MTEXT
  5
2E8
330
17
100
AcDbEntity
  8
0
420
8553090
100
AcDbMText
 10
45.77232762969615
 20
-1.6799999999999997
 30
0.0
 40
0.14
 71
5
  1
\L\OCLOTHOID\o\l
  7
Arial_Narrow
  0
LINE
  5
2E9
330
17
100
AcDbEntity
  8
0
100
AcDbLine
 10
47.7723276296958
 20
-1.13
 30
0.0
 11
47.7723276296958
 21
-2.9699999999999998
 31
0.0
  0
LINE
  5
2EA
330
17
100
AcDbEntity
  8
0
  6
DASHED23
420
5263440
100
AcDbLine
 10
47.7723276296958
 20
-2.05
 30
0.0
 11
67.11877471346571
 21
-2.05
 31
0.0
  0
LINE
  5
2EB
330
17
100
AcDbEntity
  8
0
  6
CONTINUOUS
420
12517631
100
AcDbLine
 10
47.7723276296958
 20
-2.75
 30
0.0
 11
67.11877471346571
 21
-2.75
 31
0.0
  0
MTEXT
  5
2EC
330
17
100
AcDbEntity
  8
0
 62
85
100
AcDbMText
 10
57.44555117158076
 20
-1.9
 30
0.0
 40
0.12
 71
5
  1
|R| +1 000.00
  7
Arial_Narrow
  0
MTEXT
  5
2ED
330
17
100
AcDbEntity
  8
0
420
0
100
AcDbMText
 10
57.44555117158076
 20
-1.4499999999999997
 30
0.0
 40
0.18
 71
5
  1
193.46
  7
Arial_Narrow
  0
MTEXT
  5
2EE
330
17
100
AcDbEntity
  8
0
420
8553090
100
AcDbMText
 10
57.44555117158076
 20
-1.6799999999999997
 30
0.0
 40
0.14
 71
5
  1
\L\OCIRCULARARC\o\l
  7
Arial_Narrow
  0
LINE
  5
2EF
330
17
100
AcDbEntity
  8
0
100
AcDbLine
 10
67.11877471346571
 20
-1.13
 30
0.0
 11
67.11877471346571
 21
-2.9699999999999998
 31
0.0
  0
LINE
  5
2F0
330
17
100
AcDbEntity
  8
0
  6
DASHED23
420
5263440
100
AcDbLine
 10
67.11877471346571
 20
-2.05
 30
0.0
 11
71.118774713465
 21
-2.05
 31
0.0
  0
LINE
  5
2F1
330
17
100
AcDbEntity
  8
0
420
12517631
100
AcDbLine
 10
67.11877471346571
 20
-2.75
 30
0.0
 11
71.118774713465
 21
-2.05
 31
0.0
  0
MTEXT
  5
2F2
330
17
100
AcDbEntity
  8
0
 62
85
100
AcDbMText
 10
69.11877471346536
 20
-1.9
 30
0.0
 40
0.12
 71
5
  1
<< +1 000.00 |R| 0.00 >>
  7
Arial_Narrow
  0
MTEXT
  5
2F3
330
17
100
AcDbEntity
  8
0
420
0
100
AcDbMText
 10
69.11877471346536
 20
-1.4499999999999997
 30
0.0
 40
0.18
 71
5
  1
40.00
  7
Arial_Narrow
  0
MTEXT
  5
2F4
330
17
100
AcDbEntity
  8
0
420
8553090
100
AcDbMText
 10
69.11877471346536
 20
-1.6799999999999997
 30
0.0
 40
0.14
 71
5
  1
\L\OCLOTHOID\o\l
  7
Arial_Narrow
  0
LINE
  5
2F5
330
17
100
AcDbEntity
  8
0
100
AcDbLine
 10
71.118774713465
 20
-1.13
 30
0.0
 11
71.118774713465
 21
-2.9699999999999998
 31
0.0
  0
LINE
  5
2F6
330
17
100
AcDbEntity
  8
0
  6
CONTINUOUS
420
12517631
100
AcDbLine
 10
71.118774713465
 20
-2.05
 30
0.0
 11
75.0169262678116
 21
-2.05
 31
0.0
  0
MTEXT
  5
2F7
330
17
100
AcDbEntity
  8
0
420
0
100
AcDbMText
 10
73.0678504906383
 20
-1.9299999999999997
 30
0.0
 40
0.18
 71
5
  1
38.98
  7
Arial_Narrow
  0
MTEXT
  5
2F8
330
17
100
AcDbEntity
  8
0
420
8553090
100
AcDbMText
 10
73.0678504906383
 20
-2.17
 30
0.0
 40
0.14
 71
5
  1
LINE
  7
Arial_Narrow
  0
LINE
  5
2F9
330
17
100
AcDbEntity
  8
0
100
AcDbLine
 10
75.0169262678116
 20
-1.13
 30
0.0
 11
75.0169262678116
 21
-2.9699999999999998
 31
0.0
  0
LINE
  5
2FA
330
17
100
AcDbEntity
  8
0
  6
DASHED23
420
5263440
100
AcDbLine
 10
75.0169262678116
 20
-2.05
 30
0.0
 11
79.0169262678128
 21
-2.05
 31
0.0
  0
LINE
  5
2FB
330
17
100
AcDbEntity
  8
0
420
12517631
100
AcDbLine
 10
75.0169262678116
 20
-2.05
 30
0.0
 11
79.0169262678128
 21
-1.3500000000003407
 31
0.0
  0
MTEXT
  5
2FC
330
17
100
AcDbEntity
  8
0
 62
85
100
AcDbMText
 10
77.01692626781221
 20
-2.65
 30
0.0
 40
0.12
 71
5
  1
<< 0.00 |R| -1 000.00 >>
  7
Arial_Narrow
  0
MTEXT
  5
2FD
330
17
100
AcDbEntity
  8
0
420
0
100
AcDbMText
 10
77.01692626781221
 20
-2.1999999999999997
 30
0.0
 40
0.18
 71
5
  1
40.00
  7
Arial_Narrow
  0
MTEXT
  5
2FE
330
17
100
AcDbEntity
  8
0
420
8553090
100
AcDbMText
 10
77.01692626781221
 20
-2.42
 30
0.0
 40
0.14
 71
5
  1
\L\OCLOTHOID\o\l
  7
Arial_Narrow
  0
LINE
  5
2FF
330
17
100
AcDbEntity
  8
0
100
AcDbLine
 10
79.0169262678128
 20
-1.13
 30
0.0
 11
79.0169262678128
 21
-2.9699999999999998
 31
0.0
  0
LINE
  5
300
330
17
100
AcDbEntity
  8
0
  6
DASHED23
420
5263440
100
AcDbLine
 10
79.0169262678128
 20
-2.05
 30
0.0
 11
89.9601012602411
 21
-2.05
 31
0.0
  0
LINE
  5
301
330
17
100
AcDbEntity
  8
0
  6
CONTINUOUS
420
12517631
100
AcDbLine
 10
79.0169262678128
 20
-1.3500000000003407
 30
0.0
 11
89.9601012602411
 21
-1.3500000000003407
 31
0.0
  0
MTEXT
  5
302
330
17
100
AcDbEntity
  8
0
 62
85
100
AcDbMText
 10
84.48851376402695
 20
-2.65
 30
0.0
 40
0.12
 71
5
  1
|R| -1 000.00
  7
Arial_Narrow
  0
MTEXT
  5
303
330
17
100
AcDbEntity
  8
0
420
0
100
AcDbMText
 10
84.48851376402695
 20
-2.1999999999999997
 30
0.0
 40
0.18
 71
5
  1
109.43
  7
Arial_Narrow
  0
MTEXT
  5
304
330
17
100
AcDbEntity
  8
0
420
8553090
100
AcDbMText
 10
84.48851376402695
 20
-2.42
 30
0.0
 40
0.14
 71
5
  1
\L\OCIRCULARARC\o\l
  7
Arial_Narrow
  0
LINE
  5
305
330
17
100
AcDbEntity
  8
0
100
AcDbLine
 10
89.9601012602411
 20
-1.13
 30
0.0
 11
89.9601012602411
 21
-2.9699999999999998
 31
0.0
  0
LINE
  5
306
330
17
100
AcDbEntity
  8
0
  6
DASHED23
420
5263440
100
AcDbLine
 10
89.9601012602411
 20
-2.05
 30
0.0
 11
93.96010126024231
 21
-2.05
 31
0.0
  0
LINE
  5
307
330
17
100
AcDbEntity
  8
0
420
12517631
100
AcDbLine
 10
89.9601012602411
 20
-1.35000000000034
 30
0.0
 11
93.96010126024231
 21
-2.05
 31
0.0
  0
MTEXT
  5
308
330
17
100
AcDbEntity
  8
0
 62
85
100
AcDbMText
 10
91.96010126024171
 20
-2.65
 30
0.0
 40
0.12
 71
5
  1
<< -1 000.00 |R| 0.00 >>
  7
Arial_Narrow
  0
MTEXT
  5
309
330
17
100
AcDbEntity
  8
0
420
0
100
AcDbMText
 10
91.96010126024171
 20
-2.1999999999999997
 30
0.0
 40
0.18
 71
5
  1
40.00
  7
Arial_Narrow
  0
MTEXT
  5
30A
330
17
100
AcDbEntity
  8
0
420
8553090
100
AcDbMText
 10
91.96010126024171
 20
-2.42
 30
0.0
 40
0.14
 71
5
  1
\L\OCLOTHOID\o\l
  7
Arial_Narrow
  0
LINE
  5
30B
330
17
100
AcDbEntity
  8
0
100
AcDbLine
 10
93.96010126024231
 20
-1.13
 30
0.0
 11
93.96010126024231
 21
-2.9699999999999998
 31
0.0
  0
LINE
  5
30C
330
17
100
AcDbEntity
  8
0
  6
CONTINUOUS
420
12517631
100
AcDbLine
 10
93.96010126024231
 20
-2.05
 30
0.0
 11
107.93720712725202
 21
-2.05
 31
0.0
  0
MTEXT
  5
30D
330
17
100
AcDbEntity
  8
0
420
0
100
AcDbMText
 10
100.94865419374716
 20
-1.9299999999999997
 30
0.0
 40
0.18
 71
5
  1
139.77
  7
Arial_Narrow
  0
MTEXT
  5
30E
330
17
100
AcDbEntity
  8
0
420
8553090
100
AcDbMText
 10
100.94865419374716
 20
-2.17
 30
0.0
 40
0.14
 71
5
  1
LINE
  7
Arial_Narrow
  0
LINE
  5
30F
330
17
100
AcDbEntity
  8
0
100
AcDbLine
 10
107.93720712725202
 20
-1.13
 30
0.0
 11
107.93720712725202
 21
-2.9699999999999998
 31
0.0
  0
LINE
  5
310
330
17
100
AcDbEntity
  8
0
100
AcDbLine
 10
5.0
 20
-2.83
 30
0.0
 11
5.0
 21
-4.5
 31
0.0
  0
LINE
  5
311
330
17
100
AcDbEntity
  8
0
100
AcDbLine
 10
5.0
 20
-2.83
 30
0.0
 11
5.0
 21
-4.5
 31
0.0
  0
MTEXT
  5
312
330
17
100
AcDbEntity
  8
0
420
8553090
100
AcDbMText
 10
4.98
 20
-2.93
 30
0.0
 40
0.12
 71
9
  1
left 0.0
  7
Arial_Narrow
 50
90.0
  0
MTEXT
  5
313
330
17
100
AcDbEntity
  8
0
420
8553090
100
AcDbMText
 10
5.02
 20
-2.93
 30
0.0
 40
0.12
 71
3
  1
right 0.0
  7
Arial_Narrow
 50
90.0
  0
LINE
  5
314
330
17
100
AcDbEntity
  8
0
100
AcDbLine
 10
43.772327629696505
 20
-2.83
 30
0.0
 11
43.772327629696505
 21
-4.5
 31
0.0
  0
LINE
  5
315
330
17
100
AcDbEntity
  8
0
  6
CONTINUOUS
420
12517631
100
AcDbLine
 10
5.0
 20
-3.7
 30
0.0
 11
43.772327629696505
 21
-3.7
 31
0.0
  0
LINE
  5
316
330
17
100
AcDbEntity
  8
0
  6
CONTINUOUS
420
12517631
100
AcDbLine
 10
5.0
 20
-3.7
 30
0.0
 11
43.772327629696505
 21
-3.7
 31
0.0
  0
MTEXT
  5
317
330
17
100
AcDbEntity
  8
0
420
8553090
100
AcDbMText
 10
24.386163814848253
 20
-3.8200000000000003
 30
0.0
 40
0.14
 71
5
  1
CONSTANTCANT
  7
Arial_Narrow
  0
MTEXT
  5
318
330
17
100
AcDbEntity
  8
0
420
0
100
AcDbMText
 10
24.386163814848253
 20
-3.58
 30
0.0
 40
0.18
 71
5
  1
387.72
  7
Arial_Narrow
  0
MTEXT
  5
319
330
17
100
AcDbEntity
  8
0
420
8553090
100
AcDbMText
 10
43.7523276296965
 20
-2.93
 30
0.0
 40
0.12
 71
9
  1
left 0.0
  7
Arial_Narrow
 50
90.0
  0
MTEXT
  5
31A
330
17
100
AcDbEntity
  8
0
420
8553090
100
AcDbMText
 10
43.79232762969651
 20
-2.93
 30
0.0
 40
0.12
 71
3
  1
right 0.0
  7
Arial_Narrow
 50
90.0
  0
LINE
  5
31B
330
17
100
AcDbEntity
  8
0
100
AcDbLine
 10
47.7723276296957
 20
-2.83
 30
0.0
 11
47.7723276296957
 21
-4.5
 31
0.0
  0
LINE
  5
31C
330
17
100
AcDbEntity
  8
0
  6
DASHED23
420
5263440
100
AcDbLine
 10
43.772327629696505
 20
-3.7
 30
0.0
 11
47.7723276296957
 21
-3.7
 31
0.0
  0
LINE
  5
31D
330
17
100
AcDbEntity
  8
0
420
12517631
100
AcDbLine
 10
43.772327629696505
 20
-3.7
 30
0.0
 11
47.7723276296957
 21
-4.4
 31
0.0
  0
MTEXT
  5
31E
330
17
100
AcDbEntity
  8
0
420
8553090
100
AcDbMText
 10
45.77232762969611
 20
-3.42
 30
0.0
 40
0.14
 71
5
  1
\OLINEARTRANSITION\o
  7
Arial_Narrow
  0
MTEXT
  5
31F
330
17
100
AcDbEntity
  8
0
420
0
100
AcDbMText
 10
45.77232762969611
 20
-3.2
 30
0.0
 40
0.18
 71
5
  1
40.00
  7
Arial_Narrow
  0
MTEXT
  5
320
330
17
100
AcDbEntity
  8
0
420
8553090
100
AcDbMText
 10
47.7523276296957
 20
-2.93
 30
0.0
 40
0.12
 71
9
  1
left 0.0
  7
Arial_Narrow
 50
90.0
  0
MTEXT
  5
321
330
17
100
AcDbEntity
  8
0
420
8553090
100
AcDbMText
 10
47.792327629695706
 20
-2.93
 30
0.0
 40
0.12
 71
3
  1
right +60.0
  7
Arial_Narrow
 50
90.0
  0
LINE
  5
322
330
17
100
AcDbEntity
  8
0
100
AcDbLine
 10
67.1187747134657
 20
-2.83
 30
0.0
 11
67.1187747134657
 21
-4.5
 31
0.0
  0
LINE
  5
323
330
17
100
AcDbEntity
  8
0
  6
DASHED23
420
5263440
100
AcDbLine
 10
47.7723276296957
 20
-3.7
 30
0.0
 11
67.1187747134657
 21
-3.7
 31
0.0
  0
LINE
  5
324
330
17
100
AcDbEntity
  8
0
  6
CONTINUOUS
420
12517631
100
AcDbLine
 10
47.7723276296957
 20
-4.4
 30
0.0
 11
67.1187747134657
 21
-4.4
 31
0.0
  0
MTEXT
  5
325
330
17
100
AcDbEntity
  8
0
420
8553090
100
AcDbMText
 10
57.4455511715807
 20
-3.42
 30
0.0
 40
0.14
 71
5
  1
\OCONSTANTCANT\o
  7
Arial_Narrow
  0
MTEXT
  5
326
330
17
100
AcDbEntity
  8
0
420
0
100
AcDbMText
 10
57.4455511715807
 20
-3.2
 30
0.0
 40
0.18
 71
5
  1
193.46
  7
Arial_Narrow
  0
MTEXT
  5
327
330
17
100
AcDbEntity
  8
0
420
8553090
100
AcDbMText
 10
67.0987747134657
 20
-2.93
 30
0.0
 40
0.12
 71
9
  1
left 0.0
  7
Arial_Narrow
 50
90.0
  0
MTEXT
  5
328
330
17
100
AcDbEntity
  8
0
420
8553090
100
AcDbMText
 10
67.1387747134657
 20
-2.93
 30
0.0
 40
0.12
 71
3
  1
right +60.0
  7
Arial_Narrow
 50
90.0
  0
LINE
  5
329
330
17
100
AcDbEntity
  8
0
100
AcDbLine
 10
71.11877471346499
 20
-2.83
 30
0.0
 11
71.11877471346499
 21
-4.5
 31
0.0
  0
LINE
  5
32A
330
17
100
AcDbEntity
  8
0
  6
DASHED23
420
5263440
100
AcDbLine
 10
67.1187747134657
 20
-3.7
 30
0.0
 11
71.11877471346499
 21
-3.7
 31
0.0
  0
LINE
  5
32B
330
17
100
AcDbEntity
  8
0
420
12517631
100
AcDbLine
 10
67.1187747134657
 20
-4.4
 30
0.0
 11
71.11877471346499
 21
-3.7
 31
0.0
  0
MTEXT
  5
32C
330
17
100
AcDbEntity
  8
0
420
8553090
100
AcDbMText
 10
69.11877471346534
 20
-3.42
 30
0.0
 40
0.14
 71
5
  1
\OLINEARTRANSITION\o
  7
Arial_Narrow
  0
MTEXT
  5
32D
330
17
100
AcDbEntity
  8
0
420
0
100
AcDbMText
 10
69.11877471346534
 20
-3.2
 30
0.0
 40
0.18
 71
5
  1
40.00
  7
Arial_Narrow
  0
MTEXT
  5
32E
330
17
100
AcDbEntity
  8
0
420
8553090
100
AcDbMText
 10
71.09877471346499
 20
-2.93
 30
0.0
 40
0.12
 71
9
  1
left 0.0
  7
Arial_Narrow
 50
90.0
  0
MTEXT
  5
32F
330
17
100
AcDbEntity
  8
0
420
8553090
100
AcDbMText
 10
71.13877471346498
 20
-2.93
 30
0.0
 40
0.12
 71
3
  1
right 0.0
  7
Arial_Narrow
 50
90.0
  0
LINE
  5
330
330
17
100
AcDbEntity
  8
0
100
AcDbLine
 10
75.01692626781158
 20
-2.83
 30
0.0
 11
75.01692626781158
 21
-4.5
 31
0.0
  0
LINE
  5
331
330
17
100
AcDbEntity
  8
0
  6
CONTINUOUS
420
12517631
100
AcDbLine
 10
71.11877471346499
 20
-3.7
 30
0.0
 11
75.01692626781158
 21
-3.7
 31
0.0
  0
LINE
  5
332
330
17
100
AcDbEntity
  8
0
  6
CONTINUOUS
420
12517631
100
AcDbLine
 10
71.11877471346499
 20
-3.7
 30
0.0
 11
75.01692626781158
 21
-3.7
 31
0.0
  0
MTEXT
  5
333
330
17
100
AcDbEntity
  8
0
420
8553090
100
AcDbMText
 10
73.06785049063828
 20
-3.8200000000000003
 30
0.0
 40
0.14
 71
5
  1
CONSTANTCANT
  7
Arial_Narrow
  0
MTEXT
  5
334
330
17
100
AcDbEntity
  8
0
420
0
100
AcDbMText
 10
73.06785049063828
 20
-3.58
 30
0.0
 40
0.18
 71
5
  1
38.98
  7
Arial_Narrow
  0
MTEXT
  5
335
330
17
100
AcDbEntity
  8
0
420
8553090
100
AcDbMText
 10
74.99692626781159
 20
-2.93
 30
0.0
 40
0.12
 71
9
  1
left 0.0
  7
Arial_Narrow
 50
90.0
  0
MTEXT
  5
336
330
17
100
AcDbEntity
  8
0
420
8553090
100
AcDbMText
 10
75.03692626781158
 20
-2.93
 30
0.0
 40
0.12
 71
3
  1
right 0.0
  7
Arial_Narrow
 50
90.0
  0
LINE
  5
337
330
17
100
AcDbEntity
  8
0
100
AcDbLine
 10
79.01692626781279
 20
-2.83
 30
0.0
 11
79.01692626781279
 21
-4.5
 31
0.0
  0
LINE
  5
338
330
17
100
AcDbEntity
  8
0
  6
DASHED23
420
5263440
100
AcDbLine
 10
75.01692626781158
 20
-3.7
 30
0.0
 11
79.01692626781279
 21
-3.7
 31
0.0
  0
LINE
  5
339
330
17
100
AcDbEntity
  8
0
420
12517631
100
AcDbLine
 10
75.01692626781158
 20
-3.7
 30
0.0
 11
79.01692626781279
 21
-3.0
 31
0.0
  0
MTEXT
  5
33A
330
17
100
AcDbEntity
  8
0
420
8553090
100
AcDbMText
 10
77.01692626781218
 20
-4.2
 30
0.0
 40
0.14
 71
5
  1
\OLINEARTRANSITION\o
  7
Arial_Narrow
  0
MTEXT
  5
33B
330
17
100
AcDbEntity
  8
0
420
0
100
AcDbMText
 10
77.01692626781218
 20
-3.9800000000000004
 30
0.0
 40
0.18
 71
5
  1
40.00
  7
Arial_Narrow
  0
MTEXT
  5
33C
330
17
100
AcDbEntity
  8
0
420
8553090
100
AcDbMText
 10
78.9969262678128
 20
-3.735
 30
0.0
 40
0.12
 71
9
  1
left +60.0
  7
Arial_Narrow
 50
90.0
  0
MTEXT
  5
33D
330
17
100
AcDbEntity
  8
0
420
8553090
100
AcDbMText
 10
79.03692626781279
 20
-3.735
 30
0.0
 40
0.12
 71
3
  1
right 0.0
  7
Arial_Narrow
 50
90.0
  0
LINE
  5
33E
330
17
100
AcDbEntity
  8
0
100
AcDbLine
 10
89.96010126024109
 20
-2.83
 30
0.0
 11
89.96010126024109
 21
-4.5
 31
0.0
  0
LINE
  5
33F
330
17
100
AcDbEntity
  8
0
  6
DASHED23
420
5263440
100
AcDbLine
 10
79.01692626781279
 20
-3.7
 30
0.0
 11
89.96010126024109
 21
-3.7
 31
0.0
  0
LINE
  5
340
330
17
100
AcDbEntity
  8
0
  6
CONTINUOUS
420
12517631
100
AcDbLine
 10
79.01692626781279
 20
-3.0
 30
0.0
 11
89.96010126024109
 21
-3.0
 31
0.0
  0
MTEXT
  5
341
330
17
100
AcDbEntity
  8
0
420
8553090
100
AcDbMText
 10
84.48851376402695
 20
-4.2
 30
0.0
 40
0.14
 71
5
  1
\OCONSTANTCANT\o
  7
Arial_Narrow
  0
MTEXT
  5
342
330
17
100
AcDbEntity
  8
0
420
0
100
AcDbMText
 10
84.48851376402695
 20
-3.9800000000000004
 30
0.0
 40
0.18
 71
5
  1
109.43
  7
Arial_Narrow
  0
MTEXT
  5
343
330
17
100
AcDbEntity
  8
0
420
8553090
100
AcDbMText
 10
89.9401012602411
 20
-3.735
 30
0.0
 40
0.12
 71
9
  1
left +60.0
  7
Arial_Narrow
 50
90.0
  0
MTEXT
  5
344
330
17
100
AcDbEntity
  8
0
420
8553090
100
AcDbMText
 10
89.98010126024109
 20
-3.735
 30
0.0
 40
0.12
 71
3
  1
right 0.0
  7
Arial_Narrow
 50
90.0
  0
LINE
  5
345
330
17
100
AcDbEntity
  8
0
100
AcDbLine
 10
93.9601012602423
 20
-2.83
 30
0.0
 11
93.9601012602423
 21
-4.5
 31
0.0
  0
LINE
  5
346
330
17
100
AcDbEntity
  8
0
  6
DASHED23
420
5263440
100
AcDbLine
 10
89.96010126024109
 20
-3.7
 30
0.0
 11
93.9601012602423
 21
-3.7
 31
0.0
  0
LINE
  5
347
330
17
100
AcDbEntity
  8
0
420
12517631
100
AcDbLine
 10
89.96010126024109
 20
-3.0
 30
0.0
 11
93.9601012602423
 21
-3.7
 31
0.0
  0
MTEXT
  5
348
330
17
100
AcDbEntity
  8
0
420
8553090
100
AcDbMText
 10
91.96010126024169
 20
-4.2
 30
0.0
 40
0.14
 71
5
  1
\OLINEARTRANSITION\o
  7
Arial_Narrow
  0
MTEXT
  5
349
330
17
100
AcDbEntity
  8
0
420
0
100
AcDbMText
 10
91.96010126024169
 20
-3.9800000000000004
 30
0.0
 40
0.18
 71
5
  1
40.00
  7
Arial_Narrow
  0
MTEXT
  5
34A
330
17
100
AcDbEntity
  8
0
420
8553090
100
AcDbMText
 10
93.9401012602423
 20
-3.735
 30
0.0
 40
0.12
 71
9
  1
left 0.0
  7
Arial_Narrow
 50
90.0
  0
MTEXT
  5
34B
330
17
100
AcDbEntity
  8
0
420
8553090
100
AcDbMText
 10
93.9801012602423
 20
-3.735
 30
0.0
 40
0.12
 71
3
  1
right 0.0
  7
Arial_Narrow
 50
90.0
  0
LINE
  5
34C
330
17
100
AcDbEntity
  8
0
100
AcDbLine
 10
107.93720712725201
 20
-2.83
 30
0.0
 11
107.93720712725201
 21
-4.5
 31
0.0
  0
LINE
  5
34D
330
17
100
AcDbEntity
  8
0
  6
CONTINUOUS
420
12517631
100
AcDbLine
 10
93.9601012602423
 20
-3.7
 30
0.0
 11
107.93720712725201
 21
-3.7
 31
0.0
  0
LINE
  5
34E
330
17
100
AcDbEntity
  8
0
  6
CONTINUOUS
420
12517631
100
AcDbLine
 10
93.9601012602423
 20
-3.7
 30
0.0
 11
107.93720712725201
 21
-3.7
 31
0.0
  0
MTEXT
  5
34F
330
17
100
AcDbEntity
  8
0
420
8553090
100
AcDbMText
 10
100.94865419374716
 20
-3.8200000000000003
 30
0.0
 40
0.14
 71
5
  1
CONSTANTCANT
  7
Arial_Narrow
  0
MTEXT
  5
350
330
17
100
AcDbEntity
  8
0
420
0
100
AcDbMText
 10
100.94865419374716
 20
-3.58
 30
0.0
 40
0.18
 71
5
  1
139.77
  7
Arial_Narrow
  0
MTEXT
  5
351
330
17
100
AcDbEntity
  8
0
420
8553090
100
AcDbMText
 10
107.91720712725201
 20
-2.93
 30
0.0
 40
0.12
 71
9
  1
left 0.0
  7
Arial_Narrow
 50
90.0
  0
MTEXT
  5
352
330
17
100
AcDbEntity
  8
0
420
8553090
100
AcDbMText
 10
107.957207127252
 20
-2.93
 30
0.0
 40
0.12
 71
3
  1
right 0.0
  7
Arial_Narrow
 50
90.0
  0
LINE
  5
353
330
17
100
AcDbEntity
  8
0
  6
DASHED23
420
5263440
100
AcDbLine
 10
47.7723276296957
 20
-1.25
 30
0.0
 11
47.7723276296957
 21
-2.9
 31
0.0
  0
POLYLINE
  5
354
330
17
100
AcDbEntity
  8
0
  6
CONTINUOUS
420
16711680
100
AcDb2dPolyline
 66
1
 10
0.0
 20
0.0
 30
0.0
 70
1
  0
VERTEX
  5
355
330
17
100
AcDbEntity
  8
0
  6
CONTINUOUS
100
AcDbVertex
100
AcDb2dVertex
 10
5.0
 20
7.85000000000089
 30
0.0
 70
0
  0
VERTEX
  5
356
330
17
100
AcDbEntity
  8
0
  6
CONTINUOUS
100
AcDbVertex
100
AcDb2dVertex
 10
4.6
 20
8.050000000000889
 30
0.0
 70
0
  0
VERTEX
  5
357
330
17
100
AcDbEntity
  8
0
  6
CONTINUOUS
100
AcDbVertex
100
AcDb2dVertex
 10
5.4
 20
8.050000000000889
 30
0.0
 70
0
  0
SEQEND
  5
358
330
17
100
AcDbEntity
  8
0
  0
LINE
  5
359
330
17
100
AcDbEntity
  8
0
420
16711680
100
AcDbLine
 10
5.0
 20
7.85000000000089
 30
0.0
 11
5.0
 21
7.780000000000889
 31
0.0
  0
LINE
  5
35A
330
17
100
AcDbEntity
  8
0
  6
DASHED23
420
16711680
100
AcDbLine
 10
5.0
 20
7.85000000000089
 30
0.0
 11
5.0
 21
0.0
 31
0.0
  0
MTEXT
  5
35B
330
17
100
AcDbEntity
  8
0
420
16711680
100
AcDbMText
 10
5.0
 20
8.10000000000089
 30
0.0
 40
0.1
 71
8
  1
StaStation
  7
Arial_Narrow
  0
MTEXT
  5
35C
330
17
100
AcDbEntity
  8
0
420
16711680
100
AcDbMText
 10
5.0
 20
8.25000000000089
 30
0.0
 40
0.1
 71
8
  1
.STATION.
  7
Arial_Narrow
  0
POLYLINE
  5
35D
330
17
100
AcDbEntity
  8
0
  6
CONTINUOUS
420
16711680
100
AcDb2dPolyline
 66
1
 10
0.0
 20
0.0
 30
0.0
 70
1
  0
VERTEX
  5
35E
330
17
100
AcDbEntity
  8
0
  6
CONTINUOUS
100
AcDbVertex
100
AcDb2dVertex
 10
5.309999999999999
 20
7.85000000000089
 30
0.0
 70
0
  0
VERTEX
  5
35F
330
17
100
AcDbEntity
  8
0
  6
CONTINUOUS
100
AcDbVertex
100
AcDb2dVertex
 10
4.909999999999998
 20
8.050000000000889
 30
0.0
 70
0
  0
VERTEX
  5
360
330
17
100
AcDbEntity
  8
0
  6
CONTINUOUS
100
AcDbVertex
100
AcDb2dVertex
 10
5.709999999999999
 20
8.050000000000889
 30
0.0
 70
0
  0
SEQEND
  5
361
330
17
100
AcDbEntity
  8
0
  0
LINE
  5
362
330
17
100
AcDbEntity
  8
0
420
16711680
100
AcDbLine
 10
5.309999999999999
 20
7.85000000000089
 30
0.0
 11
5.309999999999999
 21
7.780000000000889
 31
0.0
  0
LINE
  5
363
330
17
100
AcDbEntity
  8
0
  6
DASHED23
420
16711680
100
AcDbLine
 10
5.309999999999999
 20
7.85000000000089
 30
0.0
 11
5.309999999999999
 21
0.0
 31
0.0
  0
MTEXT
  5
364
330
17
100
AcDbEntity
  8
0
420
16711680
100
AcDbMText
 10
5.309999999999999
 20
8.10000000000089
 30
0.0
 40
0.1
 71
8
  1
Referent_001
  7
Arial_Narrow
  0
MTEXT
  5
365
330
17
100
AcDbEntity
  8
0
420
16711680
100
AcDbMText
 10
5.309999999999999
 20
8.25000000000089
 30
0.0
 40
0.1
 71
8
  1
.REFERENCEMARKER.
  7
Arial_Narrow
  0
POLYLINE
  5
366
330
17
100
AcDbEntity
  8
0
  6
CONTINUOUS
420
16711680
100
AcDb2dPolyline
 66
1
 10
0.0
 20
0.0
 30
0.0
 70
1
  0
VERTEX
  5
367
330
17
100
AcDbEntity
  8
0
  6
CONTINUOUS
100
AcDbVertex
100
AcDb2dVertex
 10
10.31
 20
7.85000000000089
 30
0.0
 70
0
  0
VERTEX
  5
368
330
17
100
AcDbEntity
  8
0
  6
CONTINUOUS
100
AcDbVertex
100
AcDb2dVertex
 10
9.91
 20
8.050000000000889
 30
0.0
 70
0
  0
VERTEX
  5
369
330
17
100
AcDbEntity
  8
0
  6
CONTINUOUS
100
AcDbVertex
100
AcDb2dVertex
 10
10.71
 20
8.050000000000889
 30
0.0
 70
0
  0
SEQEND
  5
36A
330
17
100
AcDbEntity
  8
0
  0
LINE
  5
36B
330
17
100
AcDbEntity
  8
0
420
16711680
100
AcDbLine
 10
10.31
 20
7.85000000000089
 30
0.0
 11
10.31
 21
7.780000000000889
 31
0.0
  0
LINE
  5
36C
330
17
100
AcDbEntity
  8
0
  6
DASHED23
420
16711680
100
AcDbLine
 10
10.31
 20
7.85000000000089
 30
0.0
 11
10.31
 21
0.0
 31
0.0
  0
MTEXT
  5
36D
330
17
100
AcDbEntity
  8
0
420
16711680
100
AcDbMText
 10
10.31
 20
8.10000000000089
 30
0.0
 40
0.1
 71
8
  1
Referent_002
  7
Arial_Narrow
  0
MTEXT
  5
36E
330
17
100
AcDbEntity
  8
0
420
16711680
100
AcDbMText
 10
10.31
 20
8.25000000000089
 30
0.0
 40
0.1
 71
8
  1
.REFERENCEMARKER.
  7
Arial_Narrow
  0
POLYLINE
  5
36F
330
17
100
AcDbEntity
  8
0
  6
CONTINUOUS
420
16711680
100
AcDb2dPolyline
 66
1
 10
0.0
 20
0.0
 30
0.0
 70
1
  0
VERTEX
  5
370
330
17
100
AcDbEntity
  8
0
  6
CONTINUOUS
100
AcDbVertex
100
AcDb2dVertex
 10
15.309999999999999
 20
7.85000000000089
 30
0.0
 70
0
  0
VERTEX
  5
371
330
17
100
AcDbEntity
  8
0
  6
CONTINUOUS
100
AcDbVertex
100
AcDb2dVertex
 10
14.909999999999998
 20
8.050000000000889
 30
0.0
 70
0
  0
VERTEX
  5
372
330
17
100
AcDbEntity
  8
0
  6
CONTINUOUS
100
AcDbVertex
100
AcDb2dVertex
 10
15.709999999999999
 20
8.050000000000889
 30
0.0
 70
0
  0
SEQEND
  5
373
330
17
100
AcDbEntity
  8
0
  0
LINE
  5
374
330
17
100
AcDbEntity
  8
0
420
16711680
100
AcDbLine
 10
15.309999999999999
 20
7.85000000000089
 30
0.0
 11
15.309999999999999
 21
7.780000000000889
 31
0.0
  0
LINE
  5
375
330
17
100
AcDbEntity
  8
0
  6
DASHED23
420
16711680
100
AcDbLine
 10
15.309999999999999
 20
7.85000000000089
 30
0.0
 11
15.309999999999999
 21
0.0
 31
0.0
  0
MTEXT
  5
376
330
17
100
AcDbEntity
  8
0
420
16711680
100
AcDbMText
 10
15.309999999999999
 20
8.10000000000089
 30
0.0
 40
0.1
 71
8
  1
Referent_003
  7
Arial_Narrow
  0
MTEXT
  5
377
330
17
100
AcDbEntity
  8
0
420
16711680
100
AcDbMText
 10
15.309999999999999
 20
8.25000000000089
 30
0.0
 40
0.1
 71
8
  1
.REFERENCEMARKER.
  7
Arial_Narrow
  0
POLYLINE
  5
378
330
17
100
AcDbEntity
  8
0
  6
CONTINUOUS
420
16711680
100
AcDb2dPolyline
 66
1
 10
0.0
 20
0.0
 30
0.0
 70
1
  0
VERTEX
  5
379
330
17
100
AcDbEntity
  8
0
  6
CONTINUOUS
100
AcDbVertex
100
AcDb2dVertex
 10
20.31
 20
7.85000000000089
 30
0.0
 70
0
  0
VERTEX
  5
37A
330
17
100
AcDbEntity
  8
0
  6
CONTINUOUS
100
AcDbVertex
100
AcDb2dVertex
 10
19.91
 20
8.050000000000889
 30
0.0
 70
0
  0
VERTEX
  5
37B
330
17
100
AcDbEntity
  8
0
  6
CONTINUOUS
100
AcDbVertex
100
AcDb2dVertex
 10
20.709999999999997
 20
8.050000000000889
 30
0.0
 70
0
  0
SEQEND
  5
37C
330
17
100
AcDbEntity
  8
0
  0
LINE
  5
37D
330
17
100
AcDbEntity
  8
0
420
16711680
100
AcDbLine
 10
20.31
 20
7.85000000000089
 30
0.0
 11
20.31
 21
7.780000000000889
 31
0.0
  0
LINE
  5
37E
330
17
100
AcDbEntity
  8
0
  6
DASHED23
420
16711680
100
AcDbLine
 10
20.31
 20
7.85000000000089
 30
0.0
 11
20.31
 21
0.0
 31
0.0
  0
MTEXT
  5
37F
330
17
100
AcDbEntity
  8
0
420
16711680
100
AcDbMText
 10
20.31
 20
8.10000000000089
 30
0.0
 40
0.1
 71
8
  1
Referent_004
  7
Arial_Narrow
  0
MTEXT
  5
380
330
17
100
AcDbEntity
  8
0
420
16711680
100
AcDbMText
 10
20.31
 20
8.25000000000089
 30
0.0
 40
0.1
 71
8
  1
.REFERENCEMARKER.
  7
Arial_Narrow
  0
POLYLINE
  5
381
330
17
100
AcDbEntity
  8
0
  6
CONTINUOUS
420
16711680
100
AcDb2dPolyline
 66
1
 10
0.0
 20
0.0
 30
0.0
 70
1
  0
VERTEX
  5
382
330
17
100
AcDbEntity
  8
0
  6
CONTINUOUS
100
AcDbVertex
100
AcDb2dVertex
 10
25.31
 20
7.85000000000089
 30
0.0
 70
0
  0
VERTEX
  5
383
330
17
100
AcDbEntity
  8
0
  6
CONTINUOUS
100
AcDbVertex
100
AcDb2dVertex
 10
24.91
 20
8.050000000000889
 30
0.0
 70
0
  0
VERTEX
  5
384
330
17
100
AcDbEntity
  8
0
  6
CONTINUOUS
100
AcDbVertex
100
AcDb2dVertex
 10
25.709999999999997
 20
8.050000000000889
 30
0.0
 70
0
  0
SEQEND
  5
385
330
17
100
AcDbEntity
  8
0
  0
LINE
  5
386
330
17
100
AcDbEntity
  8
0
420
16711680
100
AcDbLine
 10
25.31
 20
7.85000000000089
 30
0.0
 11
25.31
 21
7.780000000000889
 31
0.0
  0
LINE
  5
387
330
17
100
AcDbEntity
  8
0
  6
DASHED23
420
16711680
100
AcDbLine
 10
25.31
 20
7.85000000000089
 30
0.0
 11
25.31
 21
0.0
 31
0.0
  0
MTEXT
  5
388
330
17
100
AcDbEntity
  8
0
420
16711680
100
AcDbMText
 10
25.31
 20
8.10000000000089
 30
0.0
 40
0.1
 71
8
  1
Referent_005
  7
Arial_Narrow
  0
MTEXT
  5
389
330
17
100
AcDbEntity
  8
0
420
16711680
100
AcDbMText
 10
25.31
 20
8.25000000000089
 30
0.0
 40
0.1
 71
8
  1
.REFERENCEMARKER.
  7
Arial_Narrow
  0
POLYLINE
  5
38A
330
17
100
AcDbEntity
  8
0
  6
CONTINUOUS
420
16711680
100
AcDb2dPolyline
 66
1
 10
0.0
 20
0.0
 30
0.0
 70
1
  0
VERTEX
  5
38B
330
17
100
AcDbEntity
  8
0
  6
CONTINUOUS
100
AcDbVertex
100
AcDb2dVertex
 10
30.31
 20
7.85000000000089
 30
0.0
 70
0
  0
VERTEX
  5
38C
330
17
100
AcDbEntity
  8
0
  6
CONTINUOUS
100
AcDbVertex
100
AcDb2dVertex
 10
29.91
 20
8.050000000000889
 30
0.0
 70
0
  0
VERTEX
  5
38D
330
17
100
AcDbEntity
  8
0
  6
CONTINUOUS
100
AcDbVertex
100
AcDb2dVertex
 10
30.709999999999997
 20
8.050000000000889
 30
0.0
 70
0
  0
SEQEND
  5
38E
330
17
100
AcDbEntity
  8
0
  0
LINE
  5
38F
330
17
100
AcDbEntity
  8
0
420
16711680
100
AcDbLine
 10
30.31
 20
7.85000000000089
 30
0.0
 11
30.31
 21
7.780000000000889
 31
0.0
  0
LINE
  5
390
330
17
100
AcDbEntity
  8
0
  6
DASHED23
420
16711680
100
AcDbLine
 10
30.31
 20
7.85000000000089
 30
0.0
 11
30.31
 21
0.0
 31
0.0
  0
MTEXT
  5
391
330
17
100
AcDbEntity
  8
0
420
16711680
100
AcDbMText
 10
30.31
 20
8.10000000000089
 30
0.0
 40
0.1
 71
8
  1
Referent_006
  7
Arial_Narrow
  0
MTEXT
  5
392
330
17
100
AcDbEntity
  8
0
420
16711680
100
AcDbMText
 10
30.31
 20
8.25000000000089
 30
0.0
 40
0.1
 71
8
  1
.REFERENCEMARKER.
  7
Arial_Narrow
  0
POLYLINE
  5
393
330
17
100
AcDbEntity
  8
0
  6
CONTINUOUS
420
16711680
100
AcDb2dPolyline
 66
1
 10
0.0
 20
0.0
 30
0.0
 70
1
  0
VERTEX
  5
394
330
17
100
AcDbEntity
  8
0
  6
CONTINUOUS
100
AcDbVertex
100
AcDb2dVertex
 10
35.31
 20
7.85000000000089
 30
0.0
 70
0
  0
VERTEX
  5
395
330
17
100
AcDbEntity
  8
0
  6
CONTINUOUS
100
AcDbVertex
100
AcDb2dVertex
 10
34.910000000000004
 20
8.050000000000889
 30
0.0
 70
0
  0
VERTEX
  5
396
330
17
100
AcDbEntity
  8
0
  6
CONTINUOUS
100
AcDbVertex
100
AcDb2dVertex
 10
35.71
 20
8.050000000000889
 30
0.0
 70
0
  0
SEQEND
  5
397
330
17
100
AcDbEntity
  8
0
  0
LINE
  5
398
330
17
100
AcDbEntity
  8
0
420
16711680
100
AcDbLine
 10
35.31
 20
7.85000000000089
 30
0.0
 11
35.31
 21
7.780000000000889
 31
0.0
  0
LINE
  5
399
330
17
100
AcDbEntity
  8
0
  6
DASHED23
420
16711680
100
AcDbLine
 10
35.31
 20
7.85000000000089
 30
0.0
 11
35.31
 21
0.0
 31
0.0
  0
MTEXT
  5
39A
330
17
100
AcDbEntity
  8
0
420
16711680
100
AcDbMText
 10
35.31
 20
8.10000000000089
 30
0.0
 40
0.1
 71
8
  1
Referent_007
  7
Arial_Narrow
  0
MTEXT
  5
39B
330
17
100
AcDbEntity
  8
0
420
16711680
100
AcDbMText
 10
35.31
 20
8.25000000000089
 30
0.0
 40
0.1
 71
8
  1
.REFERENCEMARKER.
  7
Arial_Narrow
  0
POLYLINE
  5
39C
330
17
100
AcDbEntity
  8
0
  6
CONTINUOUS
420
16711680
100
AcDb2dPolyline
 66
1
 10
0.0
 20
0.0
 30
0.0
 70
1
  0
VERTEX
  5
39D
330
17
100
AcDbEntity
  8
0
  6
CONTINUOUS
100
AcDbVertex
100
AcDb2dVertex
 10
40.31
 20
7.85000000000089
 30
0.0
 70
0
  0
VERTEX
  5
39E
330
17
100
AcDbEntity
  8
0
  6
CONTINUOUS
100
AcDbVertex
100
AcDb2dVertex
 10
39.910000000000004
 20
8.050000000000889
 30
0.0
 70
0
  0
VERTEX
  5
39F
330
17
100
AcDbEntity
  8
0
  6
CONTINUOUS
100
AcDbVertex
100
AcDb2dVertex
 10
40.71
 20
8.050000000000889
 30
0.0
 70
0
  0
SEQEND
  5
3A0
330
17
100
AcDbEntity
  8
0
  0
LINE
  5
3A1
330
17
100
AcDbEntity
  8
0
420
16711680
100
AcDbLine
 10
40.31
 20
7.85000000000089
 30
0.0
 11
40.31
 21
7.780000000000889
 31
0.0
  0
LINE
  5
3A2
330
17
100
AcDbEntity
  8
0
  6
DASHED23
420
16711680
100
AcDbLine
 10
40.31
 20
7.85000000000089
 30
0.0
 11
40.31
 21
0.0
 31
0.0
  0
MTEXT
  5
3A3
330
17
100
AcDbEntity
  8
0
420
16711680
100
AcDbMText
 10
40.31
 20
8.10000000000089
 30
0.0
 40
0.1
 71
8
  1
Referent_008
  7
Arial_Narrow
  0
MTEXT
  5
3A4
330
17
100
AcDbEntity
  8
0
420
16711680
100
AcDbMText
 10
40.31
 20
8.25000000000089
 30
0.0
 40
0.1
 71
8
  1
.REFERENCEMARKER.
  7
Arial_Narrow
  0
POLYLINE
  5
3A5
330
17
100
AcDbEntity
  8
0
  6
CONTINUOUS
420
16711680
100
AcDb2dPolyline
 66
1
 10
0.0
 20
0.0
 30
0.0
 70
1
  0
VERTEX
  5
3A6
330
17
100
AcDbEntity
  8
0
  6
CONTINUOUS
100
AcDbVertex
100
AcDb2dVertex
 10
45.31
 20
7.85000000000089
 30
0.0
 70
0
  0
VERTEX
  5
3A7
330
17
100
AcDbEntity
  8
0
  6
CONTINUOUS
100
AcDbVertex
100
AcDb2dVertex
 10
44.910000000000004
 20
8.050000000000889
 30
0.0
 70
0
  0
VERTEX
  5
3A8
330
17
100
AcDbEntity
  8
0
  6
CONTINUOUS
100
AcDbVertex
100
AcDb2dVertex
 10
45.71
 20
8.050000000000889
 30
0.0
 70
0
  0
SEQEND
  5
3A9
330
17
100
AcDbEntity
  8
0
  0
LINE
  5
3AA
330
17
100
AcDbEntity
  8
0
420
16711680
100
AcDbLine
 10
45.31
 20
7.85000000000089
 30
0.0
 11
45.31
 21
7.780000000000889
 31
0.0
  0
LINE
  5
3AB
330
17
100
AcDbEntity
  8
0
  6
DASHED23
420
16711680
100
AcDbLine
 10
45.31
 20
7.85000000000089
 30
0.0
 11
45.31
 21
0.0
 31
0.0
  0
MTEXT
  5
3AC
330
17
100
AcDbEntity
  8
0
420
16711680
100
AcDbMText
 10
45.31
 20
8.10000000000089
 30
0.0
 40
0.1
 71
8
  1
Referent_009
  7
Arial_Narrow
  0
MTEXT
  5
3AD
330
17
100
AcDbEntity
  8
0
420
16711680
100
AcDbMText
 10
45.31
 20
8.25000000000089
 30
0.0
 40
0.1
 71
8
  1
.REFERENCEMARKER.
  7
Arial_Narrow
  0
POLYLINE
  5
3AE
330
17
100
AcDbEntity
  8
0
  6
CONTINUOUS
420
16711680
100
AcDb2dPolyline
 66
1
 10
0.0
 20
0.0
 30
0.0
 70
1
  0
VERTEX
  5
3AF
330
17
100
AcDbEntity
  8
0
  6
CONTINUOUS
100
AcDbVertex
100
AcDb2dVertex
 10
50.31
 20
7.85000000000089
 30
0.0
 70
0
  0
VERTEX
  5
3B0
330
17
100
AcDbEntity
  8
0
  6
CONTINUOUS
100
AcDbVertex
100
AcDb2dVertex
 10
49.910000000000004
 20
8.050000000000889
 30
0.0
 70
0
  0
VERTEX
  5
3B1
330
17
100
AcDbEntity
  8
0
  6
CONTINUOUS
100
AcDbVertex
100
AcDb2dVertex
 10
50.71
 20
8.050000000000889
 30
0.0
 70
0
  0
SEQEND
  5
3B2
330
17
100
AcDbEntity
  8
0
  0
LINE
  5
3B3
330
17
100
AcDbEntity
  8
0
420
16711680
100
AcDbLine
 10
50.31
 20
7.85000000000089
 30
0.0
 11
50.31
 21
7.780000000000889
 31
0.0
  0
LINE
  5
3B4
330
17
100
AcDbEntity
  8
0
  6
DASHED23
420
16711680
100
AcDbLine
 10
50.31
 20
7.85000000000089
 30
0.0
 11
50.31
 21
0.0
 31
0.0
  0
MTEXT
  5
3B5
330
17
100
AcDbEntity
  8
0
420
16711680
100
AcDbMText
 10
50.31
 20
8.10000000000089
 30
0.0
 40
0.1
 71
8
  1
Referent_010
  7
Arial_Narrow
  0
MTEXT
  5
3B6
330
17
100
AcDbEntity
  8
0
420
16711680
100
AcDbMText
 10
50.31
 20
8.25000000000089
 30
0.0
 40
0.1
 71
8
  1
.REFERENCEMARKER.
  7
Arial_Narrow
  0
POLYLINE
  5
3B7
330
17
100
AcDbEntity
  8
0
  6
CONTINUOUS
420
16711680
100
AcDb2dPolyline
 66
1
 10
0.0
 20
0.0
 30
0.0
 70
1
  0
VERTEX
  5
3B8
330
17
100
AcDbEntity
  8
0
  6
CONTINUOUS
100
AcDbVertex
100
AcDb2dVertex
 10
55.31
 20
7.85000000000089
 30
0.0
 70
0
  0
VERTEX
  5
3B9
330
17
100
AcDbEntity
  8
0
  6
CONTINUOUS
100
AcDbVertex
100
AcDb2dVertex
 10
54.910000000000004
 20
8.050000000000889
 30
0.0
 70
0
  0
VERTEX
  5
3BA
330
17
100
AcDbEntity
  8
0
  6
CONTINUOUS
100
AcDbVertex
100
AcDb2dVertex
 10
55.71
 20
8.050000000000889
 30
0.0
 70
0
  0
SEQEND
  5
3BB
330
17
100
AcDbEntity
  8
0
  0
LINE
  5
3BC
330
17
100
AcDbEntity
  8
0
420
16711680
100
AcDbLine
 10
55.31
 20
7.85000000000089
 30
0.0
 11
55.31
 21
7.780000000000889
 31
0.0
  0
LINE
  5
3BD
330
17
100
AcDbEntity
  8
0
  6
DASHED23
420
16711680
100
AcDbLine
 10
55.31
 20
7.85000000000089
 30
0.0
 11
55.31
 21
0.0
 31
0.0
  0
MTEXT
  5
3BE
330
17
100
AcDbEntity
  8
0
420
16711680
100
AcDbMText
 10
55.31
 20
8.10000000000089
 30
0.0
 40
0.1
 71
8
  1
Referent_011
  7
Arial_Narrow
  0
MTEXT
  5
3BF
330
17
100
AcDbEntity
  8
0
420
16711680
100
AcDbMText
 10
55.31
 20
8.25000000000089
 30
0.0
 40
0.1
 71
8
  1
.REFERENCEMARKER.
  7
Arial_Narrow
  0
POLYLINE
  5
3C0
330
17
100
AcDbEntity
  8
0
  6
CONTINUOUS
420
16711680
100
AcDb2dPolyline
 66
1
 10
0.0
 20
0.0
 30
0.0
 70
1
  0
VERTEX
  5
3C1
330
17
100
AcDbEntity
  8
0
  6
CONTINUOUS
100
AcDbVertex
100
AcDb2dVertex
 10
60.31
 20
7.85000000000089
 30
0.0
 70
0
  0
VERTEX
  5
3C2
330
17
100
AcDbEntity
  8
0
  6
CONTINUOUS
100
AcDbVertex
100
AcDb2dVertex
 10
59.910000000000004
 20
8.050000000000889
 30
0.0
 70
0
  0
VERTEX
  5
3C3
330
17
100
AcDbEntity
  8
0
  6
CONTINUOUS
100
AcDbVertex
100
AcDb2dVertex
 10
60.71
 20
8.050000000000889
 30
0.0
 70
0
  0
SEQEND
  5
3C4
330
17
100
AcDbEntity
  8
0
  0
LINE
  5
3C5
330
17
100
AcDbEntity
  8
0
420
16711680
100
AcDbLine
 10
60.31
 20
7.85000000000089
 30
0.0
 11
60.31
 21
7.780000000000889
 31
0.0
  0
LINE
  5
3C6
330
17
100
AcDbEntity
  8
0
  6
DASHED23
420
16711680
100
AcDbLine
 10
60.31
 20
7.85000000000089
 30
0.0
 11
60.31
 21
0.0
 31
0.0
  0
MTEXT
  5
3C7
330
17
100
AcDbEntity
  8
0
420
16711680
100
AcDbMText
 10
60.31
 20
8.10000000000089
 30
0.0
 40
0.1
 71
8
  1
Referent_012
  7
Arial_Narrow
  0
MTEXT
  5
3C8
330
17
100
AcDbEntity
  8
0
420
16711680
100
AcDbMText
 10
60.31
 20
8.25000000000089
 30
0.0
 40
0.1
 71
8
  1
.REFERENCEMARKER.
  7
Arial_Narrow
  0
POLYLINE
  5
3C9
330
17
100
AcDbEntity
  8
0
  6
CONTINUOUS
420
16711680
100
AcDb2dPolyline
 66
1
 10
0.0
 20
0.0
 30
0.0
 70
1
  0
VERTEX
  5
3CA
330
17
100
AcDbEntity
  8
0
  6
CONTINUOUS
100
AcDbVertex
100
AcDb2dVertex
 10
65.31
 20
7.85000000000089
 30
0.0
 70
0
  0
VERTEX
  5
3CB
330
17
100
AcDbEntity
  8
0
  6
CONTINUOUS
100
AcDbVertex
100
AcDb2dVertex
 10
64.91
 20
8.050000000000889
 30
0.0
 70
0
  0
VERTEX
  5
3CC
330
17
100
AcDbEntity
  8
0
  6
CONTINUOUS
100
AcDbVertex
100
AcDb2dVertex
 10
65.71000000000001
 20
8.050000000000889
 30
0.0
 70
0
  0
SEQEND
  5
3CD
330
17
100
AcDbEntity
  8
0
  0
LINE
  5
3CE
330
17
100
AcDbEntity
  8
0
420
16711680
100
AcDbLine
 10
65.31
 20
7.85000000000089
 30
0.0
 11
65.31
 21
7.780000000000889
 31
0.0
  0
LINE
  5
3CF
330
17
100
AcDbEntity
  8
0
  6
DASHED23
420
16711680
100
AcDbLine
 10
65.31
 20
7.85000000000089
 30
0.0
 11
65.31
 21
0.0
 31
0.0
  0
MTEXT
  5
3D0
330
17
100
AcDbEntity
  8
0
420
16711680
100
AcDbMText
 10
65.31
 20
8.10000000000089
 30
0.0
 40
0.1
 71
8
  1
Referent_013
  7
Arial_Narrow
  0
MTEXT
  5
3D1
330
17
100
AcDbEntity
  8
0
420
16711680
100
AcDbMText
 10
65.31
 20
8.25000000000089
 30
0.0
 40
0.1
 71
8
  1
.REFERENCEMARKER.
  7
Arial_Narrow
  0
POLYLINE
  5
3D2
330
17
100
AcDbEntity
  8
0
  6
CONTINUOUS
420
16711680
100
AcDb2dPolyline
 66
1
 10
0.0
 20
0.0
 30
0.0
 70
1
  0
VERTEX
  5
3D3
330
17
100
AcDbEntity
  8
0
  6
CONTINUOUS
100
AcDbVertex
100
AcDb2dVertex
 10
70.31
 20
7.85000000000089
 30
0.0
 70
0
  0
VERTEX
  5
3D4
330
17
100
AcDbEntity
  8
0
  6
CONTINUOUS
100
AcDbVertex
100
AcDb2dVertex
 10
69.91
 20
8.050000000000889
 30
0.0
 70
0
  0
VERTEX
  5
3D5
330
17
100
AcDbEntity
  8
0
  6
CONTINUOUS
100
AcDbVertex
100
AcDb2dVertex
 10
70.71000000000001
 20
8.050000000000889
 30
0.0
 70
0
  0
SEQEND
  5
3D6
330
17
100
AcDbEntity
  8
0
  0
LINE
  5
3D7
330
17
100
AcDbEntity
  8
0
420
16711680
100
AcDbLine
 10
70.31
 20
7.85000000000089
 30
0.0
 11
70.31
 21
7.780000000000889
 31
0.0
  0
LINE
  5
3D8
330
17
100
AcDbEntity
  8
0
  6
DASHED23
420
16711680
100
AcDbLine
 10
70.31
 20
7.85000000000089
 30
0.0
 11
70.31
 21
0.0
 31
0.0
  0
MTEXT
  5
3D9
330
17
100
AcDbEntity
  8
0
420
16711680
100
AcDbMText
 10
70.31
 20
8.10000000000089
 30
0.0
 40
0.1
 71
8
  1
Referent_014
  7
Arial_Narrow
  0
MTEXT
  5
3DA
330
17
100
AcDbEntity
  8
0
420
16711680
100
AcDbMText
 10
70.31
 20
8.25000000000089
 30
0.0
 40
0.1
 71
8
  1
.REFERENCEMARKER.
  7
Arial_Narrow
  0
POLYLINE
  5
3DB
330
17
100
AcDbEntity
  8
0
  6
CONTINUOUS
420
16711680
100
AcDb2dPolyline
 66
1
 10
0.0
 20
0.0
 30
0.0
 70
1
  0
VERTEX
  5
3DC
330
17
100
AcDbEntity
  8
0
  6
CONTINUOUS
100
AcDbVertex
100
AcDb2dVertex
 10
75.31
 20
7.85000000000089
 30
0.0
 70
0
  0
VERTEX
  5
3DD
330
17
100
AcDbEntity
  8
0
  6
CONTINUOUS
100
AcDbVertex
100
AcDb2dVertex
 10
74.91
 20
8.050000000000889
 30
0.0
 70
0
  0
VERTEX
  5
3DE
330
17
100
AcDbEntity
  8
0
  6
CONTINUOUS
100
AcDbVertex
100
AcDb2dVertex
 10
75.71000000000001
 20
8.050000000000889
 30
0.0
 70
0
  0
SEQEND
  5
3DF
330
17
100
AcDbEntity
  8
0
  0
LINE
  5
3E0
330
17
100
AcDbEntity
  8
0
420
16711680
100
AcDbLine
 10
75.31
 20
7.85000000000089
 30
0.0
 11
75.31
 21
7.780000000000889
 31
0.0
  0
LINE
  5
3E1
330
17
100
AcDbEntity
  8
0
  6
DASHED23
420
16711680
100
AcDbLine
 10
75.31
 20
7.85000000000089
 30
0.0
 11
75.31
 21
0.0
 31
0.0
  0
MTEXT
  5
3E2
330
17
100
AcDbEntity
  8
0
420
16711680
100
AcDbMText
 10
75.31
 20
8.10000000000089
 30
0.0
 40
0.1
 71
8
  1
Referent_015
  7
Arial_Narrow
  0
MTEXT
  5
3E3
330
17
100
AcDbEntity
  8
0
420
16711680
100
AcDbMText
 10
75.31
 20
8.25000000000089
 30
0.0
 40
0.1
 71
8
  1
.REFERENCEMARKER.
  7
Arial_Narrow
  0
POLYLINE
  5
3E4
330
17
100
AcDbEntity
  8
0
  6
CONTINUOUS
420
16711680
100
AcDb2dPolyline
 66
1
 10
0.0
 20
0.0
 30
0.0
 70
1
  0
VERTEX
  5
3E5
330
17
100
AcDbEntity
  8
0
  6
CONTINUOUS
100
AcDbVertex
100
AcDb2dVertex
 10
80.31
 20
7.85000000000089
 30
0.0
 70
0
  0
VERTEX
  5
3E6
330
17
100
AcDbEntity
  8
0
  6
CONTINUOUS
100
AcDbVertex
100
AcDb2dVertex
 10
79.91
 20
8.050000000000889
 30
0.0
 70
0
  0
VERTEX
  5
3E7
330
17
100
AcDbEntity
  8
0
  6
CONTINUOUS
100
AcDbVertex
100
AcDb2dVertex
 10
80.71000000000001
 20
8.050000000000889
 30
0.0
 70
0
  0
SEQEND
  5
3E8
330
17
100
AcDbEntity
  8
0
  0
LINE
  5
3E9
330
17
100
AcDbEntity
  8
0
420
16711680
100
AcDbLine
 10
80.31
 20
7.85000000000089
 30
0.0
 11
80.31
 21
7.780000000000889
 31
0.0
  0
LINE
  5
3EA
330
17
100
AcDbEntity
  8
0
  6
DASHED23
420
16711680
100
AcDbLine
 10
80.31
 20
7.85000000000089
 30
0.0
 11
80.31
 21
0.0
 31
0.0
  0
MTEXT
  5
3EB
330
17
100
AcDbEntity
  8
0
420
16711680
100
AcDbMText
 10
80.31
 20
8.10000000000089
 30
0.0
 40
0.1
 71
8
  1
Referent_016
  7
Arial_Narrow
  0
MTEXT
  5
3EC
330
17
100
AcDbEntity
  8
0
420
16711680
100
AcDbMText
 10
80.31
 20
8.25000000000089
 30
0.0
 40
0.1
 71
8
  1
.REFERENCEMARKER.
  7
Arial_Narrow
  0
POLYLINE
  5
3ED
330
17
100
AcDbEntity
  8
0
  6
CONTINUOUS
420
16711680
100
AcDb2dPolyline
 66
1
 10
0.0
 20
0.0
 30
0.0
 70
1
  0
VERTEX
  5
3EE
330
17
100
AcDbEntity
  8
0
  6
CONTINUOUS
100
AcDbVertex
100
AcDb2dVertex
 10
85.31
 20
7.85000000000089
 30
0.0
 70
0
  0
VERTEX
  5
3EF
330
17
100
AcDbEntity
  8
0
  6
CONTINUOUS
100
AcDbVertex
100
AcDb2dVertex
 10
84.91
 20
8.050000000000889
 30
0.0
 70
0
  0
VERTEX
  5
3F0
330
17
100
AcDbEntity
  8
0
  6
CONTINUOUS
100
AcDbVertex
100
AcDb2dVertex
 10
85.71000000000001
 20
8.050000000000889
 30
0.0
 70
0
  0
SEQEND
  5
3F1
330
17
100
AcDbEntity
  8
0
  0
LINE
  5
3F2
330
17
100
AcDbEntity
  8
0
420
16711680
100
AcDbLine
 10
85.31
 20
7.85000000000089
 30
0.0
 11
85.31
 21
7.780000000000889
 31
0.0
  0
LINE
  5
3F3
330
17
100
AcDbEntity
  8
0
  6
DASHED23
420
16711680
100
AcDbLine
 10
85.31
 20
7.85000000000089
 30
0.0
 11
85.31
 21
0.0
 31
0.0
  0
MTEXT
  5
3F4
330
17
100
AcDbEntity
  8
0
420
16711680
100
AcDbMText
 10
85.31
 20
8.10000000000089
 30
0.0
 40
0.1
 71
8
  1
Referent_017
  7
Arial_Narrow
  0
MTEXT
  5
3F5
330
17
100
AcDbEntity
  8
0
420
16711680
100
AcDbMText
 10
85.31
 20
8.25000000000089
 30
0.0
 40
0.1
 71
8
  1
.REFERENCEMARKER.
  7
Arial_Narrow
  0
POLYLINE
  5
3F6
330
17
100
AcDbEntity
  8
0
  6
CONTINUOUS
420
16711680
100
AcDb2dPolyline
 66
1
 10
0.0
 20
0.0
 30
0.0
 70
1
  0
VERTEX
  5
3F7
330
17
100
AcDbEntity
  8
0
  6
CONTINUOUS
100
AcDbVertex
100
AcDb2dVertex
 10
90.31
 20
7.85000000000089
 30
0.0
 70
0
  0
VERTEX
  5
3F8
330
17
100
AcDbEntity
  8
0
  6
CONTINUOUS
100
AcDbVertex
100
AcDb2dVertex
 10
89.91
 20
8.050000000000889
 30
0.0
 70
0
  0
VERTEX
  5
3F9
330
17
100
AcDbEntity
  8
0
  6
CONTINUOUS
100
AcDbVertex
100
AcDb2dVertex
 10
90.71000000000001
 20
8.050000000000889
 30
0.0
 70
0
  0
SEQEND
  5
3FA
330
17
100
AcDbEntity
  8
0
  0
LINE
  5
3FB
330
17
100
AcDbEntity
  8
0
420
16711680
100
AcDbLine
 10
90.31
 20
7.85000000000089
 30
0.0
 11
90.31
 21
7.780000000000889
 31
0.0
  0
LINE
  5
3FC
330
17
100
AcDbEntity
  8
0
  6
DASHED23
420
16711680
100
AcDbLine
 10
90.31
 20
7.85000000000089
 30
0.0
 11
90.31
 21
0.0
 31
0.0
  0
MTEXT
  5
3FD
330
17
100
AcDbEntity
  8
0
420
16711680
100
AcDbMText
 10
90.31
 20
8.10000000000089
 30
0.0
 40
0.1
 71
8
  1
Referent_018
  7
Arial_Narrow
  0
MTEXT
  5
3FE
330
17
100
AcDbEntity
  8
0
420
16711680
100
AcDbMText
 10
90.31
 20
8.25000000000089
 30
0.0
 40
0.1
 71
8
  1
.REFERENCEMARKER.
  7
Arial_Narrow
  0
POLYLINE
  5
3FF
330
17
100
AcDbEntity
  8
0
  6
CONTINUOUS
420
16711680
100
AcDb2dPolyline
 66
1
 10
0.0
 20
0.0
 30
0.0
 70
1
  0
VERTEX
  5
400
330
17
100
AcDbEntity
  8
0
  6
CONTINUOUS
100
AcDbVertex
100
AcDb2dVertex
 10
95.31
 20
7.85000000000089
 30
0.0
 70
0
  0
VERTEX
  5
401
330
17
100
AcDbEntity
  8
0
  6
CONTINUOUS
100
AcDbVertex
100
AcDb2dVertex
 10
94.91
 20
8.050000000000889
 30
0.0
 70
0
  0
VERTEX
  5
402
330
17
100
AcDbEntity
  8
0
  6
CONTINUOUS
100
AcDbVertex
100
AcDb2dVertex
 10
95.71000000000001
 20
8.050000000000889
 30
0.0
 70
0
  0
SEQEND
  5
403
330
17
100
AcDbEntity
  8
0
  0
LINE
  5
404
330
17
100
AcDbEntity
  8
0
420
16711680
100
AcDbLine
 10
95.31
 20
7.85000000000089
 30
0.0
 11
95.31
 21
7.780000000000889
 31
0.0
  0
LINE
  5
405
330
17
100
AcDbEntity
  8
0
  6
DASHED23
420
16711680
100
AcDbLine
 10
95.31
 20
7.85000000000089
 30
0.0
 11
95.31
 21
0.0
 31
0.0
  0
MTEXT
  5
406
330
17
100
AcDbEntity
  8
0
420
16711680
100
AcDbMText
 10
95.31
 20
8.10000000000089
 30
0.0
 40
0.1
 71
8
  1
Referent_019
  7
Arial_Narrow
  0
MTEXT
  5
407
330
17
100
AcDbEntity
  8
0
420
16711680
100
AcDbMText
 10
95.31
 20
8.25000000000089
 30
0.0
 40
0.1
 71
8
  1
.REFERENCEMARKER.
  7
Arial_Narrow
  0
POLYLINE
  5
408
330
17
100
AcDbEntity
  8
0
  6
CONTINUOUS
420
16711680
100
AcDb2dPolyline
 66
1
 10
0.0
 20
0.0
 30
0.0
 70
1
  0
VERTEX
  5
409
330
17
100
AcDbEntity
  8
0
  6
CONTINUOUS
100
AcDbVertex
100
AcDb2dVertex
 10
100.31
 20
7.85000000000089
 30
0.0
 70
0
  0
VERTEX
  5
40A
330
17
100
AcDbEntity
  8
0
  6
CONTINUOUS
100
AcDbVertex
100
AcDb2dVertex
 10
99.91
 20
8.050000000000889
 30
0.0
 70
0
  0
VERTEX
  5
40B
330
17
100
AcDbEntity
  8
0
  6
CONTINUOUS
100
AcDbVertex
100
AcDb2dVertex
 10
100.71000000000001
 20
8.050000000000889
 30
0.0
 70
0
  0
SEQEND
  5
40C
330
17
100
AcDbEntity
  8
0
  0
LINE
  5
40D
330
17
100
AcDbEntity
  8
0
420
16711680
100
AcDbLine
 10
100.31
 20
7.85000000000089
 30
0.0
 11
100.31
 21
7.780000000000889
 31
0.0
  0
LINE
  5
40E
330
17
100
AcDbEntity
  8
0
  6
DASHED23
420
16711680
100
AcDbLine
 10
100.31
 20
7.85000000000089
 30
0.0
 11
100.31
 21
0.0
 31
0.0
  0
MTEXT
  5
40F
330
17
100
AcDbEntity
  8
0
420
16711680
100
AcDbMText
 10
100.31
 20
8.10000000000089
 30
0.0
 40
0.1
 71
8
  1
Referent_020
  7
Arial_Narrow
  0
MTEXT
  5
410
330
17
100
AcDbEntity
  8
0
420
16711680
100
AcDbMText
 10
100.31
 20
8.25000000000089
 30
0.0
 40
0.1
 71
8
  1
.REFERENCEMARKER.
  7
Arial_Narrow
  0
POLYLINE
  5
411
330
17
100
AcDbEntity
  8
0
  6
CONTINUOUS
420
16711680
100
AcDb2dPolyline
 66
1
 10
0.0
 20
0.0
 30
0.0
 70
1
  0
VERTEX
  5
412
330
17
100
AcDbEntity
  8
0
  6
CONTINUOUS
100
AcDbVertex
100
AcDb2dVertex
 10
105.31
 20
7.85000000000089
 30
0.0
 70
0
  0
VERTEX
  5
413
330
17
100
AcDbEntity
  8
0
  6
CONTINUOUS
100
AcDbVertex
100
AcDb2dVertex
 10
104.91
 20
8.050000000000889
 30
0.0
 70
0
  0
VERTEX
  5
414
330
17
100
AcDbEntity
  8
0
  6
CONTINUOUS
100
AcDbVertex
100
AcDb2dVertex
 10
105.71000000000001
 20
8.050000000000889
 30
0.0
 70
0
  0
SEQEND
  5
415
330
17
100
AcDbEntity
  8
0
  0
LINE
  5
416
330
17
100
AcDbEntity
  8
0
420
16711680
100
AcDbLine
 10
105.31
 20
7.85000000000089
 30
0.0
 11
105.31
 21
7.780000000000889
 31
0.0
  0
LINE
  5
417
330
17
100
AcDbEntity
  8
0
  6
DASHED23
420
16711680
100
AcDbLine
 10
105.31
 20
7.85000000000089
 30
0.0
 11
105.31
 21
0.0
 31
0.0
  0
MTEXT
  5
418
330
17
100
AcDbEntity
  8
0
420
16711680
100
AcDbMText
 10
105.31
 20
8.10000000000089
 30
0.0
 40
0.1
 71
8
  1
Referent_021
  7
Arial_Narrow
  0
MTEXT
  5
419
330
17
100
AcDbEntity
  8
0
420
16711680
100
AcDbMText
 10
105.31
 20
8.25000000000089
 30
0.0
 40
0.1
 71
8
  1
.REFERENCEMARKER.
  7
Arial_Narrow
  0
LINE
  5
41A
330
17
100
AcDbEntity
  8
0
100
AcDbLine
 10
5.0
 20
11.020000000000891
 30
0.0
 11
5.0
 21
10.03000000000089
 31
0.0
  0
MTEXT
  5
41B
330
17
100
AcDbEntity
  8
0
420
0
100
AcDbMText
 10
4.97
 20
10.920000000000892
 30
0.0
 40
0.16
 71
9
  1
5.00
  7
Arial_Narrow
 50
90.0
  0
LINE
  5
41C
330
17
100
AcDbEntity
  8
0
  6
DASHED23
420
5263440
100
AcDbLine
 10
5.0
 20
8.50000000000089
 30
0.0
 11
5.0
 21
0.0
 31
0.0
  0
LINE
  5
41D
330
17
100
AcDbEntity
  8
0
100
AcDbLine
 10
52.8004697531286
 20
11.020000000000891
 30
0.0
 11
52.8004697531286
 21
10.03000000000089
 31
0.0
  0
MTEXT
  5
41E
330
17
100
AcDbEntity
  8
0
420
0
100
AcDbMText
 10
52.7704697531286
 20
10.920000000000892
 30
0.0
 40
0.16
 71
9
  1
5.00
  7
Arial_Narrow
 50
90.0
  0
LINE
  5
41F
330
17
100
AcDbEntity
  8
0
  6
DASHED23
420
5263440
100
AcDbLine
 10
52.8004697531286
 20
8.50000000000089
 30
0.0
 11
52.8004697531286
 21
0.0
 31
0.0
  0
LINE
  5
420
330
17
100
AcDbEntity
  8
0
100
AcDbLine
 10
57.80030309640809
 20
11.020000000000891
 30
0.0
 11
57.80030309640809
 21
10.03000000000089
 31
0.0
  0
MTEXT
  5
421
330
17
100
AcDbEntity
  8
0
420
0
100
AcDbMText
 10
57.77030309640809
 20
10.920000000000892
 30
0.0
 40
0.16
 71
9
  1
4.75
  7
Arial_Narrow
 50
90.0
  0
LINE
  5
422
330
17
100
AcDbEntity
  8
0
  6
DASHED23
420
5263440
100
AcDbLine
 10
57.80030309640809
 20
8.50000000000089
 30
0.0
 11
57.80030309640809
 21
0.0
 31
0.0
  0
LINE
  5
423
330
17
100
AcDbEntity
  8
0
100
AcDbLine
 10
82.80046975346491
 20
11.020000000000891
 30
0.0
 11
82.80046975346491
 21
10.03000000000089
 31
0.0
  0
MTEXT
  5
424
330
17
100
AcDbEntity
  8
0
420
0
100
AcDbMText
 10
82.77046975346491
 20
10.920000000000892
 30
0.0
 40
0.16
 71
9
  1
2.25
  7
Arial_Narrow
 50
90.0
  0
LINE
  5
425
330
17
100
AcDbEntity
  8
0
  6
DASHED23
420
5263440
100
AcDbLine
 10
82.80046975346491
 20
8.50000000000089
 30
0.0
 11
82.80046975346491
 21
0.0
 31
0.0
  0
LINE
  5
426
330
17
100
AcDbEntity
  8
0
100
AcDbLine
 10
87.8003030967466
 20
11.020000000000891
 30
0.0
 11
87.8003030967466
 21
10.03000000000089
 31
0.0
  0
MTEXT
  5
427
330
17
100
AcDbEntity
  8
0
420
0
100
AcDbMText
 10
87.7703030967466
 20
10.920000000000892
 30
0.0
 40
0.16
 71
9
  1
2.00
  7
Arial_Narrow
 50
90.0
  0
LINE
  5
428
330
17
100
AcDbEntity
  8
0
  6
DASHED23
420
5263440
100
AcDbLine
 10
87.8003030967466
 20
8.50000000000089
 30
0.0
 11
87.8003030967466
 21
0.0
 31
0.0
  0
LINE
  5
429
330
17
100
AcDbEntity
  8
0
100
AcDbLine
 10
107.93720642510901
 20
11.020000000000891
 30
0.0
 11
107.93720642510901
 21
10.03000000000089
 31
0.0
  0
MTEXT
  5
42A
330
17
100
AcDbEntity
  8
0
420
0
100
AcDbMText
 10
107.90720642510901
 20
10.920000000000892
 30
0.0
 40
0.16
 71
9
  1
2.00
  7
Arial_Narrow
 50
90.0
  0
LINE
  5
42B
330
17
100
AcDbEntity
  8
0
  6
DASHED23
420
5263440
100
AcDbLine
 10
107.93720642510901
 20
8.50000000000089
 30
0.0
 11
107.93720642510901
 21
0.0
 31
0.0
  0
LINE
  5
42C
330
17
100
AcDbEntity
  8
0
100
AcDbLine
 10
5.0
 20
10.17000000000089
 30
0.0
 11
5.0
 21
8.50000000000089
 31
0.0
  0
LINE
  5
42D
330
17
100
AcDbEntity
  8
0
100
AcDbLine
 10
52.8004697531286
 20
10.17000000000089
 30
0.0
 11
52.8004697531286
 21
8.50000000000089
 31
0.0
  0
MTEXT
  5
42E
330
17
100
AcDbEntity
  8
0
420
185
100
AcDbMText
 10
28.9002348765643
 20
9.45000000000089
 30
0.0
 40
0.12
 71
5
  1
|G| +0.00
  7
Arial_Narrow
  0
LINE
  5
42F
330
17
100
AcDbEntity
  8
0
  6
CONTINUOUS
420
12517631
100
AcDbLine
 10
5.0
 20
9.300000000000889
 30
0.0
 11
52.8004697531286
 21
9.300000000000889
 31
0.0
  0
LINE
  5
430
330
17
100
AcDbEntity
  8
0
420
185
100
AcDbLine
 10
9.78004697531286
 20
8.700000000000891
 30
0.0
 11
48.02042277781574
 21
9.10000000000089
 31
0.0
  0
MTEXT
  5
431
330
17
100
AcDbEntity
  8
0
420
8553090
100
AcDbMText
 10
28.9002348765643
 20
9.670000000000888
 30
0.0
 40
0.14
 71
5
  1
\L\OCONSTANTGRADIENT\o\l
  7
Arial_Narrow
  0
MTEXT
  5
432
330
17
100
AcDbEntity
  8
0
420
0
100
AcDbMText
 10
28.9002348765643
 20
9.900000000000889
 30
0.0
 40
0.18
 71
5
  1
478.00
  7
Arial_Narrow
  0
LINE
  5
433
330
17
100
AcDbEntity
  8
0
100
AcDbLine
 10
57.80030309640809
 20
10.17000000000089
 30
0.0
 11
57.80030309640809
 21
8.50000000000089
 31
0.0
  0
LINE
  5
434
330
17
100
AcDbEntity
  8
0
  6
DASHED23
420
5263440
100
AcDbLine
 10
52.8004697531286
 20
9.300000000000889
 30
0.0
 11
57.80030309640809
 21
9.300000000000889
 31
0.0
  0
LINE
  5
435
330
17
100
AcDbEntity
  8
0
  6
CONTINUOUS
420
12517631
100
AcDbLine
 10
52.8004697531286
 20
10.000000000000888
 30
0.0
 11
57.80030309640809
 21
10.000000000000888
 31
0.0
  0
MTEXT
  5
436
330
17
100
AcDbEntity
  8
0
420
3957810
100
AcDbMText
 10
55.30038642476835
 20
8.70000000000089
 30
0.0
 40
0.12
 71
5
  1
|R| -5 000.00
  7
Arial_Narrow
  0
MTEXT
  5
437
330
17
100
AcDbEntity
  8
0
420
8553090
100
AcDbMText
 10
55.30038642476835
 20
8.93000000000089
 30
0.0
 40
0.14
 71
5
  1
\L\OCIRCULARARC\o\l
  7
Arial_Narrow
  0
MTEXT
  5
438
330
17
100
AcDbEntity
  8
0
420
0
100
AcDbMText
 10
55.30038642476835
 20
9.150000000000889
 30
0.0
 40
0.18
 71
5
  1
50.00
  7
Arial_Narrow
  0
LINE
  5
439
330
17
100
AcDbEntity
  8
0
100
AcDbLine
 10
82.80046975346491
 20
10.17000000000089
 30
0.0
 11
82.80046975346491
 21
8.50000000000089
 31
0.0
  0
MTEXT
  5
43A
330
17
100
AcDbEntity
  8
0
420
12386350
100
AcDbMText
 10
70.3003864249365
 20
9.45000000000089
 30
0.0
 40
0.12
 71
5
  1
|G| -10.00
  7
Arial_Narrow
  0
LINE
  5
43B
330
17
100
AcDbEntity
  8
0
  6
CONTINUOUS
420
12517631
100
AcDbLine
 10
57.80030309640809
 20
9.300000000000889
 30
0.0
 11
82.80046975346491
 21
9.300000000000889
 31
0.0
  0
LINE
  5
43C
330
17
100
AcDbEntity
  8
0
420
12386350
100
AcDbLine
 10
60.30031976211377
 20
9.10000000000089
 30
0.0
 11
80.30045308775922
 21
8.700000000000891
 31
0.0
  0
MTEXT
  5
43D
330
17
100
AcDbEntity
  8
0
420
8553090
100
AcDbMText
 10
70.3003864249365
 20
9.670000000000888
 30
0.0
 40
0.14
 71
5
  1
\L\OCONSTANTGRADIENT\o\l
  7
Arial_Narrow
  0
MTEXT
  5
43E
330
17
100
AcDbEntity
  8
0
420
0
100
AcDbMText
 10
70.3003864249365
 20
9.900000000000889
 30
0.0
 40
0.18
 71
5
  1
250.00
  7
Arial_Narrow
  0
LINE
  5
43F
330
17
100
AcDbEntity
  8
0
100
AcDbLine
 10
87.8003030967466
 20
10.17000000000089
 30
0.0
 11
87.8003030967466
 21
8.50000000000089
 31
0.0
  0
LINE
  5
440
330
17
100
AcDbEntity
  8
0
  6
DASHED23
420
5263440
100
AcDbLine
 10
82.80046975346491
 20
9.300000000000889
 30
0.0
 11
87.8003030967466
 21
9.300000000000889
 31
0.0
  0
LINE
  5
441
330
17
100
AcDbEntity
  8
0
  6
CONTINUOUS
420
12517631
100
AcDbLine
 10
82.80046975346491
 20
8.60000000000089
 30
0.0
 11
87.8003030967466
 21
8.60000000000089
 31
0.0
  0
MTEXT
  5
442
330
17
100
AcDbEntity
  8
0
420
3957810
100
AcDbMText
 10
85.30038642510576
 20
9.45000000000089
 30
0.0
 40
0.12
 71
5
  1
|R| +5 000.00
  7
Arial_Narrow
  0
MTEXT
  5
443
330
17
100
AcDbEntity
  8
0
420
8553090
100
AcDbMText
 10
85.30038642510576
 20
9.670000000000888
 30
0.0
 40
0.14
 71
5
  1
\L\OCIRCULARARC\o\l
  7
Arial_Narrow
  0
MTEXT
  5
444
330
17
100
AcDbEntity
  8
0
420
0
100
AcDbMText
 10
85.30038642510576
 20
9.900000000000889
 30
0.0
 40
0.18
 71
5
  1
50.00
  7
Arial_Narrow
  0
LINE
  5
445
330
17
100
AcDbEntity
  8
0
100
AcDbLine
 10
107.93720642510901
 20
10.17000000000089
 30
0.0
 11
107.93720642510901
 21
8.50000000000089
 31
0.0
  0
MTEXT
  5
446
330
17
100
AcDbEntity
  8
0
420
185
100
AcDbMText
 10
97.8687547609278
 20
9.45000000000089
 30
0.0
 40
0.12
 71
5
  1
|G| +0.00
  7
Arial_Narrow
  0
LINE
  5
447
330
17
100
AcDbEntity
  8
0
  6
CONTINUOUS
420
12517631
100
AcDbLine
 10
87.8003030967466
 20
9.300000000000889
 30
0.0
 11
107.93720642510901
 21
9.300000000000889
 31
0.0
  0
LINE
  5
448
330
17
100
AcDbEntity
  8
0
420
185
100
AcDbLine
 10
89.81399342958284
 20
8.700000000000891
 30
0.0
 11
105.92351609227278
 21
9.10000000000089
 31
0.0
  0
MTEXT
  5
449
330
17
100
AcDbEntity
  8
0
420
8553090
100
AcDbMText
 10
97.8687547609278
 20
9.670000000000888
 30
0.0
 40
0.14
 71
5
  1
\L\OCONSTANTGRADIENT\o\l
  7
Arial_Narrow
  0
MTEXT
  5
44A
330
17
100
AcDbEntity
  8
0
420
0
100
AcDbMText
 10
97.8687547609278
 20
9.900000000000889
 30
0.0
 40
0.18
 71
5
  1
201.37
  7
Arial_Narrow
  0
POLYLINE
  5
44B
330
17
100
AcDbEntity
  8
0
  6
CONTINUOUS
420
0
100
AcDb2dPolyline
 66
1
 10
0.0
 20
0.0
 30
0.0
 70
1
  0
VERTEX
  5
44C
330
17
100
AcDbEntity
  8
0
  6
CONTINUOUS
100
AcDbVertex
100
AcDb2dVertex
 10
3.8
 20
0.0
 30
0.0
 70
0
  0
VERTEX
  5
44D
330
17
100
AcDbEntity
  8
0
  6
CONTINUOUS
100
AcDbVertex
100
AcDb2dVertex
 10
3.4
 20
0.2
 30
0.0
 70
0
  0
VERTEX
  5
44E
330
17
100
AcDbEntity
  8
0
  6
CONTINUOUS
100
AcDbVertex
100
AcDb2dVertex
 10
4.2
 20
0.2
 30
0.0
 70
0
  0
SEQEND
  5
44F
330
17
100
AcDbEntity
  8
0
  0
MTEXT
  5
450
330
17
100
AcDbEntity
  8
0
420
0
100
AcDbMText
 10
3.8
 20
0.25
 30
0.0
 40
0.2
 71
8
  1
2.00
  7
Arial_Narrow
  0
LINE
  5
451
330
17
100
AcDbEntity
  8
0
100
AcDbLine
 10
5.0
 20
7.00000000000085
 30
0.0
 11
52.8004697531286
 21
7.00000000000089
 31
0.0
  0
ARC
  5
452
330
17
100
AcDbEntity
  8
0
100
AcDbCircle
 10
52.806636235487304
 20
-42.99999961974406
 30
0.0
 40
50.0
100
AcDbArc
 50
84.26812327954896
 51
90.00706626828982
  0
LINE
  5
453
330
17
100
AcDbEntity
  8
0
100
AcDbLine
 10
57.80030309640809
 20
6.75000833283964
 30
0.0
 11
82.80046975346491
 21
4.24999166716125
 31
0.0
  0
ARC
  5
454
330
17
100
AcDbEntity
  8
0
100
AcDbCircle
 10
87.79413661438569
 20
53.999999619744955
 30
0.0
 40
50.0
100
AcDbArc
 50
-95.73187672045104
 51
-89.99293373170765
  0
LINE
  5
455
330
17
100
AcDbEntity
  8
0
100
AcDbLine
 10
87.8003030967466
 20
4.0
 30
0.0
 11
107.93720642510901
 21
4.00000000000085
 31
0.0
  0
ENDSEC
  0
SECTION
  2
OBJECTS
  0
DICTIONARY
  5
A
330
0
100
AcDbDictionary
281
1
  3
ACAD_COLOR
350
B
  3
ACAD_GROUP
350
C
  3
ACAD_LAYOUT
350
D
  3
ACAD_MATERIAL
350
E
  3
ACAD_MLEADERSTYLE
350
F
  3
ACAD_MLINESTYLE
350
10
  3
ACAD_PLOTSETTINGS
350
11
  3
ACAD_PLOTSTYLENAME
350
12
  3
ACAD_SCALELIST
350
14
  3
ACAD_TABLESTYLE
350
15
  3
ACAD_VISUALSTYLE
350
16
  3
EZDXF_META
350
2D
  0
DICTIONARY
  5
B
330
A
100
AcDbDictionary
281
1
  0
DICTIONARY
  5
C
330
A
100
AcDbDictionary
281
1
  0
DICTIONARY
  5
D
330
A
100
AcDbDictionary
281
1
  3
Model
350
1A
  3
Layout1
350
1E
  0
DICTIONARY
  5
E
330
A
100
AcDbDictionary
281
1
  3
ByBlock
350
1F
  3
ByLayer
350
20
  3
Global
350
21
  0
DICTIONARY
  5
F
330
A
100
AcDbDictionary
281
1
  3
Standard
350
2C
  0
DICTIONARY
  5
10
330
A
100
AcDbDictionary
281
1
  3
Standard
350
22
  0
DICTIONARY
  5
11
330
A
100
AcDbDictionary
281
1
  0
ACDBDICTIONARYWDFLT
  5
12
330
A
100
AcDbDictionary
281
1
  3
Normal
350
13
100
AcDbDictionaryWithDefault
340
13
  0
ACDBPLACEHOLDER
  5
13
330
12
  0
DICTIONARY
  5
14
330
A
100
AcDbDictionary
281
1
  0
DICTIONARY
  5
15
330
A
100
AcDbDictionary
281
1
  0
DICTIONARY
  5
16
330
A
100
AcDbDictionary
281
1
  3
2dWireframe
350
5A
  3
Basic
350
5B
  3
Brighten
350
5C
  3
ColorChange
350
5D
  3
Conceptual
350
5E
  3
Dim
350
5F
  3
EdgeColorOff
350
60
  3
Facepattern
350
61
  3
Flat
350
62
  3
FlatWithEdges
350
63
  3
Gouraud
350
64
  3
GouraudWithEdges
350
65
  3
Hidden
350
66
  3
JitterOff
350
67
  3
Linepattern
350
68
  3
Modeling
350
69
  3
OverhangOff
350
6A
  3
Realistic
350
6B
  3
Shaded
350
6C
  3
Shaded with edges
350
6D
  3
Shades of Gray
350
6E
  3
Sketchy
350
6F
  3
Thicken
350
70
  3
Wireframe
350
71
  3
X-Ray
350
72
  0
LAYOUT
  5
1A
330
D
100
AcDbPlotSettings
  1

  2
Adobe PDF
  4
A3
  6

 40
7.5
 41
20.0
 42
7.5
 43
20.0
 44
420.0
 45
297.0
 46
0.0
 47
0.0
 48
0.0
 49
0.0
140
0.0
141
0.0
142
1.0
143
1.0
 70
1024
 72
1
 73
1
 74
5
  7

 75
16
 76
0
 77
2
 78
300
147
1.0
148
0.0
149
0.0
100
AcDbLayout
  1
Model
 70
1
 71
0
 10
0.0
 20
0.0
 11
420.0
 21
297.0
 12
0.0
 22
0.0
 32
0.0
 14
1e+20
 24
1e+20
 34
1e+20
 15
-1e+20
 25
-1e+20
 35
-1e+20
146
0.0
 13
0.0
 23
0.0
 33
0.0
 16
1.0
 26
0.0
 36
0.0
 17
0.0
 27
1.0
 37
0.0
 76
1
330
17
  0
LAYOUT
  5
1E
330
D
100
AcDbPlotSettings
  1

  2
Adobe PDF
  4
A3
  6

 40
7.5
 41
20.0
 42
7.5
 43
20.0
 44
420.0
 45
297.0
 46
0.0
 47
0.0
 48
0.0
 49
0.0
140
0.0
141
0.0
142
1.0
143
1.0
 70
0
 72
1
 73
1
 74
5
  7

 75
16
 76
0
 77
2
 78
300
147
1.0
148
0.0
149
0.0
100
AcDbLayout
  1
Layout1
 70
1
 71
1
 10
0.0
 20
0.0
 11
420.0
 21
297.0
 12
0.0
 22
0.0
 32
0.0
 14
1e+20
 24
1e+20
 34
1e+20
 15
-1e+20
 25
-1e+20
 35
-1e+20
146
0.0
 13
0.0
 23
0.0
 33
0.0
 16
1.0
 26
0.0
 36
0.0
 17
0.0
 27
1.0
 37
0.0
 76
1
330
1B
  0
MATERIAL
  5
1F
102
{ACAD_REACTORS
330
E
102
}
330
E
100
AcDbMaterial
  1
ByBlock
  2

 70
0
 40
1.0
 71
1
 41
1.0
 91
-1023410177
 42
1.0
 72
1
  3

 73
1
 74
1
 75
1
 44
0.5
 73
0
 45
1.0
 46
1.0
 77
1
  4

 78
1
 79
1
170
1
 48
1.0
171
1
  6

172
1
173
1
174
1
140
1.0
141
1.0
175
1
  7

176
1
177
1
178
1
143
1.0
179
1
  8

270
1
271
1
272
1
145
1.0
146
1.0
273
1
  9

274
1
275
1
276
1
 42
1.0
 72
1
  3

 73
1
 74
1
 75
1
 94
63
  0
MATERIAL
  5
20
102
{ACAD_REACTORS
330
E
102
}
330
E
100
AcDbMaterial
  1
ByLayer
  2

 70
0
 40
1.0
 71
1
 41
1.0
 91
-1023410177
 42
1.0
 72
1
  3

 73
1
 74
1
 75
1
 44
0.5
 73
0
 45
1.0
 46
1.0
 77
1
  4

 78
1
 79
1
170
1
 48
1.0
171
1
  6

172
1
173
1
174
1
140
1.0
141
1.0
175
1
  7

176
1
177
1
178
1
143
1.0
179
1
  8

270
1
271
1
272
1
145
1.0
146
1.0
273
1
  9

274
1
275
1
276
1
 42
1.0
 72
1
  3

 73
1
 74
1
 75
1
 94
63
  0
MATERIAL
  5
21
102
{ACAD_REACTORS
330
E
102
}
330
E
100
AcDbMaterial
  1
Global
  2

 70
0
 40
1.0
 71
1
 41
1.0
 91
-1023410177
 42
1.0
 72
1
  3

 73
1
 74
1
 75
1
 44
0.5
 73
0
 45
1.0
 46
1.0
 77
1
  4

 78
1
 79
1
170
1
 48
1.0
171
1
  6

172
1
173
1
174
1
140
1.0
141
1.0
175
1
  7

176
1
177
1
178
1
143
1.0
179
1
  8

270
1
271
1
272
1
145
1.0
146
1.0
273
1
  9

274
1
275
1
276
1
 42
1.0
 72
1
  3

 73
1
 74
1
 75
1
 94
63
  0
MLINESTYLE
  5
22
102
{ACAD_REACTORS
330
10
102
}
330
10
100
AcDbMlineStyle
  2
Standard
 70
0
  3

 62
256
 51
90.0
 52
90.0
 71
2
 49
0.5
 62
256
  6
BYLAYER
 49
-0.5
 62
256
  6
BYLAYER
  0
MLEADERSTYLE
  5
2C
102
{ACAD_REACTORS
330
F
102
}
330
F
100
AcDbMLeaderStyle
179
2
170
2
171
1
172
0
 90
2
 40
0.0
 41
0.0
173
1
 91
-1056964608
 92
-2
290
1
 42
2.0
291
1
 43
8.0
  3
Standard
 44
4.0
300

342
29
174
1
175
1
176
0
178
1
 93
-1056964608
 45
4.0
292
0
297
0
 46
4.0
 94
-1056964608
 47
1.0
 49
1.0
140
1.0
294
1
141
0.0
177
0
142
1.0
295
0
296
0
143
3.75
271
0
272
9
273
9
  0
DICTIONARY
  5
2D
330
A
100
AcDbDictionary
281
1
  3
CREATED_BY_EZDXF
350
2E
  3
WRITTEN_BY_EZDXF
350
458
  0
DICTIONARYVAR
  5
2E
330
2D
100
DictionaryVariables
280
0
  1
0.16.6 @ 2023-03-07T11:30:14.838077+00:00
  0
VISUALSTYLE
  5
5A
102
{ACAD_REACTORS
330
16
102
}
330
16
100
AcDbVisualStyle
  2
2dWireframe
 70
4
 90
0
 40
0.6
 62
7
290
0
291
0
  0
VISUALSTYLE
  5
5B
102
{ACAD_REACTORS
330
16
102
}
330
16
100
AcDbVisualStyle
  2
Basic
 70
7
 90
1
 40
0.6
 62
7
290
0
291
1
  0
VISUALSTYLE
  5
5C
102
{ACAD_REACTORS
330
16
102
}
330
16
100
AcDbVisualStyle
  2
Brighten
 70
12
 90
2
 40
0.6
 62
7
290
0
291
1
  0
VISUALSTYLE
  5
5D
102
{ACAD_REACTORS
330
16
102
}
330
16
100
AcDbVisualStyle
  2
ColorChange
 70
16
 90
2
 40
0.6
 62
8
290
0
291
1
  0
VISUALSTYLE
  5
5E
102
{ACAD_REACTORS
330
16
102
}
330
16
100
AcDbVisualStyle
  2
Conceptual
 70
9
 90
3
 40
0.6
 62
7
290
0
291
0
  0
VISUALSTYLE
  5
5F
102
{ACAD_REACTORS
330
16
102
}
330
16
100
AcDbVisualStyle
  2
Dim
 70
11
 90
2
 40
0.6
 62
7
290
0
291
1
  0
VISUALSTYLE
  5
60
102
{ACAD_REACTORS
330
16
102
}
330
16
100
AcDbVisualStyle
  2
EdgeColorOff
 70
22
 90
2
 40
0.6
 62
7
290
0
291
1
  0
VISUALSTYLE
  5
61
102
{ACAD_REACTORS
330
16
102
}
330
16
100
AcDbVisualStyle
  2
Facepattern
 70
15
 90
2
 40
0.6
 62
7
290
0
291
1
  0
VISUALSTYLE
  5
62
102
{ACAD_REACTORS
330
16
102
}
330
16
100
AcDbVisualStyle
  2
Flat
 70
0
 90
2
 40
0.6
 62
7
290
0
291
1
  0
VISUALSTYLE
  5
63
102
{ACAD_REACTORS
330
16
102
}
330
16
100
AcDbVisualStyle
  2
FlatWithEdges
 70
1
 90
2
 40
0.6
 62
7
290
0
291
1
  0
VISUALSTYLE
  5
64
102
{ACAD_REACTORS
330
16
102
}
330
16
100
AcDbVisualStyle
  2
Gouraud
 70
2
 90
2
 40
0.6
 62
7
290
0
291
1
  0
VISUALSTYLE
  5
65
102
{ACAD_REACTORS
330
16
102
}
330
16
100
AcDbVisualStyle
  2
GouraudWithEdges
 70
3
 90
2
 40
0.6
 62
7
290
0
291
1
  0
VISUALSTYLE
  5
66
102
{ACAD_REACTORS
330
16
102
}
330
16
100
AcDbVisualStyle
  2
Hidden
 70
6
 90
1
 40
0.6
 62
7
290
0
291
0
  0
VISUALSTYLE
  5
67
102
{ACAD_REACTORS
330
16
102
}
330
16
100
AcDbVisualStyle
  2
JitterOff
 70
20
 90
2
 40
0.6
 62
7
290
0
291
1
  0
VISUALSTYLE
  5
68
102
{ACAD_REACTORS
330
16
102
}
330
16
100
AcDbVisualStyle
  2
Linepattern
 70
14
 90
2
 40
0.6
 62
7
290
0
291
1
  0
VISUALSTYLE
  5
69
102
{ACAD_REACTORS
330
16
102
}
330
16
100
AcDbVisualStyle
  2
Modeling
 70
10
 90
2
 40
0.6
 62
7
290
0
291
0
  0
VISUALSTYLE
  5
6A
102
{ACAD_REACTORS
330
16
102
}
330
16
100
AcDbVisualStyle
  2
OverhangOff
 70
21
 90
2
 40
0.6
 62
7
290
0
291
1
  0
VISUALSTYLE
  5
6B
102
{ACAD_REACTORS
330
16
102
}
330
16
100
AcDbVisualStyle
  2
Realistic
 70
8
 90
2
 40
0.6
 62
7
290
0
291
0
  0
VISUALSTYLE
  5
6C
102
{ACAD_REACTORS
330
16
102
}
330
16
100
AcDbVisualStyle
  2
Shaded
 70
27
 90
2
 40
0.6
 62
7
290
0
291
0
  0
VISUALSTYLE
  5
6D
102
{ACAD_REACTORS
330
16
102
}
330
16
100
AcDbVisualStyle
  2
Shaded with edges
 70
26
 90
2
 40
0.6
 62
7
290
0
291
0
  0
VISUALSTYLE
  5
6E
102
{ACAD_REACTORS
330
16
102
}
330
16
100
AcDbVisualStyle
  2
Shades of Gray
 70
23
 90
2
 40
0.6
 62
7
290
0
291
0
  0
VISUALSTYLE
  5
6F
102
{ACAD_REACTORS
330
16
102
}
330
16
100
AcDbVisualStyle
  2
Sketchy
 70
24
 90
1
 40
0.6
 62
7
290
0
291
0
  0
VISUALSTYLE
  5
70
102
{ACAD_REACTORS
330
16
102
}
330
16
100
AcDbVisualStyle
  2
Thicken
 70
13
 90
2
 40
0.6
 62
7
290
0
291
1
  0
VISUALSTYLE
  5
71
102
{ACAD_REACTORS
330
16
102
}
330
16
100
AcDbVisualStyle
  2
Wireframe
 70
5
 90
0
 40
0.6
 62
7
290
0
291
0
  0
VISUALSTYLE
  5
72
102
{ACAD_REACTORS
330
16
102
}
330
16
100
AcDbVisualStyle
  2
X-Ray
 70
25
 90
2
 40
0.5
 62
7
290
0
291
0
  0
DICTIONARYVAR
  5
458
330
2D
100
DictionaryVariables
280
0
  1
0.16.6 @ 2023-03-07T11:30:14.884953+00:00
  0
ENDSEC
  0
EOF
